<?xml version="1.0" encoding="UTF-8"?>
<svg id="b" data-name="Laag 2" xmlns="http://www.w3.org/2000/svg" width="175mm" height="175mm" viewBox="0 0 496.063 496.063">
  <path d="M218.82,104.333h23.547l-15.213,42.122c-.246.682-.1,1.41.324,1.936h0s0,0,0,0c.126.157.277.296.451.411,0,0,.003.002.004.003h0c.129.085.27.155.42.21.225.081.454.12.68.12.116,0,.232-.011.346-.03.467-.082.905-.329,1.22-.723l48.206-60.393c.479-.601.572-1.423.238-2.115-.333-.692-1.033-1.133-1.802-1.133h-23.546l15.211-42.121c.333-.921-.05-1.947-.904-2.425-.854-.478-1.929-.268-2.54.497l-48.207,60.392c-.479.601-.572,1.423-.238,2.115.333.692,1.033,1.133,1.802,1.133ZM261.03,52.661l-12.062,33.401c-.222.613-.131,1.296.244,1.829.374.533.985.851,1.637.851h22.239l-38.054,47.673,3.944-10.921,8.12-22.481h-.002l.015-.041c.154-.458.134-.936-.028-1.356-.032-.083-.069-.164-.113-.242-.218-.399-.572-.726-1.026-.903-.037-.014-.073-.027-.11-.039-.221-.071-.453-.095-.663-.098h-22.194l38.055-47.672Z" fill="#007e84"/>
  <path d="M277.243,411.408h-23.546l15.212-42.121c.375-1.039-.163-2.186-1.201-2.561-.38-.137-.774-.154-1.14-.065-.423.1-.815.337-1.104.698l-48.207,60.392c-.479.601-.572,1.423-.238,2.115.333.692,1.033,1.133,1.802,1.133h23.547l-15.211,42.122c-.333.921.05,1.947.904,2.425.308.172.643.255.976.255.592,0,1.173-.263,1.564-.752l48.206-60.393c.479-.601.572-1.423.238-2.115-.333-.692-1.033-1.133-1.802-1.133ZM235.033,463.081l12.063-33.402c.222-.613.131-1.296-.244-1.829-.374-.533-.985-.851-1.637-.851h-22.24l38.055-47.673-12.064,33.402h.002c-.172.476-.152.972.018,1.407.029.075.063.148.102.22.219.407.578.74,1.041.919.033.012.065.023.099.034.222.073.458.093.668.1h22.193l-38.055,47.673Z" fill="#007e84"/>
  <path d="M143.838,139.43c.635.433,1.461.462,2.127.08l20.392-11.774,7.886,44.086c.01.055.021.108.036.161.232.882,1.034,1.486,1.931,1.486.116,0,.235-.01.354-.031.324-.058.616-.191.86-.378.402-.307.687-.763.767-1.293l11.552-76.404c.115-.76-.216-1.518-.851-1.951-.636-.435-1.462-.464-2.127-.08l-20.392,11.773-7.888-44.084c-.171-.954-1.001-1.647-1.969-1.647h-.027c-.979.014-1.804.733-1.95,1.701l-11.552,76.404c-.115.76.216,1.518.851,1.951ZM156.684,73.654l6.254,34.959c.115.642.535,1.187,1.126,1.461.59.275,1.278.244,1.843-.081l19.26-11.12-9.119,60.312-2.227-12.444-4.026-22.515h-.002s-.002-.011-.003-.017c0,0,0-.002,0-.005,0,0,0-.003,0-.004h0c-.101-.521-.395-.957-.795-1.245,0,0-.002,0-.003-.002,0,0,0,0,0,0-.002-.002-.003-.004-.006-.004-.003,0-.002,0-.004-.003t-.005-.004s-.004-.002-.004-.002l-.002-.002s-.005-.003-.005-.003l-.004-.003s0,0-.002,0c-.409-.281-.921-.414-1.453-.327-.026.005-.054.01-.081.015-.232.048-.447.134-.64.251l-19.22,11.098,9.12-60.313Z" fill="#007e84"/>
  <path d="M352.225,376.312c-.636-.434-1.462-.465-2.127-.08l-20.392,11.773-7.887-44.086c-.194-1.086-1.227-1.81-2.321-1.616-.449.08-.838.306-1.124.619-.261.284-.44.646-.502,1.052l-11.552,76.404c-.115.76.216,1.518.851,1.951.635.433,1.461.462,2.127.08l20.392-11.773,7.886,44.086c.111.62.509,1.151,1.073,1.435.281.142.589.212.896.212s.613-.07.896-.211c.582-.291.985-.847,1.083-1.49l11.552-76.404c.115-.76-.216-1.518-.851-1.951ZM339.379,442.092l-6.254-34.964c-.115-.642-.535-1.187-1.126-1.461-.268-.125-.556-.187-.843-.187-.346,0-.691.09-1,.268l-19.26,11.12,9.119-60.312,6.253,34.959c.111.62.509,1.151,1.073,1.435.495.249,1.071.279,1.587.089h0s.003,0,.005-.002h0s.002,0,.003,0c.077-.029.153-.062.227-.102.028-.015.057-.03.084-.046l19.25-11.114-9.12,60.317Z" fill="#007e84"/>
  <path d="M96.864,206.129c.28.716.946,1.207,1.712,1.265.773.055,1.498-.329,1.883-.994l11.773-20.392,28.872,34.235.003.003c.39.461.944.701,1.504.708h.023c.443,0,.889-.146,1.258-.446.129-.104.242-.222.339-.35.077-.102.143-.21.198-.322.24-.49.278-1.073.067-1.612l-28.198-71.944c-.28-.716-.946-1.207-1.712-1.265-.776-.066-1.499.328-1.883.994l-11.773,20.393-28.872-34.236c-.435-.515-1.086-.771-1.767-.696-.668.08-1.252.491-1.553,1.093-.253.507-.279,1.097-.073,1.624l28.198,71.943ZM99.708,171.157c.42.499,1.052.758,1.706.703.649-.058,1.229-.428,1.556-.992l11.12-19.261,22.26,56.792-7.494-8.885-15.401-18.264h0c-.007-.007-.013-.014-.019-.021,0,0,0-.002-.002-.002h0c-.322-.371-.751-.594-1.202-.664h-.003c-.083-.013-.168-.021-.253-.022-.464-.02-.934.137-1.319.453,0,0-.002,0-.003.002h0c-.017.014-.033.027-.049.041-.181.159-.325.343-.435.543l-11.098,19.22-22.261-56.795,22.897,27.151Z" fill="#007e84"/>
  <path d="M399.199,309.612c-.28-.716-.946-1.207-1.712-1.265-.77-.063-1.498.328-1.883.994l-11.772,20.392-28.782-34.128-.09-.107c-.714-.847-1.976-.953-2.818-.24-.289.244-.491.552-.604.885-.148.436-.147.921.03,1.376l28.198,71.943c.28.716.946,1.207,1.712,1.265.771.058,1.498-.329,1.883-.994l11.772-20.392,28.873,34.234c.393.465.957.711,1.53.711.351,0,.703-.092,1.022-.281.841-.501,1.196-1.537.839-2.448l-28.198-71.944ZM396.354,344.585c-.382-.453-.942-.711-1.529-.711-.059,0-.117.003-.177.008-.649.058-1.229.428-1.556.992l-11.119,19.26-22.259-56.791,22.895,27.148h0c.713.844,1.974.95,2.818.239.2-.169.358-.368.475-.585l11.088-19.205,22.259,56.793-22.896-27.148Z" fill="#007e84"/>
  <path d="M92.494,289.082c.295,0,.592-.065.867-.198.692-.333,1.133-1.033,1.133-1.802v-23.546l42.122,15.212c1.04.375,2.186-.161,2.561-1.201.138-.38.152-.773.065-1.139-.1-.424-.337-.816-.698-1.105l-60.393-48.207c-.602-.479-1.425-.573-2.115-.238-.692.333-1.133,1.033-1.133,1.802v23.547l-42.121-15.211c-.921-.334-1.948.049-2.425.904-.479.854-.268,1.929.497,2.54l60.392,48.206c.361.288.803.437,1.248.437ZM90.619,259.99s0,.002,0,.004c-.006.015-.011.029-.016.044-.079.23-.114.466-.108.696v22.192l-47.672-38.055,33.401,12.063c.613.223,1.295.13,1.829-.244.533-.374.851-.985.851-1.637v-22.24l47.674,38.055-33.403-12.064v.002c-.477-.172-.978-.151-1.418.021h0s-.002,0-.003.002c-.07.027-.14.06-.207.097,0,0-.002,0-.003,0-.412.223-.748.59-.924,1.062Z" fill="#007e84"/>
  <path d="M465.209,275.303l-60.393-48.207c-.601-.479-1.425-.573-2.115-.238-.692.333-1.133,1.033-1.133,1.802v23.547l-42.121-15.213s-.004-.002-.006-.002c-1.036-.369-2.181.166-2.555,1.203-.123.34-.148.691-.09,1.023.081.468.328.906.723,1.222l60.392,48.206c.361.288.803.437,1.248.437.295,0,.592-.065.867-.198.692-.333,1.133-1.033,1.133-1.802v-23.546l42.122,15.211c.921.333,1.947-.05,2.425-.904.479-.854.268-1.929-.497-2.54ZM419.839,258.806c-.613-.222-1.295-.13-1.829.244-.533.374-.851.985-.851,1.637v22.239l-47.672-38.054,33.401,12.064v-.002c.475.173.974.152,1.408-.019h0s.002,0,.003,0c.073-.029.146-.062.216-.101t.002,0s0,0,0,0c.403-.218.733-.574.912-1.032.015-.037.028-.075.04-.113.071-.219.102-.441.097-.659v-22.194l47.673,38.055-33.402-12.062Z" fill="#007e84"/>
  <path d="M127.938,362.937c.655,0,1.276-.322,1.652-.873.433-.635.464-1.462.08-2.127l-11.773-20.393,44.085-7.886c1.087-.194,1.811-1.233,1.616-2.321-.08-.45-.306-.838-.62-1.124-.284-.261-.646-.44-1.051-.502l-76.404-11.552c-.762-.113-1.519.217-1.951.851-.433.635-.464,1.462-.08,2.127l11.773,20.392-44.085,7.886c-.62.111-1.151.509-1.435,1.073-.283.563-.283,1.228,0,1.792.291.582.847.985,1.49,1.083l76.404,11.552c.1.015.2.022.299.022ZM63.811,349.219l34.963-6.254c.642-.115,1.187-.535,1.461-1.126s.244-1.278-.081-1.843l-11.12-19.26,60.312,9.119-34.959,6.253h0c-1.087.195-1.811,1.234-1.616,2.322.047.261.142.5.274.712l11.083,19.196-60.317-9.12Z" fill="#007e84"/>
  <path d="M366.473,153.678c-.433.635-.464,1.462-.08,2.127l11.773,20.392-44.086,7.886c-.023.004-.046.009-.069.014-.931.2-1.579,1.025-1.578,1.953,0,.117.01.235.031.354.059.325.192.618.38.863.307.4.762.684,1.291.764l76.405,11.552c.1.015.2.022.299.022.655,0,1.276-.322,1.652-.873.433-.635.464-1.462.08-2.127l-11.774-20.393,44.085-7.887c.963-.173,1.66-1.017,1.647-1.996-.014-.979-.733-1.804-1.701-1.95l-76.404-11.552c-.762-.109-1.519.217-1.951.851ZM432.247,166.522l-34.959,6.254c-.642.115-1.187.535-1.461,1.126s-.244,1.278.081,1.843l11.121,19.261-60.313-9.119,34.96-6.254h0c.5-.091.924-.359,1.216-.729.046-.058.088-.118.127-.181t0-.002c.249-.398.359-.885.277-1.383v-.002h0c-.004-.024-.008-.048-.013-.07h0s0-.004,0-.005c-.047-.232-.134-.447-.25-.639l-11.097-19.22,60.312,9.119Z" fill="#007e84"/>
  <path d="M210.299,361.657c-.09-.065-.184-.123-.281-.173-.491-.248-1.085-.291-1.634-.078l-71.944,28.198c-.716.28-1.207.946-1.265,1.713-.058.766.329,1.497.994,1.882l20.393,11.772-34.236,28.872c-.515.435-.775,1.098-.696,1.767.08.668.491,1.252,1.093,1.553.281.141.587.211.895.211.247,0,.495-.046.729-.138l71.944-28.198c.716-.28,1.207-.946,1.265-1.713.058-.766-.329-1.497-.994-1.882l-20.393-11.772,34.235-28.872s.005-.004.007-.006c0,0,.002,0,.002-.002.005-.004.009-.008.014-.012,0,0,0,0,.002,0,.119-.104.223-.219.312-.342,0,0,.002-.003.003-.004.003-.004.005-.008.008-.012,0,0,0,0,0-.002.002-.002.003-.004.005-.006s.003-.006.005-.008.004-.005.004-.005c.217-.315.334-.683.349-1.054h0v-.013h0c.015-.465-.131-.936-.445-1.323-.108-.135-.233-.253-.369-.354ZM171.412,392.448h0c-.016.015-.03.027-.045.04-.356.318-.572.737-.642,1.178-.014.089-.022.179-.024.269h0c-.01.459.137.921.445,1.302.021.025.041.05.062.073.157.176.338.317.534.425l19.22,11.096-56.797,22.261,27.152-22.897c.498-.421.761-1.057.703-1.706s-.428-1.229-.992-1.556l-19.261-11.119,56.792-22.26-27.148,22.896Z" fill="#007e84"/>
  <path d="M285.418,153.762c.354.419.842.656,1.348.703.061.005.122.008.185.008.243,0,.49-.045.729-.138l71.944-28.197c.716-.28,1.207-.946,1.265-1.712.058-.767-.329-1.498-.994-1.883l-20.393-11.773,34.234-28.873c.749-.632.93-1.712.43-2.553-.501-.84-1.534-1.194-2.448-.839l-71.944,28.198c-.716.28-1.207.946-1.265,1.712-.058.767.329,1.498.994,1.883l20.393,11.773-34.236,28.872c-.02.017-.038.032-.056.049-.433.393-.655.936-.655,1.481,0,.454.154.911.469,1.286,0,0,.002,0,.002.002ZM312.535,133.512l12.117-10.219h0c.007-.007.014-.013.021-.019l.002-.002c.374-.324.598-.759.666-1.215.011-.075.018-.151.021-.229.016-.463-.129-.932-.44-1.318,0,0,0,0,0-.002-.022-.027-.046-.056-.07-.082-.155-.173-.334-.312-.527-.418l-19.221-11.098,56.793-22.259-27.148,22.896c-.498.421-.761,1.057-.703,1.706s.428,1.229.992,1.556l19.261,11.12-56.792,22.259,15.031-12.677Z" fill="#007e84"/>
  <path d="M271.209,235.444l-1.3-4.001s-4.101,2.201-4.601,4.901c0,0,4.401,4.401-1.6,12.502l1.5,1.7s3.101-2,5.301-.4l2.701-3.601s-6.601-7.902-2-11.103Z" fill="#007e84"/>
  <path d="M262.408,237.345s-3.001,4.201-5.201,5.401l1.6,2.601s6.201-1.701,6.001-6.302l-2.401-1.7Z" fill="#007e84"/>
  <path d="M263.608,216.54l-.3-3.601-5.201-1.9-2.501,2.4s1.2,6.101,8.002,3.101Z" fill="#007e84"/>
  <path d="M257.207,205.638c3.301,1.2,8.402-6.701,12.402-6.901,0,0-.1-6.601,5.301-7.902,0,0-1.3-8.401-20.904-8.201,0,0-2.5,7.901-9.102,11.502-6.601,3.601-12.102,10.302-12.102,10.302l.9,5.101s10.153-8.756,23.505-3.901Z" fill="#007e84"/>
  <polygon points="287.113 199.737 286.713 195.336 282.612 196.136 285.212 200.637 287.113 199.737" fill="#007e84"/>
  <path d="M162.887,216.14c0,4.101-2.2,9.502-2.2,9.502l1.5,4.301c2.5-4.801,2-14.903,2-14.903l-1.3,1.101Z" fill="#007e84"/>
  <polygon points="159.086 233.044 160.987 240.245 162.387 235.944 161.487 231.643 159.086 233.044" fill="#007e84"/>
  <path d="M248.032,157.709c-54.785,0-99.356,44.571-99.356,99.356s44.571,99.356,99.356,99.356,99.356-44.571,99.356-99.356-44.571-99.356-99.356-99.356ZM319.769,314.586c-3.151-2.076-7.427-21.53-7.427-21.53,6.826,3.401,8.702,18.754,8.702,18.754,10.527-7.352,17.479-26.255,17.479-26.255l-2.401-.525c-4.401,9.377-7.051-.375-7.051-.375l2.325-2.325c3.076,2.675,4.126,1.125,7.026-3.676.849-1.405,1.929-2.119,3.032-2.433-2.595,12.676-7.718,24.44-14.809,34.75l.276-1.111s-4.001,6.802-7.151,4.727ZM313.243,263.275c1.95-.525.15-3.451.15-3.451l3.451-3.15s-1.425,4.951,2.625,6.751c4.051,1.8,2.776,6.001-1.125,5.026-3.901-.975-5.626,1.726-7.651,3.076-2.944,1.963-4.876-2.4-4.876-2.4,2.176-3.226,3.226-8.852,3.226-8.852l2.626.375c-.75,2.025-.375,3.151,1.575,2.625ZM332.222,269.726l-3.676-1.726.975-3.601c-2.851-3.151-4.576-8.252-4.576-8.252l2.851-5.551,1.65,1.95c-1.425,5.701,3.601,6.602,3.601,6.602-1.5,2.325.825,7.201-.825,10.577ZM200.395,186.934c-4.401,1.7-7.402,9.002-7.402,9.002-2-1.201-3.601-4.201-3.601-4.201,3.901-1.8,8.102-6.801,8.102-6.801l2.901,2ZM175.12,318.446c2.188-3.97,5.171-1.585,5.171-1.585,0,0-1.4-4.401-8.802-14.503-7.402-10.103-8.302-19.404-12.102-32.207-3.801-12.803-3.101-28.105-3.101-28.105-.804-.462-1.612-.47-2.393-.185,2.603-16.173,9.284-30.999,18.956-43.383.376,2.29.142,4.908-1.56,7.461-4.601,6.901-4.901,10.402-4.901,10.402,0,0,6.001-6.601,7.802-8.102,1.8-1.5,2.901,1.6,6.201-1,3.301-2.601,7.802,1.2,7.802,1.2,0,0,.4-2,5.601-1.5,5.201.5-.8,3.701-.8,3.701l7.302,4.201.9-1.9-2.801-1.701c4.401-5.501,2.5-8.602,2.5-8.602,7.102-.9,5.101,5.701,5.101,5.701l8.302,1.1s-.6-2.9,2-6.601c2.601-3.701,6.101-7.802,6.101-7.802-3.401-.2-2.901-1.3-.4-3.401,2.501-2.1,2.701-7.101,2.701-7.101-8.602,1.4-18.604,7.701-18.604,7.701l-1.495-1.993c.058.017.723-.296,8.296-8.409,8.402-9.002,17.604-2.801,17.604-2.801l-4.301,1.2,1.9,2.901c5.401-5.101,12.203-1.601,12.203-1.601-6.801,7.001-9.102,1.601-9.102,1.601l-2,1-2,5.801c-2,5.801,6.801-1.3,6.801-1.3,0,0,.4,2.601-.1,2.801-.5.2,2.601,0,2.601,0l11.302-11.402s-2.4-2.601-5.701-1.801c-3.301.8-6.401-.3-6.401-.3,3.801-4.101,11.402-1.9,11.402-1.9.1-2.3-1.2-3.601-1.2-3.601l3.201-1c3.701,1.8,1,6.901,1,6.901,6.401-.7,16.003,2.801,16.003,2.801-1.5-5.101-7.802-6.301-7.802-6.301-2.4-6.901-7.302-9.202-7.302-9.202,3.501-2,15.403-1.8,15.403-1.8l.356-.269c10.844,2.169,21.029,6.183,30.214,11.7l-.014.021c.045.012.085.033.13.047.926.558,1.841,1.132,2.747,1.72,2.647,2.632,3.875,7.009,3.875,7.009l-7.352,2.851.675,1.275c7.527-2.25,15.678,11.777,15.678,11.777l-5.476-.375,5.926,7.126c-9.752-.925-10.802-9.677-10.802-9.677l-1.5,2.025c.15,9.227,9.527,10.277,9.527,10.277-.6,8.027-5.926,14.403-5.926,14.403l-2.7-4.576,2.926.15.375-3.526c-7.051-4.25-14.253-3.951-14.253-3.951-4.401,11.903-11.927,17.379-11.927,17.379l1.5,6.826,5.176-1.95,2.176,6.826-3.376,1.576.375-4.876c-3.776.675-2.851,7.952-2.851,7.952-2.125-.575-3.976.601-3.976.601-1.1,3.726-5.401,4.5-5.401,4.5-1.6,4.226-8.102,1.675-8.102,1.675l-1.5,2.451c5.501,4.351,1.35,10.202,1.35,10.202-4.451-3.051-11.552-2.926-11.552-2.926l-4.201,11.553c2.801.075,4.801,4.801,4.801,4.801,4.501,1.475,10.577-2.4,10.577-2.4,1.675-5.827,6.826-5.776,6.826-5.776v-2.476c2.901-2.075,5.401.225,5.401.225l4.801-2.25s2.701,5.501,7.302,9.902c4.601,4.401-4.376,4.726-4.376,4.726l3.451,2.701s2.625-2.226,3.626-3.426.65-4.601.65-4.601l1.65,1.2.375-.825c-7.326-4.926-8.177-10.802-8.177-10.802l1.8-.9s.6,3.026,3.826,5.101c3.226,2.076,3.576.725,5.176,9.327,1.6,8.602,3.826,1.925,3.826,1.925l1.8-.225v-1.95l-2.175-.6c-.75-5.551,4.451-3.351,4.451-3.351,1,13.503,12.577,4.326,12.577,4.326.475,21.129-18.829,12.152-18.829,12.152l-3.751,1.8c0,3.976-1.425,4.051-1.425,4.051l-13.653-8.026c4.226-4.301.45-6.977.45-6.977,0,0-2.275,1.275-5.976.975-3.701-.3-7.001-1.7-11.302-.4s-9.202-2.15-9.202-2.15c0,0-1.4,3.25-6.001,3.851-4.601.6-5.201,6.301-12.203,7.802-7.001,1.5-12.853,7.702-12.853,7.702-.25,9.302-5.476,10.052-5.476,10.052,2.276,13.453,11.327,20.554,11.327,20.554,14.903.5,27.906,6.376,27.906,6.376,11.202-.825,2.85,7.276,2.85,7.276,4.551,4.651,1.801,6.301-1.05,7.552-1.375.603-2.092.862-2.375,1.29-2.345.173-4.712.264-7.1.264-29.219,0-55.406-13.214-72.912-33.976ZM295.164,245.871c-4.851,1.225-10.952-2.025-10.952-2.025l6.901-2.926c-.5-3.726,2.176-7.201,2.176-7.201-4.326-2.125.625-6.577.75-12.228l2.701.975c-5.776,13.728,5.551,9.527,5.551,9.527l-5.576,6.051c.2,4.901-1.55,7.827-1.55,7.827Z" fill="#007e84"/>
</svg>