<?xml version="1.0" encoding="UTF-8"?>
<svg id="a" data-name="Laag 1" xmlns="http://www.w3.org/2000/svg" width="340" height="340" viewBox="0 0 340 340">
  <rect x="105.458" y="156.458" width="24.532" height="24.532" fill="none" stroke="#007e84" stroke-linecap="round" stroke-linejoin="round" stroke-width="4"/>
  <rect x="105.458" y="193.372" width="24.532" height="24.532" fill="none" stroke="#007e84" stroke-linecap="round" stroke-linejoin="round" stroke-width="4"/>
  <rect x="142.256" y="193.372" width="24.532" height="24.532" fill="none" stroke="#007e84" stroke-linecap="round" stroke-linejoin="round" stroke-width="4"/>
  <rect x="142.256" y="156.458" width="24.532" height="24.532" fill="none" stroke="#007e84" stroke-linecap="round" stroke-linejoin="round" stroke-width="4"/>
  <polyline points="203.586 168.724 203.586 156.458 179.054 156.458 179.054 168.724" fill="none" stroke="#007e84" stroke-linecap="round" stroke-linejoin="round" stroke-width="4"/>
  <polyline points="215.852 168.724 215.852 142.967 93.192 142.967 93.192 240.411 167.255 240.411" fill="none" stroke="#007e84" stroke-linecap="round" stroke-linejoin="round" stroke-width="4"/>
  <rect x="93.192" y="131.726" width="122.66" height="11.241" fill="none" stroke="#007e84" stroke-linecap="round" stroke-linejoin="round" stroke-width="4"/>
  <rect x="228.25" y="96.259" width="24.532" height="15.609" fill="none" stroke="#007e84" stroke-linecap="round" stroke-linejoin="round" stroke-width="4"/>
  <polyline points="265.048 111.868 265.048 84.482 178.719 84.482" fill="none" stroke="#007e84" stroke-linecap="round" stroke-linejoin="round" stroke-width="4"/>
  <rect x="178.719" y="73.241" width="86.329" height="11.241" fill="none" stroke="#007e84" stroke-linecap="round" stroke-linejoin="round" stroke-width="4"/>
  <rect x="179.054" y="230.37" width="24.532" height="47.038" fill="none" stroke="#007e84" stroke-linecap="round" stroke-linejoin="round" stroke-width="4"/>
  <rect x="179.054" y="193.456" width="24.532" height="24.532" fill="none" stroke="#007e84" stroke-linecap="round" stroke-linejoin="round" stroke-width="4"/>
  <rect x="216.319" y="193.456" width="24.532" height="24.532" fill="none" stroke="#007e84" stroke-linecap="round" stroke-linejoin="round" stroke-width="4"/>
  <rect x="216.319" y="230.37" width="24.532" height="24.532" fill="none" stroke="#007e84" stroke-linecap="round" stroke-linejoin="round" stroke-width="4"/>
  <rect x="167.255" y="179.965" width="86.796" height="97.444" fill="none" stroke="#007e84" stroke-linecap="round" stroke-linejoin="round" stroke-width="4"/>
  <rect x="167.255" y="168.724" width="86.796" height="11.241" fill="none" stroke="#007e84" stroke-linecap="round" stroke-linejoin="round" stroke-width="4"/>
  <polygon points="164.721 131.726 122.505 131.726 134.771 95.635 152.455 95.635 164.721 131.726" fill="none" stroke="#007e84" stroke-linecap="round" stroke-linejoin="round" stroke-width="4"/>
  <rect x="134.771" y="84.482" width="17.683" height="11.153" fill="none" stroke="#007e84" stroke-linecap="round" stroke-linejoin="round" stroke-width="4"/>
  <line x1="155.536" y1="108.457" x2="131.738" y2="108.457" fill="none" stroke="#007e84" stroke-linecap="round" stroke-linejoin="round" stroke-width="4"/>
  <line x1="157.707" y1="117.497" x2="129.327" y2="117.497" fill="none" stroke="#007e84" stroke-linecap="round" stroke-linejoin="round" stroke-width="4"/>
  <polyline points="228.25 168.247 228.25 111.868 278.451 111.868 278.451 223.782 254.051 223.782" fill="none" stroke="#007e84" stroke-linecap="round" stroke-linejoin="round" stroke-width="4"/>
  <line x1="278.451" y1="131.177" x2="228.25" y2="131.177" fill="none" stroke="#007e84" stroke-linecap="round" stroke-linejoin="round" stroke-width="4"/>
  <line x1="278.451" y1="150.098" x2="228.25" y2="150.098" fill="none" stroke="#007e84" stroke-linecap="round" stroke-linejoin="round" stroke-width="4"/>
  <line x1="278.451" y1="168.724" x2="240.516" y2="168.724" fill="none" stroke="#007e84" stroke-linecap="round" stroke-linejoin="round" stroke-width="4"/>
  <line x1="278.451" y1="187.94" x2="254.051" y2="187.94" fill="none" stroke="#007e84" stroke-linecap="round" stroke-linejoin="round" stroke-width="4"/>
  <line x1="278.451" y1="206.861" x2="254.051" y2="206.861" fill="none" stroke="#007e84" stroke-linecap="round" stroke-linejoin="round" stroke-width="4"/>
  <rect x="228.25" y="62.592" width="24.532" height="10.649" fill="none" stroke="#007e84" stroke-linecap="round" stroke-linejoin="round" stroke-width="4"/>
  <rect x="191.787" y="62.592" width="24.532" height="10.649" fill="none" stroke="#007e84" stroke-linecap="round" stroke-linejoin="round" stroke-width="4"/>
  <rect x="191.32" y="96.192" width="24.532" height="24.532" fill="none" stroke="#007e84" stroke-linecap="round" stroke-linejoin="round" stroke-width="4"/>
  <line x1="178.719" y1="84.482" x2="178.719" y2="131.726" fill="none" stroke="#007e84" stroke-linecap="round" stroke-linejoin="round" stroke-width="4"/>
  <polyline points="93.111 223.782 76.66 223.782 76.66 101.545 108.66 101.545 108.66 131.726" fill="none" stroke="#007e84" stroke-linecap="round" stroke-linejoin="round" stroke-width="4"/>
  <rect x="86.216" y="73.241" width="12.889" height="28.305" fill="none" stroke="#007e84" stroke-linecap="round" stroke-linejoin="round" stroke-width="4"/>
  <line x1="76.66" y1="116.212" x2="108.66" y2="116.212" fill="none" stroke="#007e84" stroke-linecap="round" stroke-linejoin="round" stroke-width="4"/>
  <line x1="86.216" y1="87.393" x2="99.104" y2="87.393" fill="none" stroke="#007e84" stroke-linecap="round" stroke-linejoin="round" stroke-width="4"/>
  <rect x="61.549" y="141.101" width="15.111" height="65.76" fill="none" stroke="#007e84" stroke-linecap="round" stroke-linejoin="round" stroke-width="4"/>
  <line x1="61.549" y1="158.656" x2="76.66" y2="158.656" fill="none" stroke="#007e84" stroke-linecap="round" stroke-linejoin="round" stroke-width="4"/>
</svg>