<?xml version="1.0" encoding="UTF-8"?>
<svg id="a" data-name="Laag 1" xmlns="http://www.w3.org/2000/svg" width="340" height="340" viewBox="0 0 340 340">
  <path d="M203.726,90.349c-3.443,3.443-7.066,2.82-8.289,4.153-1.222,1.333-2.003,3.84-4.556,4-1.778.111-5.889-1.556-5.333-2.556.556-1,5.111-3.667,3.667-4.333-1.444-.667-10.889-1.778-13.111-2-2.222-.222-6.111,5.556-8.556,7.556-2.444,2-7.556,4.444-5.778,6,1.778,1.556,5.333.111,6.111,1.444s2.889,5.222,4.556,2.667c1.667-2.556,1.222-8.556,3.444-10,2.222-1.444,5.667-1.778,4.556.556-1.111,2.333-2.111,5.444.111,5.556,2.222.111,5.889-1.333,5.778,1.889-.111,3.222-5.333,4.889-7.333,4.444,0,0-4.333,5.111-8.333,4.667-4-.444-5.889-4.444-5.889-4.444,0,0-1.889,6-6.222,7.667-4.333,1.667-11,3.111-11,3.111,0,0,4.333,2.778,3.444,4.889s-3.889,2.889-5.778,2.889-7.889,2.333-5.778,5.778c2.111,3.444,7.222,2.889,9.556,1,2.333-1.889,7.333-7.222,10.667-7.444s4.778,1.222,6,3.667c1.222,2.444,2.222,6.889,2.222,6.889l5.778-3.111s-4.111-5.222-2.111-6.889c2-1.667,6.444.444,7.556,3.889,1.111,3.444.333,6.556,1.889,7.111,1.556.556,2.333-1.222,2.778-3.778s3.333-2.556,4.111.333c.778,2.889.667,5,3.444,4.778,2.778-.222,7.889-2.111,9.444-.111,1.556,2-.444,11.778-6.333,10.778-5.889-1-16.111-4.333-16.111-4.333,0,0-4.333,5.556-9.667,1.667-5.333-3.889-4.889-7.222-4.889-7.222,0,0-10.556-.889-13.889-.444-3.333.444-10,4.222-13.556,7.667-3.556,3.444-9.444,11.333-9.556,13.556s.333,11,.556,13.333,4.889,7.778,7.111,10c2.222,2.222,4.556,4,6.889,3.556,2.333-.444,8.667-2.444,10.444-2,1.778.444,4.778,2.444,6.333,2.667,1.556.222,4.222-1,4.556.222s-.667,7.444-.333,10.222,3.556,5.222,4.556,8.333c1,3.111-1.444,6.667-1.222,10.333s2.667,6,2.778,8.889.778,4.333,1.889,5.889,1.222,5.333,1.222,5.333c0,0,6.222.889,8.333-1.111,2.111-2,5-6.889,7.222-7.556,2.222-.667,4.333-2.778,4.333-2.778,0,0-2.222-3.556-.667-4.222,1.556-.667,7.111-3.333,8.222-6.778,1.111-3.444,1.222-9.556,2.667-11.667s9.556-9.333,12.444-13.444c2.889-4.111,4.778-9.889,4.778-9.889l-8.111.556s-5.889-7.333-7.667-9.111-3.333-3.778-3.667-6.778c-.333-3-2.556-9.444-2.556-9.444,0,0,4.333-3,6.889,1,2.556,4,5.667,8.222,6.444,11.444s1.556,6,3.222,5.889c1.667-.111,9.222-1.111,11.667-3.333,2.444-2.222,6.778-7.222,3.222-8.667-3.556-1.444-5.333-.667-6.556-1.556-1.222-.889-5.111-6.889-4.778-8.556s3.333-1.556,7.222,1.222c3.889,2.778,8.778,4.778,11.333,4.333s5,.111,5,2.111.444,4.889,2.444,5.889c2,1,4.111,12.222,3.556,15.889s4.397.444,8.199-9.889" fill="none" stroke="#007e84" stroke-linecap="round" stroke-linejoin="round" stroke-width="3.5"/>
  <path d="M210.771,215.168c0-1.886-8,6.667-9.333,9.667s-1.686,4.801.444,6c3.755,2.113,5.222-3.556,7.222-7,2-3.444,1.667-7.222,1.667-8.667Z" fill="none" stroke="#007e84" stroke-linecap="round" stroke-linejoin="round" stroke-width="3.5"/>
  <path d="M85.711,176.975s3.393-1.363,5.282,2.304c1.889,3.667,6.556,14.444,10.444,15.111s9.556,2.889,10.889,8.556c1.333,5.667,2.667,15.889,3.222,18.556.556,2.667-1.444,2.222-2.556,3.333-1.111,1.111-1.111,4.959-1.111,4.959" fill="none" stroke="#007e84" stroke-linecap="round" stroke-linejoin="round" stroke-width="3.5"/>
  <path d="M93.313,131.998c.366-.366,6.635-4.364,11.413-6.475,4.778-2.111,7.876-5.494,9.543-8.382,1.667-2.889.74-13.51.74-13.51" fill="none" stroke="#007e84" stroke-linecap="round" stroke-linejoin="round" stroke-width="3.5"/>
  <path d="M123.651,97.155s-1.645,6.63-1.645,10.185,6.768-3.119,10.768-5.674c4-2.556,12.529-8.03,15.862-10.252,3.333-2.222,6.617-6.767,6.617-6.767" fill="none" stroke="#007e84" stroke-linecap="round" stroke-linejoin="round" stroke-width="3.5"/>
  <path d="M151.491,106.019c-2.111,0-2.556,1.222-2.556,3s-4.222,3.889-3.167,4.944,6.722.389,8.167-1.056-.889-6.889-2.444-6.889Z" fill="none" stroke="#007e84" stroke-linecap="round" stroke-linejoin="round" stroke-width="3.5"/>
  <path d="M142.449,233.962l9.39,17.795-19.224,4.876,4.505-10.385c-19.97-8.406-36.737-24.423-45.577-46.066-17.697-43.33,3.082-92.803,46.412-110.5,43.33-17.697,92.803,3.082,110.5,46.412,17.697,43.33-3.082,92.803-46.412,110.5-6.902,2.819-13.959,4.662-21.019,5.592" fill="none" stroke="#007e84" stroke-linecap="round" stroke-linejoin="round" stroke-width="4"/>
</svg>