<?xml version="1.0" encoding="UTF-8"?>
<svg id="b" data-name="Laag 2" xmlns="http://www.w3.org/2000/svg" width="100mm" height="100mm" viewBox="0 0 283.465 283.465">
  <path d="M118.927,125.881h18.142l-11.899,32.947c-.172.477-.152.976.021,1.413.203.516.618.944,1.181,1.147.225.081.454.12.68.12.117,0,.232-.011.347-.031.467-.081.904-.328,1.219-.722l38.334-48.025c.479-.601.572-1.423.238-2.115-.333-.692-1.033-1.133-1.802-1.133h-18.141l11.897-32.947c.333-.921-.05-1.947-.904-2.425-.854-.479-1.929-.267-2.54.497l-38.335,48.025c-.479.601-.572,1.423-.238,2.115.333.692,1.033,1.133,1.802,1.133ZM151.265,86.575l-8.749,24.228c-.222.613-.131,1.296.244,1.829.374.533.985.851,1.637.851h16.834l-28.182,35.306,4.422-12.243,4.328-11.984h0c.003-.008.006-.016.008-.023,0,0,0,0,0-.002.161-.465.141-.949-.024-1.375-.03-.079-.065-.156-.106-.23h0v-.002c-.22-.405-.579-.736-1.041-.914-.03-.012-.062-.022-.093-.033-.224-.073-.456-.106-.671-.1h-16.789l28.183-35.306Z" fill="#007e84"/>
  <path d="M75.64,130.763h.107c1.73,8.857,5.156,17.126,10.202,24.624l-15.75,15.751c-.781.781-.781,2.047,0,2.828,4.563,4.564,10.632,7.078,17.087,7.078s12.522-2.514,17.086-7.078c.026-.026.053-.052.078-.079,7.421,4.981,15.87,8.481,24.624,10.202v22.273c0,1.104.896,2,2,2,13.324,0,24.165-10.84,24.165-24.164v-.108c8.855-1.729,17.124-5.155,24.623-10.202l15.751,15.751c.781.781,2.047.781,2.828,0,4.564-4.563,7.078-10.632,7.078-17.087s-2.514-12.522-7.078-17.087c-.026-.026-.052-.053-.079-.078,4.981-7.421,8.481-15.87,10.202-24.624h22.273c1.104,0,2-.896,2-2,0-13.324-10.84-24.164-24.164-24.164h-.109c-1.721-8.754-5.221-17.203-10.201-24.623l15.751-15.752c.781-.781.781-2.047,0-2.828-9.42-9.419-24.75-9.423-34.174,0-.026.025-.052.052-.078.078-7.498-5.046-15.766-8.472-24.623-10.202v-22.272c0-1.104-.896-2-2-2-13.324,0-24.165,10.841-24.165,24.165v.107c-8.857,1.73-17.126,5.156-24.624,10.202l-15.751-15.751c-.75-.75-2.078-.75-2.828,0-9.422,9.422-9.422,24.753,0,34.174.025.026.052.052.078.078-5.046,7.497-8.472,15.767-10.202,24.624h-22.272c-1.104,0-2,.896-2,2,0,13.324,10.841,24.164,24.165,24.164ZM77.415,108.599c.976,0,1.809-.703,1.972-1.665,1.606-9.447,5.236-18.208,10.788-26.037.075-.107.139-.219.19-.335.147-.296.222-.626.21-.963-.02-.561-.272-1.087-.698-1.451-.464-.396-.838-.739-1.178-1.079-7.385-7.385-7.833-19.12-1.345-27.033l15.446,15.445c.688.689,1.774.781,2.57.218,7.831-5.552,16.591-9.181,26.038-10.787.112-.019.221-.048.325-.085.335-.102.641-.292.883-.554.379-.409.569-.958.526-1.514-.047-.607-.069-1.114-.069-1.595,0-10.444,7.981-19.06,18.165-20.066v21.842c0,.976.703,1.809,1.665,1.972,9.446,1.606,18.206,5.235,26.037,10.787.104.073.213.136.325.187.301.151.64.216.981.214.558-.021,1.08-.274,1.442-.697.4-.469.743-.843,1.078-1.178,7.386-7.387,19.12-7.833,27.033-1.345l-15.445,15.446c-.689.689-.781,1.775-.218,2.57,5.553,7.832,9.182,16.593,10.787,26.038.021.119.051.234.092.344.104.328.291.626.548.864.409.38.964.571,1.514.526.607-.047,1.114-.069,1.595-.069,10.444,0,19.059,7.98,20.065,18.164h-21.842c-.976,0-1.809.703-1.972,1.665-1.605,9.445-5.234,18.206-10.787,26.038-.077.108-.142.224-.194.343-.147.3-.22.634-.205.975.024.554.277,1.073.699,1.434.449.383.834.735,1.175,1.076,3.809,3.809,5.906,8.873,5.906,14.259,0,4.714-1.606,9.182-4.561,12.775l-15.447-15.446c-.688-.69-1.775-.782-2.57-.218-7.833,5.553-16.593,9.183-26.037,10.787-.119.021-.234.051-.344.092-.328.104-.627.291-.864.548-.379.409-.569.958-.526,1.514.047.607.069,1.114.069,1.595,0,10.444-7.981,19.059-18.165,20.065v-21.842c0-.976-.703-1.809-1.665-1.972-9.445-1.605-18.206-5.234-26.038-10.787-.106-.075-.218-.139-.334-.19-.298-.149-.643-.231-.972-.209-.558.021-1.08.274-1.442.697-.388.453-.74.838-1.079,1.177-3.809,3.809-8.872,5.906-14.258,5.906-4.714,0-9.182-1.606-12.775-4.561l15.411-15.413c.72-.686.827-1.795.253-2.605-5.553-7.829-9.182-16.59-10.788-26.037-.02-.114-.049-.226-.087-.331-.103-.332-.292-.636-.552-.876-.409-.378-.962-.57-1.514-.526-.591.046-1.112.068-1.595.068-10.444,0-19.06-7.98-20.066-18.164h21.842Z" fill="#007e84"/>
  <path d="M229.481,215.002c-.128.117-12.907,11.747-28.256,11.747s-28.129-11.63-28.257-11.747c-.766-.707-1.949-.707-2.715,0-.128.117-12.907,11.747-28.256,11.747s-28.129-11.63-28.257-11.747c-.369-.341-.854-.531-1.357-.531h-.529c-.503,0-.988.19-1.357.531-.128.117-12.908,11.747-28.257,11.747s-28.128-11.63-28.256-11.747c-.812-.749-2.077-.699-2.825.111-.749.811-.701,2.075.108,2.825.565.522,14.028,12.811,30.973,12.811,14.401,0,26.288-8.876,29.879-11.861,3.591,2.985,15.478,11.861,29.879,11.861,14.065,0,25.731-8.467,29.613-11.644,3.882,3.177,15.549,11.644,29.614,11.644,16.944,0,30.407-12.288,30.973-12.811.81-.75.857-2.015.108-2.825-.748-.809-2.013-.858-2.825-.111Z" fill="#007e84"/>
  <path d="M229.481,240.717c-.128.118-12.907,11.748-28.256,11.748s-28.129-11.631-28.257-11.748c-.766-.707-1.949-.707-2.715,0-.128.118-12.907,11.748-28.256,11.748s-28.129-11.631-28.257-11.748c-.369-.341-.854-.531-1.357-.531h-.529c-.503,0-.988.19-1.357.531-.128.117-12.908,11.748-28.257,11.748s-28.128-11.63-28.256-11.748c-.812-.748-2.077-.699-2.825.111-.749.811-.701,2.074.108,2.825.565.522,14.028,12.812,30.973,12.812,14.401,0,26.288-8.877,29.879-11.862,3.591,2.985,15.478,11.862,29.879,11.862,14.065,0,25.731-8.468,29.613-11.645,3.882,3.177,15.549,11.645,29.614,11.645,16.944,0,30.407-12.289,30.973-12.812.81-.751.857-2.015.108-2.825-.748-.81-2.013-.858-2.825-.111Z" fill="#007e84"/>
</svg>