<?xml version="1.0" encoding="UTF-8"?>
<svg id="b" data-name="Laag 2" xmlns="http://www.w3.org/2000/svg" width="100mm" height="100mm" viewBox="0 0 283.465 283.465">
  <path d="M235.264,80.795l-59.153-9.898c-.611-.1-1.231.084-1.686.502l-20.63,19.018c-.732-.638-1.504-1.237-2.343-1.762-4.159-2.603-9.085-3.427-13.868-2.33-2.525.582-4.842,1.676-6.858,3.181l-52.757-56.646c-.65-.698-1.704-.842-2.516-.338-.812.502-1.156,1.508-.821,2.401l21.004,56.178c.216.579.688,1.025,1.277,1.209l26.777,8.354c-.498,2.511-.481,5.118.11,7.688,1.101,4.783,3.999,8.851,8.159,11.454.801.501,1.632.931,2.484,1.299l-22.677,74.008c-.279.912.124,1.896.965,2.348.3.161.624.238.946.238.582,0,1.153-.254,1.544-.728l16.808-20.39-4.5,72.536c-.034.551.161,1.092.539,1.494.378.401.905.63,1.457.63h24.361c.552,0,1.079-.229,1.457-.63.378-.402.573-.943.539-1.494l-5.854-94.371,3.342-4.054c.394-.477.544-1.108.408-1.711l-6.15-27.359c8.183-2.779,13.335-10.97,12.321-19.541l75.434-17.366c.931-.214,1.58-1.056,1.551-2.01-.028-.954-.728-1.755-1.669-1.912ZM99.038,88.783l-17.134-45.828,45.902,49.286c-.604.703-1.175,1.441-1.676,2.242-.478.763-.874,1.559-1.231,2.368l-25.86-8.068ZM151.758,247.242h-20.105l4.71-75.917,9.938-12.056,5.458,87.974ZM118.54,186.656l19.726-64.377c1.12.214,2.257.331,3.403.331.683,0,1.369-.039,2.054-.117l5.937,26.411-31.12,37.752ZM153.89,111.854c-2.037,3.254-5.219,5.521-8.96,6.382h0c-3.738.863-7.593.216-10.848-1.821s-5.521-5.219-6.383-8.961c-.861-3.741-.215-7.594,1.822-10.849,2.036-3.255,5.219-5.521,8.96-6.383,1.081-.249,2.17-.372,3.252-.372,2.665,0,5.282.746,7.597,2.194,3.255,2.037,5.521,5.219,6.383,8.96.861,3.742.214,7.595-1.822,10.85ZM159.05,98.184c-.604-1.745-1.462-3.368-2.539-4.833l19.905-18.349,48.254,8.075-65.62,15.106Z" fill="#007e84"/>
  <path d="M75.251,98.701c.091-1.101-.729-2.066-1.829-2.157-1.116-.099-2.066.729-2.157,1.829-1.845,22.398,6.721,43.793,23.502,58.699.381.339.855.505,1.327.505.552,0,1.102-.227,1.496-.672.733-.826.659-2.09-.167-2.823-15.831-14.062-23.912-34.248-22.172-55.381Z" fill="#007e84"/>
  <path d="M209.38,116.096c-1.081-.226-2.14.474-2.361,1.557-4.263,20.742-17.703,37.833-36.875,46.891-.999.472-1.426,1.664-.954,2.663.342.723,1.061,1.146,1.81,1.146.286,0,.577-.062.854-.191,20.32-9.601,34.566-27.717,39.084-49.703.223-1.082-.475-2.139-1.557-2.361Z" fill="#007e84"/>
  <path d="M120.673,40.954c20.098-6.676,41.617-3.583,59.047,8.49.348.24.744.355,1.137.355.634,0,1.258-.301,1.646-.861.629-.908.402-2.153-.506-2.783-18.474-12.795-41.287-16.076-62.586-8.996-1.048.348-1.615,1.48-1.267,2.528.348,1.048,1.481,1.62,2.528,1.267Z" fill="#007e84"/>
</svg>