<?xml version="1.0" encoding="UTF-8"?>
<svg id="b" data-name="Laag 2" xmlns="http://www.w3.org/2000/svg" width="100mm" height="100mm" viewBox="0 0 283.465 283.465">
  <path d="M115.774,61.688c.371.642,1.043,1,1.734,1,.339,0,.684-.086.998-.268.957-.553,1.284-1.775.732-2.732l-9.144-15.837c-.553-.956-1.776-1.286-2.732-.732-.957.553-1.284,1.775-.732,2.732l9.144,15.837Z" fill="#007e84"/>
  <path d="M82.935,71.011l15.837,9.144c.315.182.659.268.998.268.691,0,1.363-.358,1.734-1,.552-.957.225-2.18-.732-2.732l-15.837-9.144c-.96-.552-2.18-.225-2.732.732-.552.957-.225,2.18.732,2.732Z" fill="#007e84"/>
  <path d="M74.995,104.648h18.285c1.104,0,2-.896,2-2s-.896-2-2-2h-18.285c-1.104,0-2,.896-2,2s.896,2,2,2Z" fill="#007e84"/>
  <path d="M188.184,102.648c0,1.104.896,2,2,2h18.286c1.104,0,2-.896,2-2s-.896-2-2-2h-18.286c-1.104,0-2,.896-2,2Z" fill="#007e84"/>
  <path d="M183.695,80.423c.339,0,.684-.086.998-.268l15.836-9.144c.957-.553,1.284-1.776.732-2.732-.554-.957-1.776-1.284-2.732-.732l-15.836,9.144c-.957.553-1.284,1.776-.732,2.732.371.642,1.043,1,1.734,1Z" fill="#007e84"/>
  <path d="M164.959,62.421c.315.182.659.268.998.268.691,0,1.363-.358,1.734-1l9.143-15.837c.552-.957.224-2.18-.732-2.732-.96-.554-2.18-.224-2.732.732l-9.143,15.837c-.552.957-.224,2.18.732,2.732Z" fill="#007e84"/>
  <path d="M141.732,56.196c1.104,0,2-.896,2-2v-18.285c0-1.104-.896-2-2-2s-2,.896-2,2v18.285c0,1.104.896,2,2,2Z" fill="#007e84"/>
  <path d="M141.732,60.883c-23.029,0-41.766,18.736-41.766,41.766,0,1.104.896,2,2,2h79.532c1.104,0,2-.896,2-2,0-23.029-18.736-41.766-41.767-41.766ZM104.019,100.648c1.043-19.897,17.56-35.766,37.713-35.766s36.671,15.868,37.714,35.766h-75.427Z" fill="#007e84"/>
  <path d="M247.408,212.508l-22.641-49.802c-.055-.386-.219-.733-.462-1.016l-19.195-42.223c-.324-.714-1.036-1.172-1.82-1.172h-123.115c-.784,0-1.496.458-1.82,1.172l-19.195,42.223c-.243.282-.407.629-.462,1.016l-22.641,49.802c-.282.619-.229,1.339.139,1.911.368.571,1.002.917,1.682.917h101.855v30.219h-24.276c-1.104,0-2,.896-2,2s.896,2,2,2h52.554c1.104,0,2-.896,2-2s-.896-2-2-2h-24.277v-30.219h101.855c.68,0,1.313-.346,1.682-.917.368-.572.421-1.292.139-1.911ZM219.592,160.988h-49.151l-5.864-38.693h37.424l17.591,38.693ZM160.532,122.295l5.864,38.693h-49.326l5.863-38.693h37.6ZM81.463,122.295h37.424l-5.863,38.693h-49.151l17.591-38.693ZM62.053,164.988h50.364l-7.023,46.348H40.983l21.07-46.348ZM109.44,211.336l7.023-46.348h50.539l7.023,46.348h-64.585ZM178.071,211.336l-7.024-46.348h50.363l21.07,46.348h-64.41Z" fill="#007e84"/>
</svg>