<?xml version="1.0" encoding="UTF-8"?>
<svg id="a" data-name="Laag 1" xmlns="http://www.w3.org/2000/svg" width="340" height="340" viewBox="0 0 340 340">
  <line x1="199.148" y1="88.086" x2="219.737" y2="83.101" fill="none" stroke="#007e84" stroke-linecap="round" stroke-linejoin="round" stroke-width="4"/>
  <line x1="211.467" y1="144.987" x2="212.537" y2="164.519" fill="none" stroke="#007e84" stroke-linecap="round" stroke-linejoin="round" stroke-width="4"/>
  <line x1="170" y1="200.419" x2="248.667" y2="185.987" fill="none" stroke="#007e84" stroke-linecap="round" stroke-linejoin="round" stroke-width="4"/>
  <line x1="132.333" y1="153.185" x2="170" y2="200.419" fill="none" stroke="#007e84" stroke-linecap="round" stroke-linejoin="round" stroke-width="4"/>
  <polygon points="244.667 59.383 189 59.383 146.333 83.185 132.333 153.185 99.333 195.185 73 222.185 73 242.151 103 242.151 130.667 222.185 158.833 222.185 167 238.852 186.333 238.852 199 252.185 188.667 274.185 195 280.617 210.333 280.617 210.333 267.852 204.333 258.852 222.667 227.993 202.062 194.537 248.667 185.987 244.333 172.232 259.666 162.558 259.666 142.852 242.333 142.852 242.333 128.229 259.666 128.229 259.666 111.376 267 95.852 267 76.519 244.667 59.383" fill="none" stroke="#007e84" stroke-linecap="round" stroke-linejoin="round" stroke-width="4"/>
  <line x1="99.333" y1="195.185" x2="130.667" y2="222.185" fill="none" stroke="#007e84" stroke-linecap="round" stroke-linejoin="round" stroke-width="4"/>
  <line x1="212.858" y1="212.067" x2="186.333" y2="238.852" fill="none" stroke="#007e84" stroke-linecap="round" stroke-linejoin="round" stroke-width="4"/>
  <polyline points="140.287 163.159 166.144 155.377 187.404 175.109" fill="none" stroke="#007e84" stroke-linecap="round" stroke-linejoin="round" stroke-width="4"/>
  <polyline points="175.5 164.061 203.667 138.521 244.333 172.232" fill="none" stroke="#007e84" stroke-linecap="round" stroke-linejoin="round" stroke-width="4"/>
  <polyline points="191.177 110.46 166.144 155.377 155.556 143.852 163.667 109.185 146.333 83.185" fill="none" stroke="#007e84" stroke-linecap="round" stroke-linejoin="round" stroke-width="4"/>
  <line x1="203.667" y1="138.521" x2="203.667" y2="111.74" fill="none" stroke="#007e84" stroke-linecap="round" stroke-linejoin="round" stroke-width="4"/>
  <polyline points="215.333 112.936 175.5 108.852 179.833 79.519 244.667 59.383" fill="none" stroke="#007e84" stroke-linecap="round" stroke-linejoin="round" stroke-width="4"/>
  <line x1="215.333" y1="112.936" x2="242.333" y2="128.229" fill="none" stroke="#007e84" stroke-linecap="round" stroke-linejoin="round" stroke-width="4"/>
  <polyline points="215.333 112.936 229.333 83.185 259.666 111.376" fill="none" stroke="#007e84" stroke-linecap="round" stroke-linejoin="round" stroke-width="4"/>
  <line x1="215.333" y1="68.493" x2="223.5" y2="95.582" fill="none" stroke="#007e84" stroke-linecap="round" stroke-linejoin="round" stroke-width="4"/>
  <line x1="117.054" y1="210.455" x2="187.404" y2="175.109" fill="none" stroke="#007e84" stroke-linecap="round" stroke-linejoin="round" stroke-width="4"/>
  <line x1="187.404" y1="77.168" x2="191.177" y2="110.46" fill="none" stroke="#007e84" stroke-linecap="round" stroke-linejoin="round" stroke-width="4"/>
  <line x1="221.407" y1="88.641" x2="197.85" y2="111.195" fill="none" stroke="#007e84" stroke-linecap="round" stroke-linejoin="round" stroke-width="4"/>
  <line x1="176.874" y1="99.55" x2="189.998" y2="99.55" fill="none" stroke="#007e84" stroke-linecap="round" stroke-linejoin="round" stroke-width="4"/>
  <line x1="178.225" y1="90.409" x2="188.902" y2="90.385" fill="none" stroke="#007e84" stroke-linecap="round" stroke-linejoin="round" stroke-width="4"/>
  <line x1="196.659" y1="74.293" x2="202.779" y2="106.476" fill="none" stroke="#007e84" stroke-linecap="round" stroke-linejoin="round" stroke-width="4"/>
  <line x1="189.998" y1="99.55" x2="201.179" y2="98.061" fill="none" stroke="#007e84" stroke-linecap="round" stroke-linejoin="round" stroke-width="4"/>
  <line x1="188.902" y1="90.385" x2="199.148" y2="88.086" fill="none" stroke="#007e84" stroke-linecap="round" stroke-linejoin="round" stroke-width="4"/>
  <line x1="196.659" y1="74.293" x2="219.737" y2="83.101" fill="none" stroke="#007e84" stroke-linecap="round" stroke-linejoin="round" stroke-width="4"/>
  <line x1="218.457" y1="78.855" x2="249.756" y2="63.289" fill="none" stroke="#007e84" stroke-linecap="round" stroke-linejoin="round" stroke-width="4"/>
  <line x1="234.107" y1="71.072" x2="265.253" y2="99.55" fill="none" stroke="#007e84" stroke-linecap="round" stroke-linejoin="round" stroke-width="4"/>
  <line x1="243.457" y1="78.855" x2="237.426" y2="90.707" fill="none" stroke="#007e84" stroke-linecap="round" stroke-linejoin="round" stroke-width="4"/>
  <line x1="246.141" y1="98.806" x2="254.767" y2="89.962" fill="none" stroke="#007e84" stroke-linecap="round" stroke-linejoin="round" stroke-width="4"/>
  <line x1="243.457" y1="78.855" x2="255.748" y2="67.885" fill="none" stroke="#007e84" stroke-linecap="round" stroke-linejoin="round" stroke-width="4"/>
  <line x1="258.786" y1="70.216" x2="254.767" y2="89.962" fill="none" stroke="#007e84" stroke-linecap="round" stroke-linejoin="round" stroke-width="4"/>
  <line x1="221.911" y1="99.136" x2="246.141" y2="115.053" fill="none" stroke="#007e84" stroke-linecap="round" stroke-linejoin="round" stroke-width="4"/>
  <line x1="247.77" y1="128.229" x2="246.141" y2="115.053" fill="none" stroke="#007e84" stroke-linecap="round" stroke-linejoin="round" stroke-width="4"/>
  <line x1="256.198" y1="108.153" x2="246.141" y2="115.053" fill="none" stroke="#007e84" stroke-linecap="round" stroke-linejoin="round" stroke-width="4"/>
  <line x1="246.141" y1="98.806" x2="240.774" y2="111.195" fill="none" stroke="#007e84" stroke-linecap="round" stroke-linejoin="round" stroke-width="4"/>
  <line x1="239.137" y1="92.296" x2="233.774" y2="106.929" fill="none" stroke="#007e84" stroke-linecap="round" stroke-linejoin="round" stroke-width="4"/>
  <line x1="228.324" y1="103.349" x2="225.467" y2="118.676" fill="none" stroke="#007e84" stroke-linecap="round" stroke-linejoin="round" stroke-width="4"/>
  <line x1="240.774" y1="111.195" x2="232.42" y2="122.614" fill="none" stroke="#007e84" stroke-linecap="round" stroke-linejoin="round" stroke-width="4"/>
  <line x1="183.082" y1="125.131" x2="203.667" y2="132.408" fill="none" stroke="#007e84" stroke-linecap="round" stroke-linejoin="round" stroke-width="4"/>
  <line x1="179.612" y1="131.211" x2="191.177" y2="149.845" fill="none" stroke="#007e84" stroke-linecap="round" stroke-linejoin="round" stroke-width="4"/>
  <line x1="170" y1="148.458" x2="185.395" y2="155.377" fill="none" stroke="#007e84" stroke-linecap="round" stroke-linejoin="round" stroke-width="4"/>
  <line x1="203.667" y1="132.408" x2="221.774" y2="116.584" fill="none" stroke="#007e84" stroke-linecap="round" stroke-linejoin="round" stroke-width="4"/>
  <line x1="203.667" y1="132.408" x2="242.333" y2="131.211" fill="none" stroke="#007e84" stroke-linecap="round" stroke-linejoin="round" stroke-width="4"/>
  <line x1="225.467" y1="118.676" x2="231.18" y2="131.557" fill="none" stroke="#007e84" stroke-linecap="round" stroke-linejoin="round" stroke-width="4"/>
  <line x1="214.121" y1="123.272" x2="223" y2="131.811" fill="none" stroke="#007e84" stroke-linecap="round" stroke-linejoin="round" stroke-width="4"/>
  <line x1="259.666" y1="162.558" x2="229.341" y2="145.493" fill="none" stroke="#007e84" stroke-linecap="round" stroke-linejoin="round" stroke-width="4"/>
  <line x1="227.746" y1="158.482" x2="231.18" y2="131.557" fill="none" stroke="#007e84" stroke-linecap="round" stroke-linejoin="round" stroke-width="4"/>
  <line x1="229.485" y1="145.6" x2="211.467" y2="144.987" fill="none" stroke="#007e84" stroke-linecap="round" stroke-linejoin="round" stroke-width="4"/>
  <line x1="223" y1="131.811" x2="220.999" y2="145.294" fill="none" stroke="#007e84" stroke-linecap="round" stroke-linejoin="round" stroke-width="4"/>
  <line x1="242.333" y1="142.852" x2="237.229" y2="149.932" fill="none" stroke="#007e84" stroke-linecap="round" stroke-linejoin="round" stroke-width="4"/>
  <line x1="259.666" y1="142.852" x2="246.955" y2="155.377" fill="none" stroke="#007e84" stroke-linecap="round" stroke-linejoin="round" stroke-width="4"/>
  <line x1="241.436" y1="152.299" x2="233.774" y2="162.558" fill="none" stroke="#007e84" stroke-linecap="round" stroke-linejoin="round" stroke-width="4"/>
  <line x1="250.883" y1="157.615" x2="239.137" y2="167.924" fill="none" stroke="#007e84" stroke-linecap="round" stroke-linejoin="round" stroke-width="4"/>
  <line x1="142.215" y1="103.776" x2="154.598" y2="95.582" fill="none" stroke="#007e84" stroke-linecap="round" stroke-linejoin="round" stroke-width="4"/>
  <line x1="142.215" y1="103.776" x2="163.667" y2="109.185" fill="none" stroke="#007e84" stroke-linecap="round" stroke-linejoin="round" stroke-width="4"/>
  <line x1="148.406" y1="106.481" x2="146.333" y2="140.054" fill="none" stroke="#007e84" stroke-linecap="round" stroke-linejoin="round" stroke-width="4"/>
  <line x1="161.305" y1="119.281" x2="139.955" y2="117.532" fill="none" stroke="#007e84" stroke-linecap="round" stroke-linejoin="round" stroke-width="4"/>
  <line x1="136.019" y1="134.759" x2="158.233" y2="132.408" fill="none" stroke="#007e84" stroke-linecap="round" stroke-linejoin="round" stroke-width="4"/>
  <line x1="146.333" y1="140.054" x2="132.956" y2="150.072" fill="none" stroke="#007e84" stroke-linecap="round" stroke-linejoin="round" stroke-width="4"/>
  <line x1="146.333" y1="140.054" x2="155.556" y2="143.852" fill="none" stroke="#007e84" stroke-linecap="round" stroke-linejoin="round" stroke-width="4"/>
  <line x1="139.333" y1="145.296" x2="147.37" y2="161.027" fill="none" stroke="#007e84" stroke-linecap="round" stroke-linejoin="round" stroke-width="4"/>
  <line x1="147.37" y1="161.027" x2="155.556" y2="143.852" fill="none" stroke="#007e84" stroke-linecap="round" stroke-linejoin="round" stroke-width="4"/>
  <line x1="211.467" y1="144.987" x2="183.082" y2="171.098" fill="none" stroke="#007e84" stroke-linecap="round" stroke-linejoin="round" stroke-width="4"/>
  <line x1="193.933" y1="147.347" x2="198.914" y2="156.535" fill="none" stroke="#007e84" stroke-linecap="round" stroke-linejoin="round" stroke-width="4"/>
  <line x1="187.404" y1="175.109" x2="227.746" y2="158.482" fill="none" stroke="#007e84" stroke-linecap="round" stroke-linejoin="round" stroke-width="4"/>
  <line x1="198.914" y1="156.535" x2="208.063" y2="166.936" fill="none" stroke="#007e84" stroke-linecap="round" stroke-linejoin="round" stroke-width="4"/>
  <line x1="185.7" y1="175.965" x2="202.062" y2="194.537" fill="none" stroke="#007e84" stroke-linecap="round" stroke-linejoin="round" stroke-width="4"/>
  <line x1="193.881" y1="185.251" x2="165.453" y2="194.717" fill="none" stroke="#007e84" stroke-linecap="round" stroke-linejoin="round" stroke-width="4"/>
  <line x1="175.795" y1="180.942" x2="187.13" y2="197.276" fill="none" stroke="#007e84" stroke-linecap="round" stroke-linejoin="round" stroke-width="4"/>
  <line x1="208.063" y1="166.936" x2="246.955" y2="180.555" fill="none" stroke="#007e84" stroke-linecap="round" stroke-linejoin="round" stroke-width="4"/>
  <line x1="233.774" y1="162.558" x2="227.509" y2="173.746" fill="none" stroke="#007e84" stroke-linecap="round" stroke-linejoin="round" stroke-width="4"/>
  <line x1="220.47" y1="171.281" x2="198.104" y2="190.044" fill="none" stroke="#007e84" stroke-linecap="round" stroke-linejoin="round" stroke-width="4"/>
  <line x1="185.395" y1="155.377" x2="210.013" y2="180.053" fill="none" stroke="#007e84" stroke-linecap="round" stroke-linejoin="round" stroke-width="4"/>
  <line x1="204.393" y1="174.465" x2="191.481" y2="182.527" fill="none" stroke="#007e84" stroke-linecap="round" stroke-linejoin="round" stroke-width="4"/>
  <line x1="210.013" y1="180.053" x2="239.137" y2="187.735" fill="none" stroke="#007e84" stroke-linecap="round" stroke-linejoin="round" stroke-width="4"/>
  <line x1="218.443" y1="182.277" x2="211.467" y2="192.782" fill="none" stroke="#007e84" stroke-linecap="round" stroke-linejoin="round" stroke-width="4"/>
  <line x1="234.49" y1="176.19" x2="226.027" y2="184.277" fill="none" stroke="#007e84" stroke-linecap="round" stroke-linejoin="round" stroke-width="4"/>
  <line x1="154.4" y1="158.911" x2="163.679" y2="176.802" fill="none" stroke="#007e84" stroke-linecap="round" stroke-linejoin="round" stroke-width="4"/>
  <line x1="154.4" y1="158.911" x2="149.303" y2="174.465" fill="none" stroke="#007e84" stroke-linecap="round" stroke-linejoin="round" stroke-width="4"/>
  <line x1="160.554" y1="157.428" x2="175.795" y2="180.942" fill="none" stroke="#007e84" stroke-linecap="round" stroke-linejoin="round" stroke-width="4"/>
  <line x1="178.787" y1="167.111" x2="163.679" y2="176.802" fill="none" stroke="#007e84" stroke-linecap="round" stroke-linejoin="round" stroke-width="4"/>
  <line x1="163.679" y1="176.802" x2="160.554" y2="188.573" fill="none" stroke="#007e84" stroke-linecap="round" stroke-linejoin="round" stroke-width="4"/>
  <line x1="163.679" y1="176.802" x2="149.303" y2="174.465" fill="none" stroke="#007e84" stroke-linecap="round" stroke-linejoin="round" stroke-width="4"/>
  <line x1="170" y1="200.419" x2="144.731" y2="196.549" fill="none" stroke="#007e84" stroke-linecap="round" stroke-linejoin="round" stroke-width="4"/>
  <line x1="140.067" y1="198.893" x2="152.619" y2="222.185" fill="none" stroke="#007e84" stroke-linecap="round" stroke-linejoin="round" stroke-width="4"/>
  <line x1="123.147" y1="215.706" x2="146.287" y2="210.434" fill="none" stroke="#007e84" stroke-linecap="round" stroke-linejoin="round" stroke-width="4"/>
  <line x1="134.717" y1="213.07" x2="139.955" y2="222.185" fill="none" stroke="#007e84" stroke-linecap="round" stroke-linejoin="round" stroke-width="4"/>
  <line x1="161.254" y1="199.08" x2="159.4" y2="213.99" fill="none" stroke="#007e84" stroke-linecap="round" stroke-linejoin="round" stroke-width="4"/>
  <line x1="159.4" y1="213.99" x2="149.303" y2="215.706" fill="none" stroke="#007e84" stroke-linecap="round" stroke-linejoin="round" stroke-width="4"/>
  <line x1="144.185" y1="206.535" x2="160.327" y2="206.535" fill="none" stroke="#007e84" stroke-linecap="round" stroke-linejoin="round" stroke-width="4"/>
  <line x1="176.125" y1="222.823" x2="167" y2="238.852" fill="none" stroke="#007e84" stroke-linecap="round" stroke-linejoin="round" stroke-width="4"/>
  <line x1="168.696" y1="218.996" x2="161.254" y2="227.125" fill="none" stroke="#007e84" stroke-linecap="round" stroke-linejoin="round" stroke-width="4"/>
  <line x1="171.102" y1="231.647" x2="193.022" y2="232.097" fill="none" stroke="#007e84" stroke-linecap="round" stroke-linejoin="round" stroke-width="4"/>
  <line x1="193.022" y1="232.097" x2="183.082" y2="206.535" fill="none" stroke="#007e84" stroke-linecap="round" stroke-linejoin="round" stroke-width="4"/>
  <line x1="170" y1="200.419" x2="183.082" y2="206.535" fill="none" stroke="#007e84" stroke-linecap="round" stroke-linejoin="round" stroke-width="4"/>
  <line x1="183.082" y1="206.535" x2="191.177" y2="203.477" fill="none" stroke="#007e84" stroke-linecap="round" stroke-linejoin="round" stroke-width="4"/>
  <line x1="187.13" y1="197.276" x2="191.177" y2="203.477" fill="none" stroke="#007e84" stroke-linecap="round" stroke-linejoin="round" stroke-width="4"/>
  <line x1="191.177" y1="203.477" x2="207.233" y2="203.086" fill="none" stroke="#007e84" stroke-linecap="round" stroke-linejoin="round" stroke-width="4"/>
  <line x1="191.177" y1="203.477" x2="200.406" y2="224.641" fill="none" stroke="#007e84" stroke-linecap="round" stroke-linejoin="round" stroke-width="4"/>
  <line x1="187.966" y1="219.095" x2="203.347" y2="210.47" fill="none" stroke="#007e84" stroke-linecap="round" stroke-linejoin="round" stroke-width="4"/>
  <line x1="199.309" y1="203.27" x2="207.233" y2="217.401" fill="none" stroke="#007e84" stroke-linecap="round" stroke-linejoin="round" stroke-width="4"/>
  <line x1="166.808" y1="199.93" x2="168.762" y2="218.996" fill="none" stroke="#007e84" stroke-linecap="round" stroke-linejoin="round" stroke-width="4"/>
  <line x1="168.061" y1="212.152" x2="183.082" y2="206.535" fill="none" stroke="#007e84" stroke-linecap="round" stroke-linejoin="round" stroke-width="4"/>
  <line x1="173.636" y1="210.067" x2="188.884" y2="221.455" fill="none" stroke="#007e84" stroke-linecap="round" stroke-linejoin="round" stroke-width="4"/>
  <line x1="179.717" y1="214.608" x2="176.125" y2="222.823" fill="none" stroke="#007e84" stroke-linecap="round" stroke-linejoin="round" stroke-width="4"/>
  <line x1="186.333" y1="238.852" x2="219.278" y2="233.697" fill="none" stroke="#007e84" stroke-linecap="round" stroke-linejoin="round" stroke-width="4"/>
  <line x1="197.946" y1="227.125" x2="203.192" y2="236.274" fill="none" stroke="#007e84" stroke-linecap="round" stroke-linejoin="round" stroke-width="4"/>
  <line x1="213.05" y1="234.671" x2="207.233" y2="217.401" fill="none" stroke="#007e84" stroke-linecap="round" stroke-linejoin="round" stroke-width="4"/>
  <line x1="198.478" y1="228.054" x2="220.865" y2="225.069" fill="none" stroke="#007e84" stroke-linecap="round" stroke-linejoin="round" stroke-width="4"/>
  <line x1="199" y1="252.185" x2="203.192" y2="236.274" fill="none" stroke="#007e84" stroke-linecap="round" stroke-linejoin="round" stroke-width="4"/>
  <line x1="203.192" y1="236.274" x2="211.054" y2="247.54" fill="none" stroke="#007e84" stroke-linecap="round" stroke-linejoin="round" stroke-width="4"/>
  <line x1="199" y1="252.185" x2="204.333" y2="258.852" fill="none" stroke="#007e84" stroke-linecap="round" stroke-linejoin="round" stroke-width="4"/>
  <line x1="193.206" y1="264.52" x2="200.583" y2="271.545" fill="none" stroke="#007e84" stroke-linecap="round" stroke-linejoin="round" stroke-width="4"/>
  <line x1="200.583" y1="271.545" x2="207.749" y2="263.975" fill="none" stroke="#007e84" stroke-linecap="round" stroke-linejoin="round" stroke-width="4"/>
  <line x1="200.583" y1="271.545" x2="195" y2="280.617" fill="none" stroke="#007e84" stroke-linecap="round" stroke-linejoin="round" stroke-width="4"/>
  <line x1="200.583" y1="271.545" x2="209.333" y2="280.296" fill="none" stroke="#007e84" stroke-linecap="round" stroke-linejoin="round" stroke-width="4"/>
  <line x1="104.951" y1="188.036" x2="135.421" y2="201.227" fill="none" stroke="#007e84" stroke-linecap="round" stroke-linejoin="round" stroke-width="4"/>
  <line x1="110.534" y1="204.818" x2="124.285" y2="196.406" fill="none" stroke="#007e84" stroke-linecap="round" stroke-linejoin="round" stroke-width="4"/>
  <line x1="108.254" y1="183.832" x2="128.293" y2="185.625" fill="none" stroke="#007e84" stroke-linecap="round" stroke-linejoin="round" stroke-width="4"/>
  <line x1="128.293" y1="185.625" x2="124.285" y2="196.406" fill="none" stroke="#007e84" stroke-linecap="round" stroke-linejoin="round" stroke-width="4"/>
  <line x1="128.293" y1="185.625" x2="140.73" y2="190.212" fill="none" stroke="#007e84" stroke-linecap="round" stroke-linejoin="round" stroke-width="4"/>
  <line x1="140.73" y1="190.212" x2="135.421" y2="201.227" fill="none" stroke="#007e84" stroke-linecap="round" stroke-linejoin="round" stroke-width="4"/>
  <line x1="140.73" y1="190.212" x2="155.408" y2="182.121" fill="none" stroke="#007e84" stroke-linecap="round" stroke-linejoin="round" stroke-width="4"/>
  <line x1="152.229" y1="192.782" x2="147.815" y2="186.552" fill="none" stroke="#007e84" stroke-linecap="round" stroke-linejoin="round" stroke-width="4"/>
  <line x1="128.293" y1="185.625" x2="132.333" y2="153.185" fill="none" stroke="#007e84" stroke-linecap="round" stroke-linejoin="round" stroke-width="4"/>
  <line x1="115.107" y1="175.109" x2="129.496" y2="175.965" fill="none" stroke="#007e84" stroke-linecap="round" stroke-linejoin="round" stroke-width="4"/>
  <line x1="121.397" y1="166.936" x2="130.542" y2="167.565" fill="none" stroke="#007e84" stroke-linecap="round" stroke-linejoin="round" stroke-width="4"/>
  <line x1="130.542" y1="167.565" x2="140.287" y2="163.159" fill="none" stroke="#007e84" stroke-linecap="round" stroke-linejoin="round" stroke-width="4"/>
  <line x1="129.496" y1="175.965" x2="149.303" y2="174.465" fill="none" stroke="#007e84" stroke-linecap="round" stroke-linejoin="round" stroke-width="4"/>
  <line x1="129.496" y1="175.965" x2="148.069" y2="186.166" fill="none" stroke="#007e84" stroke-linecap="round" stroke-linejoin="round" stroke-width="4"/>
  <line x1="85.566" y1="209.301" x2="101.397" y2="215.706" fill="none" stroke="#007e84" stroke-linecap="round" stroke-linejoin="round" stroke-width="4"/>
  <line x1="101.397" y1="215.706" x2="110.534" y2="204.898" fill="none" stroke="#007e84" stroke-linecap="round" stroke-linejoin="round" stroke-width="4"/>
  <line x1="101.397" y1="215.706" x2="118.677" y2="230.837" fill="none" stroke="#007e84" stroke-linecap="round" stroke-linejoin="round" stroke-width="4"/>
  <line x1="101.397" y1="215.706" x2="123.147" y2="215.706" fill="none" stroke="#007e84" stroke-linecap="round" stroke-linejoin="round" stroke-width="4"/>
  <line x1="73" y1="228.545" x2="92.73" y2="235.254" fill="none" stroke="#007e84" stroke-linecap="round" stroke-linejoin="round" stroke-width="4"/>
  <line x1="92.73" y1="235.254" x2="101.397" y2="229.656" fill="none" stroke="#007e84" stroke-linecap="round" stroke-linejoin="round" stroke-width="4"/>
  <line x1="101.397" y1="229.656" x2="110.673" y2="236.621" fill="none" stroke="#007e84" stroke-linecap="round" stroke-linejoin="round" stroke-width="4"/>
  <line x1="92.73" y1="235.254" x2="90.73" y2="242.151" fill="none" stroke="#007e84" stroke-linecap="round" stroke-linejoin="round" stroke-width="4"/>
  <line x1="101.397" y1="229.656" x2="80.156" y2="214.848" fill="none" stroke="#007e84" stroke-linecap="round" stroke-linejoin="round" stroke-width="4"/>
  <line x1="89.922" y1="221.656" x2="81.088" y2="231.295" fill="none" stroke="#007e84" stroke-linecap="round" stroke-linejoin="round" stroke-width="4"/>
  <line x1="101.397" y1="229.656" x2="101.397" y2="215.706" fill="none" stroke="#007e84" stroke-linecap="round" stroke-linejoin="round" stroke-width="4"/>
  <line x1="159.4" y1="213.99" x2="193.022" y2="232.097" fill="none" stroke="#007e84" stroke-linecap="round" stroke-linejoin="round" stroke-width="4"/>
  <polyline points="151.881 91.507 190.607 65.818 223.94 65.82 229.333 83.185" fill="none" stroke="#007e84" stroke-linecap="round" stroke-linejoin="round" stroke-width="4"/>
  <line x1="189" y1="59.383" x2="190.406" y2="65.823" fill="none" stroke="#007e84" stroke-linecap="round" stroke-linejoin="round" stroke-width="4"/>
  <line x1="157.335" y1="77.048" x2="162.329" y2="84.576" fill="none" stroke="#007e84" stroke-linecap="round" stroke-linejoin="round" stroke-width="4"/>
  <line x1="173.526" y1="68.015" x2="177.733" y2="74.358" fill="none" stroke="#007e84" stroke-linecap="round" stroke-linejoin="round" stroke-width="4"/>
  <line x1="208.198" y1="65.819" x2="208.198" y2="59.383" fill="none" stroke="#007e84" stroke-linecap="round" stroke-linejoin="round" stroke-width="4"/>
</svg>