<?xml version="1.0" encoding="UTF-8"?>
<svg id="b" data-name="Laag 2" xmlns="http://www.w3.org/2000/svg" width="299.919mm" height="120.885mm" viewBox="0 0 850.165 342.666">
  <path d="M158.949,188.257s3.417-1.268,3.229-6.162-1.686-5.895-1.686-5.895c0,0,.223-2.265,4.437-4.726l2.049,2.81s-3.388,1.317-1.788,5.271,2.922,6.484,2.922,6.484l-2.604,3.473s-2.377-1.696-5.112.386l-1.447-1.64ZM160.01,178.805l-2.315-1.64c-2.224,3.446-5.776,5.024-5.776,5.024l2.303,2.691c5.127-1.544,5.787-6.076,5.787-6.076ZM181.132,136.656l-3.955.771,2.508,4.34s2.707-2.175,1.447-5.112ZM61.096,158.661c.376,3.2-3.035,14.357-3.035,14.357l1.833,6.944s3.806-5.193,4.277-8.676c.47-3.482-1.19-15.63-1.19-15.63l-1.884,3.004ZM238.441,180.616c.841,5.141,1.273,10.361,1.273,15.566,0,52.87-43.013,95.883-95.882,95.883s-95.882-43.013-95.882-95.883c0-38.146,22.213-72.176,56.862-87.593-.819-1.534-1.094-3.83-.535-5.732.807-2.749,3.118-4.356,6.34-4.41,6.083-.101,9.573-1.773,12.949-3.392,3.134-1.502,6.097-2.905,10.446-2.77,2.842.099,6.752,2.67,10.729,7.055,1.159,1.278,2.287,2.596,3.378,3.869,4.76,5.558,9.373,10.936,17.153,14.004.324-1.223.602-2.443.842-3.65-4.72-1.661-10.19-7.956-10.19-28.203,0-14.132,3.829-48.02,13.307-48.02s13.307,33.888,13.307,48.02c0,23.591-7.424,28.239-12.437,28.688-.283,1.45-.619,2.926-1.019,4.409,5.32,1.391,11.976,1.823,20.695.829,1.7-.194,3.708-.721,5.649-1.229,4.076-1.067,7.925-2.077,10.511-.583,18.511,10.705,31.21,27.877,33.261,36.157,1.229,4.965,2.037,6.697,2.687,8.089.63,1.352,1.174,2.519,1.677,5.536,1.112,6.673-4.119,12.586-4.343,12.835-.215.24-.484.413-.778.524ZM166.799,109.462c1.098-8.039.633-14.539.626-14.627-.084-1.101.741-2.062,1.842-2.146,1.114-.08,2.062.74,2.146,1.841.029.375.507,6.982-.618,15.293,4.875-1.543,7.742-10.426,7.742-24.462,0-9.366-1.25-20.757-3.264-29.729-2.662-11.865-5.443-14.291-6.043-14.291s-3.382,2.426-6.044,14.291c-2.013,8.971-3.263,20.362-3.263,29.729,0,13.183,2.529,21.818,6.875,24.102ZM216.522,252.313c8.578-11.083,14.679-24.171,17.474-38.432-4.364,2.706-12.017,8.905-12.017,8.905,0,0,1.751,8.439,5.986.439,0,0-1.289,14.037-13.727,25.748,0,0-1.333-16.445-8.391-18.084,0,0,2.73,20.478,6.871,21.513,1.021.255,2.363.172,3.803-.088ZM225.813,198.192s-4.203-1.248-3.472-6.366l-1.591-1.881-2.749,5.353,4.413,7.957-.94,3.472,4.14,1.439s-.258-7.15.2-9.975ZM202.665,199.277s-.651,4.323-3.111,8.536c0,0,2.717,3.742,6.294,1.295,3.577-2.447,6.776-1.036,8.376-2.353,1.6-1.318.282-3.482-2.071-4.988s-1.966-5.962-1.966-5.962l-3.328,3.038.87,2.547-2.353.847-.181-2.599-2.532-.362ZM108.324,106.714c.413.268.821.503,1.224.716.166.088.328.156.493.235.242.116.485.237.722.335.175.072.344.128.516.191.22.081.442.164.657.23.179.055.353.097.529.142.201.052.402.106.598.146.18.038.356.064.533.093.182.029.365.06.543.08.179.021.353.033.526.045.166.012.331.023.493.027.174.004.345.004.513,0,.15-.002.3-.006.445-.014.167-.009.33-.022.49-.038.137-.013.272-.028.403-.045.156-.021.31-.043.459-.069.124-.021.245-.044.364-.068.143-.029.284-.06.418-.092.114-.028.224-.057.333-.087.125-.034.25-.068.367-.105.106-.033.207-.066.306-.101.103-.035.208-.07.304-.106.104-.039.2-.077.295-.116.075-.031.153-.061.222-.091.106-.046.202-.09.294-.133.042-.02.089-.041.128-.06.119-.058.226-.113.314-.161.001,0,.003-.001.005-.002.191-.104.306-.176.336-.195.689-.444,1.583-.429,2.25.045.5.355.804.911.843,1.502.013.197-.003.398-.052.598-.255,1.08-.555,4.206.754,4.675.163.059.321.096.48.134,1.399.334,2.649-.088,4.022-.654.155-.063.309-.127.467-.194.738-.31,1.502-.629,2.29-.833.003,0,.006,0,.008-.001.365-.095.759-.167,1.164-.226.068-.01.135-.02.203-.028.777-.098,1.595-.114,2.398-.017.034.004.067.009.101.014.333.044.658.11.977.198.033.009.071.012.103.021.01.003.019.01.029.013.624.187,1.212.457,1.719.849.308.238.561.52.783.82.043.052.091.1.128.156.086.129.157.265.227.401.018.034.04.065.057.1.119.249.206.513.272.784.014.059.026.117.038.177.056.281.094.569.094.872,0,1.355-.563,3.082-1.217,5.08-.589,1.803-1.574,4.82-1.253,5.817.141.437.299.482.375.505.443.132,1.418-.14,2.255-.823.485-.396,1.033-1.008,1.613-1.654,1.587-1.77,3.561-3.976,6.134-3.303.189.049.366.11.53.182,1.806.783,2.137,2.824,2.104,4.855-.012.739-.073,1.476-.128,2.151-.058.7-.117,1.418-.124,2.022-.002.201.001.39.012.562.012.183.034.307.056.387h.007c.158,0,.471-.031,1.012-.201,1.573-.489,3.27-.13,4.322.918,1.018,1.013,1.317,2.518.821,4.128-.11.36-.285.844-.494,1.416-.848,2.326-2.834,7.772-.988,9.568.54.525,1.174.948,1.841,1.254,1.042.476,2.162.656,3.141.47.021-.004.044-.004.065-.008.698-.147,1.231-.471,1.592-.965.12-.165.221-.349.303-.551.829-2.054.61-2.812.247-4.069-.366-1.268-.822-2.845-.363-5.499.592-3.42,2.48-5.007,3.554-5.648,1.233-.737,2.6-.969,3.662-.614,1.922.641,5.598,5.057,6.546,7.454,1.661,4.198,1.18,7.517.828,9.938q-.388,2.672,1.306,3.077c.813.204,2.436-1.099,2.767-2.475.073-.307.105-.651.106-1.019.002-.918-.186-1.98-.382-2.948-.039-.193-.079-.383-.117-.567-.12-.578-.23-1.112-.299-1.572-.063-.422-.078-.807-.057-1.157.063-1.051.449-1.787.812-2.257.731-.945,1.854-1.504,3.338-1.66.669-.07,1.722-.181,2.133-.37.031-.209.055-.423.078-.635.125-1.12.281-2.514,1.392-3.396.189-.15.449-.3.759-.42.049-.019.087-.043.138-.061.18-.059.382-.101.599-.126.012,0,.021-.005.032-.007.232-.024.485-.024.76.008,3.722.438,4.787,4.819,5.138,6.26.719,2.955,5.449,9.224,8.287,9.655.392.06,1.092.113,1.354-.199.321-.382.387-1.368.139-2.111-.058-.175-.143-.396-.249-.652-.739-1.794-2.489-5.313-3.187-6.685-.302-.593-.284-1.283.017-1.848.1-.188.232-.363.393-.516.646-.608,1.614-.72,2.382-.271,1.34.784,4.836,2.768,6.835,3.676.285.129.541.237.754.316.08.029.146.05.2.063.076-.229.15-.651.121-1.182-.005-.095-.021-.202-.045-.32-.171-.823-.77-2.135-1.181-2.87-.211-.377-.289-.8-.242-1.209.023-.195.078-.386.157-.568.003-.008.003-.017.007-.024.086-.19.202-.369.348-.528.132-.144.285-.255.446-.353.035-.021.07-.041.106-.06.287-.15.601-.237.924-.237.048,0,.096.012.145.015.043.003.085.008.128.014.186.026.37.068.547.148.406.183,9.16,4.292,16.685,20.271.778,1.653,1.544,3.433,2.285,5.349,2.766,7.146,3.605,11.301,4.106,13.782.104.511.191.95.282,1.333.001.007.004.012.005.019.012.05.03.091.045.136,1.178-1.743,2.894-4.937,2.357-8.155-.413-2.479-.789-3.285-1.357-4.504-.684-1.467-1.62-3.476-2.943-8.818-1.832-7.397-14.061-23.64-31.38-33.655-1.16-.669-4.821.288-7.495.99-2.077.544-4.225,1.107-6.21,1.334-27.511,3.137-36.479-7.328-45.148-17.45-1.072-1.252-2.182-2.548-3.303-3.783-3.759-4.144-6.787-5.705-7.905-5.744-3.378-.122-5.669.985-8.579,2.379-3.588,1.72-7.654,3.669-14.611,3.784-1.664.027-2.172.657-2.409,1.128-.552,1.096-.203,2.66.05,3.14ZM95.098,126.625l-7.812,6.559,3.646,3.359c1.129-3.576,6.964-7.989,6.964-7.989l-2.797-1.929ZM143.832,288.065c1.258,0,2.509-.033,3.755-.083,5.635-3.458,14.526-10.514,3.646-15.644-14.937-7.042-27.976,1.974-37.833-25.969,0,0,5.249-4.226,6.52-10.156,1.271-5.929,13.977-6.211,17.506-9.6s11.203-8.601,11.203-8.601c0,0,6.585,2.954,10.538,1.824,3.953-1.129,11.219,2.071,14.998-.306,0,0,2.553,2.279-.434,6.728l13.166,7.74s1.854-5.028,4.992-5.642c0,0,18.493,7.105,18.157-11.719,0,0-10.078,7.434-11.913-3.86l-4.518-.706,1.553,7.906-2.99.855s-2.121-3.659-2.459-8.681c-.339-5.021-5.418-3.77-8.102-9.548l-1.736.868s2.317,6.728,7.885,10.417l-2.338.677s2.5,3.332-3.738,6.701l-3.327-2.604s5.936-.144,4.9-3.438c-1.035-3.294-5.077-4.729-7.433-9.8,0,0-3.247-.702-4.919,1.302,0,0-6.204-2.84-5.208,2.17,0,0-5.715.434-6.583,5.57,0,0-6.895,4.154-10.2,2.315,0,0-.873-4.22-4.629-4.63l4.051-11.14s7.688-.288,11.14,2.821c0,0,4.297-5.373-1.302-9.838l.29-1.302s8.487.445,8.97-2.676c0,0,4.099-.759,5.208-4.34,0,0,1.476-1.153,3.834-.579,0,0-.343-5.463,2.749-7.668l-.361,4.702,3.255-1.519-2.098-6.583-4.991,1.881-1.466-7.274s8.47-4.706,11.67-15.718c0,0,5.166-.984,13.595,3.46l-3.183,3.255,2.604,4.413s3.006-5.071,4.656-9.569c-5.027-.983-10.404-8.793-11.333-12.608-.28-1.153-.619-2.047-.974-2.601-.034.301-.072.603-.123.894-.521,2.951-3.66,3.28-5.536,3.478-.407.043-.605.111-.681.149.012.026.003.147.034.361.06.396.156.854.26,1.352.252,1.212.539,2.617.574,4.028.005.217.01.434.002.65-.02.542-.084,1.081-.21,1.605-.703,2.927-3.72,5.757-6.816,5.541-.257-.018-.514-.049-.771-.11-1.639-.393-2.715-1.018-3.407-1.772-.831-.905-1.109-1.997-1.148-3.098-.006-.184-.006-.368,0-.551.016-.55.079-1.095.151-1.613.024-.172.048-.342.073-.508.318-2.196.68-4.685-.59-7.893-.675-1.707-3.105-4.369-4.034-5.061-.472.144-1.682.854-2.066,3.079-.302,1.746-.04,2.655.265,3.707.452,1.567.966,3.344-.381,6.678-.832,2.062-2.529,3.458-4.778,3.933-.904.19-1.856.198-2.809.075l.242,2.91c-6.714,2.302-7.716-2.99-7.716-2.99,1.621-.642,3.114-.85,4.333-.87-.425-.208-.836-.448-1.233-.714-.522-.349-1.025-.731-1.481-1.174-1.518-1.477-1.997-3.466-1.955-5.543-.98.066-2.011.091-3.116.048-12.047-.471-17.67,4.491-17.67,4.491l-.868-4.919s3.762-6.726,9.691-9.643c3.278-1.613,6.208-4.91,8.179-7.542.005-.083.012-.163.016-.246.013-.242.023-.483.027-.711.004-.228.002-.442-.008-.631-.53.417-1.234,1.193-1.704,1.717-.028.031-.063.069-.089.098-.035.039-.071.078-.106.117-.623.694-1.267,1.401-1.952,1.962-.885.724-1.871,1.231-2.858,1.509-.035.01-.071.025-.106.035-1.025.271-2.047.287-2.955.021-.916-.27-1.683-.807-2.254-1.56l-2.314,2.334-3.858-2.797-4.23,5.505-1.412-4.047,2.46-5.701s5.186.318,8.655-1.162c.15-.665.335-1.345.543-2.032-4.306-1.878-16.696-6.686-21.635-2.21-6.023,5.458-11.294,11.105-11.294,11.105l.968,1.34s13.244-3.599,17.667-6.234c0,0-.471,8.941-4.8,15.059-4.33,6.118-4.476,8.536-4.476,8.536l-8.005-1.061s.739-6.908-4.919-5.498l-1.517,8,2.447,2.165-1.509,1.603-6.303-3.768s-.094-6.683-9.694-4.047-16.7,9.262-16.7,9.262l1.641-5.497s6.221-3.263,4.715-11.956c-9.459,12.058-15.827,26.44-18.32,41.957.745-.049,1.494.026,2.223.284,0,0,1.124,20.35,3.383,27.503s1.129,13.083,4.894,20.612,15.153,22.965,15.153,22.965c0,0-2.185,1.409-4.711,3.142,16.865,19.664,41.877,32.145,69.753,32.145ZM187.474,173.669c-1.998,2.208-2.098,6.945-2.098,6.945l-5.504,3.458c5.271,2.447,9.411,1.315,9.411,1.315,1.505-10.261,6.872-13.382,6.872-13.382-11.388,3.18-5.353-9.187-5.353-9.187l-2.604-.94s-2.584,5.536-3.243,8.171c-.659,2.635,2.52,3.62,2.52,3.62Z" fill="#007e84"/>
  <polygon points="256.683 97.784 239.027 80.127 148.833 170.321 58.639 80.127 40.983 97.784 131.177 187.977 40.983 278.172 58.639 295.828 148.833 205.634 239.027 295.828 256.683 278.172 166.489 187.977 256.683 97.784" fill="#ffc300"/>
  <path d="M510.787,263.185l6.764-10.897s-21.043-.375-23.673-1.503c-2.63-1.127,7.515-5.261,10.521-6.388,3.006-1.127,6.012-2.63,6.012-2.63l-17.379-13.307c7.397-5.465,14.004-13.391,19.42-23.413,5.687-10.52,8.062-19.515,8.161-19.893.182-.698-.026-1.44-.546-1.941-.519-.502-1.268-.685-1.959-.479l-19.23,5.708,5.748-9.929c.317-.547.356-1.212.106-1.793s-.761-1.01-1.376-1.155c-.621-.146-15.394-3.449-32.854,9.744-.798.603-1.579,1.226-2.359,1.851h-66.703v-8.521s12.4-14.655,18.037-19.916c5.636-5.261,12.776-3.757,12.776-3.757l19.54-32.316s-1.879.376-5.26,2.63-8.643,10.521-13.903,15.782-12.024,3.006-16.533,3.382c-4.509.375-12.776,8.643-12.776,8.643,0,0,3.382-9.394,4.885-13.528,1.503-4.133-.751-15.782-.751-15.782,0,0,.376-2.63,10.146-15.406,9.77-12.776,12.776-23.297,12.776-23.297l-24.425,28.182-4.133-28.558h-4.509l2.255,48.849-12.776,17.661s-.751-9.019-3.382-15.031-6.764-23.297-7.891-31.188c-1.127-7.891,1.127-22.546,1.127-22.546,0,0-1.879-.376-4.509,2.63-2.63,3.006-4.509,11.648-4.509,11.648l-14.279-21.042-2.63,2.63s7.139,12.024,11.648,21.794c4.509,9.77,3.382,22.17,3.382,22.17l-28.558-17.285-.376,6.388s12.024,9.77,23.297,17.285,9.77,21.418,9.77,21.418c0,0-6.388-2.63-11.273-6.388-4.885-3.758-10.521-4.885-16.533-.751-6.012,4.133-12.776,11.648-11.273,11.272,1.503-.375,8.643-3.757,12.4-1.879,3.758,1.879,31.188,15.031,30.812,19.54-.12,1.444-.395,7.595-.713,15.285h-48.888c-1.104,0-2,.896-2,2s.896,2,2,2h48.725c-.643,15.862-1.378,35.576-1.378,35.576-6.388,2.63-21.794,13.527-21.794,13.527,4.885,2.255,19.164-1.503,24.801-1.879,5.636-.375,12.776,9.77,12.776,9.77,0,0,6.388-10.897,7.891-12.024,1.503-1.127,31.564-5.261,31.564-5.261l-25.552-13.527v-26.182h61.984c-12.957,11.57-23.247,25.673-31.759,37.355l-1.403,1.927c-9.409,12.894-28.259,13.082-28.448,13.082-.93,0-1.736.643-1.946,1.549-.21.907.233,1.839,1.069,2.248l34.57,16.909-29.245-14.304c-11.002,4.746-28.449,13.553-32.253,15.138-4.509,1.878-10.521.751-15.406,1.127-4.885.376-22.922,2.63-33.443,8.267h199.906v-11.649l-14.279.376ZM458.421,238.822c-8.426,2.641-13.067,4.096-15.915,9.532-2.796,5.336-5.438,9.48-6.797,11.521l-26.758-13.088c7.063-1.263,17.757-4.69,24.541-13.988l1.406-1.929c9.852-13.524,22.113-30.355,38.016-42.37,11.598-8.764,21.945-9.563,26.72-9.348l-6.735,11.635c-.411.709-.348,1.597.159,2.239.507.646,1.353.912,2.141.68l20.46-6.073c-3.1,9.163-13.112,33.803-33.466,42.525-10.531,4.513-18.184,6.911-23.771,8.663ZM504.867,202.044c0,2.335-1.893,4.227-4.227,4.227s-4.227-1.893-4.227-4.227,1.893-4.227,4.227-4.227,4.227,1.893,4.227,4.227Z" fill="#007e84"/>
  <polygon points="532.933 97.784 515.277 80.127 425.082 170.321 334.888 80.127 317.232 97.784 407.426 187.977 317.232 278.172 334.888 295.828 425.082 205.634 515.277 295.828 532.933 278.172 442.739 187.977 532.933 97.784" fill="#ffc300"/>
  <path d="M823.211,196.213l-46.532-89.649c-.509-.979-1.714-1.362-2.696-.854l-7.156,3.714-3.714-7.155c-.244-.472-.666-.826-1.172-.985-.505-.16-1.054-.112-1.524.131l-7.156,3.714-3.715-7.157c-.509-.979-1.714-1.359-2.696-.854l-170.541,88.519c-.98.509-1.363,1.717-.854,2.696l46.531,89.648c.244.472.666.826,1.172.985.197.062.4.094.604.094.317,0,.634-.076.921-.225l7.157-3.715,3.714,7.156c.244.472.666.826,1.172.985.197.062.4.094.604.094.317,0,.634-.076.921-.225l7.157-3.715,3.714,7.156c.356.687,1.054,1.079,1.777,1.079.31,0,.625-.072.919-.225l170.541-88.519c.472-.245.826-.666.985-1.172.16-.506.113-1.054-.131-1.524ZM624.613,274.364l-44.688-86.099,166.991-86.676,44.689,86.099-166.992,86.676ZM651.748,282.956l-2.793-5.381,159.834-82.961c.98-.509,1.363-1.717.854-2.696l-40.975-78.943,5.381-2.793,44.689,86.1-166.991,86.676ZM717.032,186.813l4.347,8.376-.071.164c-2.845,6.517-8.058,11.998-14.678,15.435-4.661,2.419-9.611,3.598-14.452,3.598-7.9,0-15.514-3.138-21.125-9.137l-6.574,3.412-1.229-6.813,3.766-1.955c-.337-.548-.648-1.146-.929-1.687-.293-.564-.604-1.165-.855-1.752l-5.586,2.898-1.227-6.813,4.755-2.469c-2.704-12.97,3.677-25.915,15.946-32.282,6.622-3.438,14.105-4.544,21.07-3.12l.175.035,4.348,8.376-.871-.284c-6.551-2.135-13.909-1.494-20.184,1.764-8.562,4.444-13.308,12.592-12.486,21.36l29.357-15.237,1.227,6.813-.245.128-28.723,14.908c.249.586.564,1.194.849,1.741.311.599.606,1.169.937,1.697l27.775-14.417,1.312,6.771-24.61,12.773c6.697,5.718,16.091,6.526,24.654,2.083,6.274-3.258,11.034-8.903,13.059-15.491l.27-.876Z" fill="#007e84"/>
  <polygon points="809.599 97.784 791.943 80.127 701.749 170.321 611.554 80.127 593.898 97.784 684.093 187.977 593.898 278.172 611.554 295.828 701.749 205.634 791.943 295.828 809.599 278.172 719.405 187.977 809.599 97.784" fill="#ffc300"/>
  <g>
    <path d="M179.879,203.473l1.404-.702-12.994-12.994c-.508.174-.852.241-.852.241-.483,3.122-8.97,2.676-8.97,2.676l-.29,1.302c5.599,4.465,1.302,9.838,1.302,9.838-3.452-3.109-11.14-2.821-11.14-2.821l-2.923,8.038,3.416-3.417,9.351,9.351c.574-.303.933-.517.933-.517.868-5.136,6.583-5.57,6.583-5.57-.996-5.01,5.208-2.17,5.208-2.17,1.672-2.003,4.919-1.302,4.919-1.302,2.356,5.07,6.397,6.505,7.433,9.8,1.035,3.294-4.9,3.438-4.9,3.438l3.327,2.604c6.239-3.37,3.738-6.701,3.738-6.701l2.338-.677c-5.567-3.689-7.885-10.417-7.885-10.417Z" fill="#006139"/>
    <path d="M189.716,212.153c.339,5.022,2.459,8.681,2.459,8.681l2.99-.855-.813-4.137-4.835-4.835c.094.346.169.716.198,1.146Z" fill="#006139"/>
    <path d="M222.352,243.84c-1.788,2.936-3.734,5.765-5.83,8.473-1.44.261-2.783.344-3.803.088-4.141-1.036-6.871-21.513-6.871-21.513,7.059,1.64,8.391,18.084,8.391,18.084,2.462-2.318,4.481-4.727,6.146-7.1l-14.28-14.279c-5.341,4.168-14.218.763-14.218.763-3.138.614-4.992,5.642-4.992,5.642l-13.166-7.74c2.987-4.449.434-6.728.434-6.728-2.781,1.749-7.448.481-11.296.138l46.465,46.465c6.113-5.728,11.475-12.244,15.927-19.386l-2.908-2.908Z" fill="#006139"/>
    <path d="M188.197,161.878l2.604.94s-.283.582-.611,1.458l8.145-8.145c-8.13-4.145-13.099-3.212-13.099-3.212-3.2,11.012-11.67,15.718-11.67,15.718l1.466,7.274,4.991-1.881.1.313,5.048-5.048c.876-2.808,3.027-7.418,3.027-7.418Z" fill="#006139"/>
    <path d="M74.079,255.92c2.526-1.733,4.711-3.142,4.711-3.142,0,0-2.302-3.121-5.176-7.237l-7.174,7.174c4.941,6.746,10.741,12.824,17.239,18.073l2.844-2.844c-4.514-3.613-8.683-7.638-12.444-12.024Z" fill="#006139"/>
    <path d="M98.218,155.019l1.09-1.158-2.447-2.165,1.517-8c5.658-1.411,4.919,5.498,4.919,5.498l8.005,1.061s.146-2.418,4.476-8.536c.629-.888,1.167-1.839,1.643-2.81l-7.95-7.95c-3.594,1.128-6.561,1.935-6.561,1.935l-.968-1.34s1.585-1.697,4.001-4.123l-12.711-12.71c-7.225,4.468-13.747,9.812-19.437,15.875l24.422,24.422ZM95.098,126.625l2.797,1.929s-5.835,4.413-6.964,7.989l-3.646-3.359,7.812-6.559Z" fill="#006139"/>
    <path d="M151.919,182.19l2.303,2.691c5.127-1.544,5.787-6.076,5.787-6.076l-2.315-1.64c-2.224,3.446-5.776,5.024-5.776,5.024Z" fill="#006139"/>
    <path d="M179.686,141.768s2.071-1.664,1.747-4.046l-2.589,2.589.842,1.457Z" fill="#006139"/>
    <path d="M166.978,174.284l-2.049-2.81c-4.214,2.461-4.437,4.726-4.437,4.726,0,0,1.498,1.001,1.686,5.895s-3.229,6.162-3.229,6.162l1.447,1.64c2.735-2.082,5.112-.386,5.112-.386l1.078-1.438-.096-.096.673-.673.949-1.266s-1.322-2.531-2.922-6.484,1.788-5.271,1.788-5.271Z" fill="#006139"/>
    <path d="M202.429,116.725l-4.925,4.925c2.503-.643,5.418-1.296,6.431-.713,6.368,3.682,12.043,8.207,16.771,12.823l2.83-2.83c-4.952-4.847-10.891-9.577-17.6-13.456-1-.578-2.19-.779-3.508-.749Z" fill="#006139"/>
    <path d="M195.463,140.925c-.351-1.44-1.416-5.822-5.138-6.26-.274-.032-.527-.032-.76-.008-.012.001-.021.006-.032.007-.217.025-.419.067-.599.126-.052.017-.09.042-.138.061-.309.12-.57.27-.759.42-1.11.882-1.267,2.275-1.392,3.396-.023.212-.047.426-.078.635-.411.189-1.464.3-2.133.37-1.483.156-2.606.715-3.338,1.66-.363.47-.749,1.206-.812,2.257-.021.35-.006.735.057,1.157.068.46.179.994.299,1.572.038.184.078.374.117.567.196.968.384,2.03.382,2.948,0,.368-.032.712-.106,1.019-.331,1.376-1.953,2.679-2.767,2.475q-1.693-.405-1.306-3.077c.292-2.01.654-4.647-.174-7.883l-3.499,3.499c.057,1.393-.116,2.645-.285,3.81-.024.166-.049.335-.073.508-.072.518-.135,1.063-.151,1.613-.006.183-.006.367,0,.551.039,1.102.317,2.193,1.148,3.098.692.755,1.767,1.38,3.407,1.772.257.062.514.093.771.11,3.096.216,6.113-2.614,6.816-5.541.126-.524.19-1.063.21-1.605.008-.216.004-.434-.002-.65-.035-1.411-.323-2.816-.574-4.028-.104-.497-.2-.956-.26-1.352-.031-.214-.022-.335-.034-.361.075-.038.273-.106.681-.149,1.876-.197,5.016-.526,5.536-3.478.051-.291.089-.593.123-.894.354.554.693,1.447.974,2.601.798,3.28,4.885,9.501,9.21,11.81l3.086-3.086c-.04-.005-.087-.008-.123-.014-2.838-.432-7.568-6.7-8.287-9.655Z" fill="#006139"/>
    <path d="M185.514,207.003l-3.323-3.323c.985,1.618,2.177,2.565,3.323,3.323Z" fill="#006139"/>
    <path d="M202.217,138.57c-.162.152-.293.327-.393.516-.301.565-.319,1.254-.017,1.848.698,1.372,2.448,4.89,3.187,6.685.105.256.19.478.249.652.086.257.121.54.134.82l6.803-6.803c-.212-.079-.464-.185-.745-.312-2-.908-5.496-2.892-6.835-3.676-.768-.448-1.736-.337-2.382.271Z" fill="#006139"/>
    <path d="M213.85,135.18c-.177-.08-.361-.122-.547-.148-.043-.006-.085-.01-.128-.014-.048-.003-.096-.015-.145-.015-.322,0-.637.087-.924.237-.036.019-.071.039-.106.06-.161.097-.314.209-.446.353-.146.159-.262.338-.348.528-.004.008-.003.017-.007.024-.079.182-.135.373-.157.568-.048.409.031.833.242,1.209.411.735,1.01,2.047,1.181,2.87.024.118.04.225.045.32.018.325-.005.601-.041.825l4.676-4.676c-1.893-1.485-3.147-2.075-3.295-2.142Z" fill="#006139"/>
  </g>
  <g>
    <path d="M374.761,238.384c3.691-.246,8.025,4.019,10.579,6.993l23.904-23.904-7.803-4.131v-23.377l-29.565,29.565c-.076,2.019-.12,3.206-.12,3.206-1.715.706-4.081,2.01-6.623,3.537l-10.695,10.695c6.354.033,15.943-2.291,20.324-2.583Z" fill="#006139"/>
    <path d="M441.438,221.989c4.778-6.37,10.069-13.037,15.973-19.34l-2.827-2.827c-5.921,6.306-11.218,12.953-16.003,19.31l2.857,2.857Z" fill="#006139"/>
    <polygon points="406.608 187.159 407.426 187.978 404.245 191.159 445.921 191.159 442.739 187.978 443.557 187.159 406.608 187.159" fill="#006139"/>
    <path d="M369.267,149.818l32.173,32.173v-3.354s8.891-10.507,15.038-16.921l-10.815-10.815c-1.404,1.249-2.344,2.185-2.344,2.185,0,0,.5-1.389,1.199-3.329l-9.681-9.681-8.052,11.131s-.751-9.019-3.382-15.031c-1.034-2.362-2.299-6.468-3.523-11.057l-14.589-14.589c.935,6.419.451,11.743.451,11.743l-28.558-17.285-.376,6.388s12.024,9.77,23.297,17.285,9.77,21.418,9.77,21.418c0,0-.221-.091-.609-.262Z" fill="#006139"/>
    <path d="M525.066,270.305l-7.304-7.304-6.975.184,2.742-4.417-6.808-6.808c-5.595-.235-11.526-.611-12.843-1.175-1.899-.814,2.862-3.195,6.788-4.88l-16.605-16.605c-.613.301-1.235.588-1.868.859-10.531,4.513-18.184,6.911-23.771,8.663-.039.013-.075.024-.115.036l35.6,35.6h31.159v-4.153Z" fill="#006139"/>
    <path d="M364.55,266.167c-2.049-.044-4.08-.12-5.947.024-4.885.376-22.922,2.63-33.443,8.267h31.098l8.291-8.291Z" fill="#006139"/>
  </g>
  <g>
    <polygon points="701.756 177.494 700.529 170.681 678.322 182.207 683.227 187.112 701.511 177.622 701.756 177.494" fill="#006139"/>
    <path d="M666.25,170.135l6.281,6.281c1.95-4.892,5.798-9.092,11.127-11.858,2.982-1.549,6.21-2.498,9.479-2.847l-6.69-6.69c-2.51.624-4.973,1.545-7.327,2.767-5.649,2.932-10.03,7.267-12.87,12.348Z" fill="#006139"/>
    <path d="M624.613,274.364l-9.194-17.713-2.967,2.966,9.532,18.364c.244.472.666.826,1.172.985.197.062.4.094.604.094.317,0,.634-.076.921-.225l7.157-3.715.145.279,10.106-10.106-17.475,9.07Z" fill="#006139"/>
    <path d="M721.379,195.188l-4.347-8.376-.27.876c-2.024,6.588-6.784,12.233-13.059,15.491-8.563,4.443-17.957,3.635-24.654-2.083l24.61-12.773-1.312-6.771-24.598,12.768-13.435,13.436.163.905,6.574-3.412c5.611,5.999,13.225,9.137,21.125,9.137.281,0,.564-.018.845-.026l8.725-8.725,5.054,5.054c6.536-3.442,11.685-8.877,14.505-15.335l.071-.164Z" fill="#006139"/>
    <polygon points="645.722 149.607 648.689 152.574 671.935 140.508 668.969 137.542 645.722 149.607" fill="#006139"/>
    <polygon points="761.779 230.352 758.812 227.385 735.566 239.451 738.533 242.417 761.779 230.352" fill="#006139"/>
    <path d="M773.982,105.709l-7.156,3.714-1.428-2.751-10.43,10.43,12.066,23.246,10.43-10.43-8.795-16.945,5.381-2.793,7.911,15.241,2.967-2.967-8.249-15.892c-.509-.979-1.714-1.362-2.696-.854Z" fill="#006139"/>
    <polygon points="754.315 222.888 743.885 212.458 720.638 224.523 731.069 234.954 754.315 222.888" fill="#006139"/>
  </g>
</svg>