<?xml version="1.0" encoding="UTF-8"?>
<svg id="a" data-name="Laag 1" xmlns="http://www.w3.org/2000/svg" width="1495.413" height="608.846" viewBox="0 0 1495.413 608.846">
  <g>
    <path d="M1244.025,451.661c54.889-15.899,95.017-66.54,95.017-126.553v-102.979h-63.735v-86.256c0-8.363-6.78-15.143-15.143-15.143s-15.143,6.78-15.143,15.143v86.256h-75.437v-86.256c0-8.363-6.78-15.143-15.143-15.143s-15.143,6.78-15.143,15.143v86.256h-63.735v102.979c0,72.758,58.982,131.74,131.74,131.74v65.859c0,9.576,8.218,18.008,18.809,17.278,123.102-9.591,220.006-112.522,220.006-238.086,0-131.894-106.921-238.816-238.816-238.816s-238.816,106.921-238.816,238.816c0,94.801,55.238,176.7,135.283,215.268l-14.137,28.597,54.804-11.026-23.937-51.413" fill="none" stroke="#007e84" stroke-linecap="round" stroke-linejoin="round" stroke-width="8.978"/>
    <path d="M1207.361,352.744h-37.987c16.876-38.784,16.876-64.516,16.876-64.516" fill="none" stroke="#007e84" stroke-linecap="round" stroke-linejoin="round" stroke-width="8.978"/>
    <path d="M1119.486,288.229s14.946-11.081,33.382-11.081,33.382,11.081,33.382,11.081" fill="none" stroke="#007e84" stroke-linecap="round" stroke-linejoin="round" stroke-width="8.978"/>
    <path d="M1231.847,288.229s13.828-11.081,30.887-11.081,30.887,11.081,30.887,11.081" fill="none" stroke="#007e84" stroke-linecap="round" stroke-linejoin="round" stroke-width="8.978"/>
    <path d="M1176.475,394.125s11.324,9.31,30.887,9.31c19.218,0,30.887-9.31,30.887-9.31" fill="none" stroke="#007e84" stroke-linecap="round" stroke-linejoin="round" stroke-width="8.978"/>
  </g>
  <g>
    <polygon points="167.675 164.676 123.795 164.676 123.795 98.855 79.914 98.855 79.914 164.676 79.914 208.557 79.914 274.377 123.795 274.377 123.795 208.557 167.675 208.557 167.675 274.377 211.556 274.377 211.556 208.557 211.556 164.676 211.556 98.855 167.675 98.855 167.675 164.676" fill="#1d1d1b"/>
    <polygon points="847.816 98.855 803.936 98.855 760.056 98.855 760.056 142.736 760.056 274.377 803.936 274.377 803.936 142.736 847.816 142.736 847.816 274.377 891.697 274.377 891.697 142.736 891.697 98.855 847.816 98.855" fill="#1d1d1b"/>
    <polygon points="485.807 98.855 441.926 98.855 441.926 230.497 441.926 274.377 485.807 274.377 529.687 274.377 529.687 230.497 485.807 230.497 485.807 98.855" fill="#1d1d1b"/>
    <path d="M328.651,96.811c-49.518,0-89.805,40.287-89.805,89.805s40.288,89.805,89.805,89.805,89.805-40.287,89.805-89.805-40.288-89.805-89.805-89.805ZM328.651,231.233c-24.602,0-44.617-20.016-44.617-44.617s20.016-44.618,44.617-44.618,44.617,20.016,44.617,44.618-20.016,44.617-44.617,44.617Z" fill="#1d1d1b"/>
    <path d="M643.683,96.811c-49.518,0-89.805,40.287-89.805,89.805s40.287,89.805,89.805,89.805,89.805-40.287,89.805-89.805-40.287-89.805-89.805-89.805ZM643.683,231.233c-24.602,0-44.617-20.016-44.617-44.617s20.016-44.618,44.617-44.618,44.618,20.016,44.618,44.618-20.016,44.617-44.618,44.617Z" fill="#1d1d1b"/>
  </g>
  <g>
    <path d="M79.78,392.186v-79.603h8.983v79.603h-8.983Z" fill="#007e84"/>
    <path d="M166.457,362.33c0,1.53-.146,3.021-.362,4.493h-52.232c2.081,10.002,10.962,17.545,21.574,17.545,7.475,0,14.08-3.749,18.067-9.458h10.266c-4.838,10.85-15.705,18.443-28.333,18.443-17.107,0-31.021-13.914-31.021-31.021s13.914-31.021,31.021-31.021,31.023,13.914,31.023,31.021l-.003-.002ZM157.017,357.842c-2.081-10.002-10.966-17.545-21.577-17.545s-19.494,7.542-21.575,17.545h43.152Z" fill="#007e84"/>
    <path d="M240.559,312.585v79.6h-8.983v-8.399c-5.65,5.886-13.574,9.57-22.358,9.57-17.107,0-31.021-13.914-31.021-31.021s13.914-31.021,31.021-31.021c8.784,0,16.708,3.684,22.358,9.57v-28.299h8.983ZM231.259,362.332c0-12.15-9.89-22.038-22.041-22.038s-22.038,9.887-22.038,22.038,9.887,22.038,22.038,22.038,22.041-9.887,22.041-22.038Z" fill="#007e84"/>
    <path d="M317.434,362.33c0,1.53-.146,3.021-.362,4.493h-52.232c2.081,10.002,10.962,17.545,21.574,17.545,7.475,0,14.08-3.749,18.067-9.458h10.266c-4.838,10.85-15.705,18.443-28.333,18.443-17.107,0-31.021-13.914-31.021-31.021s13.914-31.021,31.021-31.021,31.023,13.914,31.023,31.021l-.003-.002ZM307.993,357.842c-2.081-10.002-10.966-17.545-21.577-17.545s-19.494,7.542-21.574,17.545h43.151Z" fill="#007e84"/>
    <path d="M363.547,331.314v8.983c-12.15,0-22.038,9.887-22.038,22.038h-.32v29.85h-8.983v-59.699h8.983v8.399c5.65-5.886,13.574-9.57,22.357-9.57Z" fill="#007e84"/>
    <path d="M431.518,362.33c0,1.53-.146,3.021-.362,4.493h-52.232c2.081,10.002,10.962,17.545,21.574,17.545,7.475,0,14.08-3.749,18.067-9.458h10.266c-4.838,10.85-15.705,18.443-28.333,18.443-17.107,0-31.021-13.914-31.021-31.021s13.914-31.021,31.021-31.021,31.023,13.914,31.023,31.021l-.003-.002ZM422.078,357.842c-2.081-10.002-10.966-17.545-21.577-17.545s-19.494,7.542-21.574,17.545h43.151Z" fill="#007e84"/>
    <path d="M505.301,362.33c0,1.53-.146,3.021-.362,4.493h-52.232c2.081,10.002,10.962,17.545,21.574,17.545,7.475,0,14.08-3.749,18.067-9.458h10.266c-4.838,10.85-15.705,18.443-28.333,18.443-17.107,0-31.021-13.914-31.021-31.021s13.914-31.021,31.021-31.021,31.023,13.914,31.023,31.021l-.003-.002ZM495.86,357.842c-2.081-10.002-10.966-17.545-21.577-17.545s-19.494,7.542-21.574,17.545h43.151Z" fill="#007e84"/>
    <path d="M564.75,332.482v59.699h-8.983v-50.713h-26.836v50.713h-8.983v-59.699h44.803Z" fill="#007e84"/>
    <path d="M676.053,332.482v59.699h-8.983v-8.396c-5.65,5.883-13.574,9.567-22.355,9.567-17.107,0-31.023-13.917-31.023-31.021s13.917-31.021,31.023-31.021c8.783,0,16.705,3.684,22.355,9.567v-8.396h8.983ZM666.753,362.332c0-12.15-9.884-22.038-22.038-22.038s-22.041,9.887-22.041,22.038,9.89,22.038,22.041,22.038,22.038-9.887,22.038-22.038Z" fill="#007e84"/>
    <path d="M716.291,380.579c3.297,2.058,7.284,3.597,12.108,4.321l-1.334,8.885c-6.071-.91-11.238-2.9-15.596-5.65-5.523,7.784-12.645,15.214-21.619,21.737l-5.282-7.267c8.337-6.062,14.911-12.948,19.962-20.125-8.842-9.154-12.633-22.116-12.951-33.394-.452-16.236,2.207-27.435,7.896-33.287,3.007-3.094,6.919-4.729,11.311-4.729,6.389,0,11.673,4.984,14.501,13.681,4.299,13.231,2.791,35.118-9,55.824l.003.003ZM709.445,374.584c9.649-17.71,10.907-35.946,7.298-47.055-1.5-4.608-3.782-7.475-5.956-7.475-1.991,0-3.535.64-4.869,2.011-3.824,3.931-5.726,13.439-5.352,26.769.098,3.51,1.014,16.292,8.882,25.75h-.003Z" fill="#007e84"/>
    <path d="M766.105,332.482v8.986h-8.989v50.713h-8.983v-50.713h-8.986v-8.986h8.986v-19.897h8.983v19.897h8.989Z" fill="#007e84"/>
    <path d="M779.197,321.57v-8.985h8.986v8.985h-8.986ZM779.2,392.182v-59.699h8.983v59.699h-8.983Z" fill="#007e84"/>
    <path d="M806,332.482h8.983v81.709h-19.744v-8.983h10.76v-72.726ZM805.998,321.57v-8.985h8.986v8.985h-8.986Z" fill="#007e84"/>
    <path d="M892.218,312.585v79.6h-8.983v-8.399c-5.65,5.886-13.574,9.57-22.358,9.57-17.107,0-31.021-13.914-31.021-31.021s13.914-31.021,31.021-31.021c8.784,0,16.708,3.684,22.358,9.57v-28.299h8.983ZM882.917,362.332c0-12.15-9.89-22.038-22.041-22.038s-22.038,9.887-22.038,22.038,9.887,22.038,22.038,22.038,22.041-9.887,22.041-22.038Z" fill="#007e84"/>
    <path d="M138.031,476.883c0,17.107-13.914,31.021-31.021,31.021s-31.021-13.914-31.021-31.021,13.914-31.021,31.021-31.021,31.021,13.914,31.021,31.021ZM129.048,476.883c0-12.15-9.887-22.038-22.038-22.038s-22.038,9.887-22.038,22.038,9.887,22.038,22.038,22.038,22.038-9.887,22.038-22.038Z" fill="#007e84"/>
    <path d="M176.764,506.629h-10.28c-1.997-6.038-10.306-30.212-24.542-59.593h9.969c10.059,21.192,16.98,39.36,20.62,49.565,8.772-14.36,20.541-38.892,13.984-52.646l8.113-3.867c10.277,21.558-11.176,56.509-17.862,66.54Z" fill="#007e84"/>
    <path d="M268.163,476.881c0,1.53-.146,3.021-.362,4.493h-52.232c2.081,10.002,10.962,17.545,21.574,17.545,7.475,0,14.08-3.749,18.067-9.458h10.266c-4.838,10.85-15.705,18.443-28.333,18.443-17.107,0-31.021-13.914-31.021-31.021s13.914-31.021,31.021-31.021,31.023,13.914,31.023,31.021l-.003-.002ZM258.723,472.394c-2.081-10.002-10.966-17.545-21.577-17.545s-19.494,7.542-21.574,17.545h43.151Z" fill="#007e84"/>
    <path d="M311.876,445.866v8.983c-12.15,0-22.038,9.887-22.038,22.038h-.32v29.85h-8.983v-59.699h8.983v8.399c5.65-5.886,13.574-9.57,22.357-9.57Z" fill="#007e84"/>
    <path d="M377.767,447.034v59.699h-8.983v-8.396c-5.65,5.883-13.574,9.567-22.355,9.567-17.107,0-31.023-13.917-31.023-31.021s13.917-31.021,31.023-31.021c8.783,0,16.705,3.684,22.355,9.567v-8.396h8.983ZM368.467,476.883c0-12.15-9.884-22.038-22.038-22.038s-22.041,9.887-22.041,22.038,9.89,22.038,22.041,22.038,22.038-9.887,22.038-22.038Z" fill="#007e84"/>
    <path d="M415.605,495.13c3.297,2.058,7.284,3.597,12.108,4.321l-1.334,8.885c-6.071-.91-11.238-2.9-15.596-5.65-5.523,7.784-12.645,15.214-21.619,21.737l-5.282-7.267c8.337-6.062,14.911-12.948,19.962-20.125-8.842-9.154-12.633-22.116-12.951-33.394-.452-16.236,2.207-27.435,7.896-33.287,3.007-3.094,6.919-4.729,11.311-4.729,6.389,0,11.673,4.984,14.501,13.681,4.299,13.231,2.791,35.118-9,55.824l.003.003ZM408.759,489.135c9.649-17.71,10.907-35.946,7.298-47.055-1.5-4.608-3.782-7.475-5.956-7.475-1.991,0-3.535.64-4.869,2.011-3.824,3.931-5.726,13.439-5.352,26.769.098,3.51,1.014,16.292,8.882,25.75h-.003Z" fill="#007e84"/>
    <path d="M531.582,476.881c0,1.53-.146,3.021-.362,4.493h-52.232c2.081,10.002,10.962,17.545,21.574,17.545,7.475,0,14.08-3.749,18.067-9.458h10.266c-4.838,10.85-15.705,18.443-28.333,18.443-17.107,0-31.021-13.914-31.021-31.021s13.914-31.021,31.021-31.021,31.023,13.914,31.023,31.021l-.003-.002ZM522.142,472.394c-2.081-10.002-10.966-17.545-21.577-17.545s-19.494,7.542-21.575,17.545h43.152Z" fill="#007e84"/>
    <path d="M588.631,447.034v59.699h-8.983v-50.713h-26.836v50.713h-8.983v-59.699h44.803Z" fill="#007e84"/>
    <path d="M662.975,476.881c0,1.53-.146,3.021-.362,4.493h-52.232c2.081,10.002,10.962,17.545,21.574,17.545,7.475,0,14.08-3.749,18.067-9.458h10.266c-4.838,10.85-15.705,18.443-28.333,18.443-17.107,0-31.021-13.914-31.021-31.021s13.914-31.021,31.021-31.021,31.023,13.914,31.023,31.021l-.003-.002ZM653.535,472.394c-2.081-10.002-10.966-17.545-21.577-17.545s-19.494,7.542-21.575,17.545h43.152Z" fill="#007e84"/>
    <path d="M706.688,445.866v8.983c-12.151,0-22.038,9.887-22.038,22.038h-.32v29.85h-8.983v-59.699h8.983v8.399c5.65-5.886,13.574-9.57,22.358-9.57Z" fill="#007e84"/>
    <path d="M772.263,447.034v82.956h-31.023v-8.983h22.041v-22.321c-5.627,5.687-13.428,9.219-22.041,9.219-17.107,0-31.021-13.914-31.021-31.021s13.914-31.021,31.021-31.021c8.615,0,16.413,3.533,22.041,9.219v-8.048h8.983ZM763.28,476.883c0-12.15-9.89-22.038-22.041-22.038s-22.038,9.887-22.038,22.038,9.887,22.038,22.038,22.038,22.041-9.887,22.041-22.038Z" fill="#007e84"/>
    <path d="M787.665,436.122v-8.985h8.986v8.985h-8.986ZM787.668,506.733v-59.699h8.983v59.699h-8.983Z" fill="#007e84"/>
    <path d="M871.057,476.881c0,1.53-.146,3.021-.362,4.493h-52.232c2.081,10.002,10.962,17.545,21.574,17.545,7.475,0,14.08-3.749,18.067-9.458h10.266c-4.838,10.85-15.705,18.443-28.333,18.443-17.107,0-31.021-13.914-31.021-31.021s13.914-31.021,31.021-31.021,31.023,13.914,31.023,31.021l-.003-.002ZM861.616,472.394c-2.081-10.002-10.966-17.545-21.577-17.545s-19.494,7.542-21.574,17.545h43.151Z" fill="#007e84"/>
    <path d="M883.808,486.837v-59.702h8.983v59.702h-8.983ZM883.808,506.734v-8.985h8.989v8.985h-8.989Z" fill="#007e84"/>
  </g>
</svg>