<?xml version="1.0" encoding="UTF-8"?>
<svg id="a" data-name="Laag 1" xmlns="http://www.w3.org/2000/svg" width="663.336" height="308.329" viewBox="0 0 663.336 308.329">
  <g>
    <path d="M234.581,231.481v3.947h-3.948v22.276h-3.946v-22.276h-3.947v-3.947h3.947v-8.74h3.946v8.74h3.948Z" fill="#007e84"/>
    <path d="M237.725,231.478h4.205l7.551,20.492,4.984-13.527h4.316l5.861,15.308c1.437-1.215,2.762-3.411,3.772-6.317,2.594-7.451,2.438-17.167-.338-21.218l3.255-2.231c3.913,5.705,3.485,17.062.812,24.745-1.531,4.397-3.681,7.432-6.269,8.946h-3.953l-5.267-13.757-5.068,13.757h-4.205l-9.653-26.201h-.004Z" fill="#007e84"/>
    <path d="M280.626,226.688v-3.947h3.947v3.947h-3.947ZM280.627,257.704v-26.223h3.946v26.223h-3.946Z" fill="#007e84"/>
    <path d="M311.737,231.481v26.223h-3.946v-22.276h-11.788v22.276h-3.946v-26.223h19.679Z" fill="#007e84"/>
  </g>
  <polygon points="63.725 180.8 63.725 95.76 35.379 95.76 35.379 209.147 92.072 209.147 92.072 180.8 63.725 180.8"/>
  <polygon points="170.024 95.76 170.024 180.8 141.678 180.8 141.678 95.76 113.331 95.76 113.331 209.147 198.371 209.147 198.371 95.76 170.024 95.76"/>
  <polygon points="311.756 129.422 311.756 95.76 283.41 95.76 283.41 118.792 269.237 132.965 255.063 118.792 255.063 95.76 226.717 95.76 226.717 129.422 249.748 152.454 226.717 175.485 226.717 209.147 255.063 209.147 255.063 186.115 269.237 171.942 283.41 186.115 283.41 209.147 311.756 209.147 311.756 175.485 288.725 152.454 311.756 129.422"/>
  <g>
    <path d="M487.238,156.723c0,38.369,31.104,69.473,69.473,69.473s69.473-31.104,69.473-69.473l-.012-60.44h-33.62v-45.5c0-4.412-3.576-7.988-7.988-7.988s-7.988,3.576-7.988,7.988v45.5h-39.793v-45.5c0-4.412-3.576-7.988-7.988-7.988s-7.988,3.576-7.988,7.988v45.5l-25.826-.383" fill="none" stroke="#007e84" stroke-linecap="round" stroke-linejoin="round" stroke-width="4"/>
    <path d="M556.711,171.281h-20.038c8.902-20.458,8.902-34.032,8.902-34.032" fill="none" stroke="#007e84" stroke-linecap="round" stroke-linejoin="round" stroke-width="4"/>
    <path d="M510.357,137.25s7.884-5.845,17.609-5.845,17.609,5.845,17.609,5.845" fill="none" stroke="#007e84" stroke-linecap="round" stroke-linejoin="round" stroke-width="4"/>
    <path d="M569.627,137.25s7.294-5.845,16.293-5.845,16.293,5.845,16.293,5.845" fill="none" stroke="#007e84" stroke-linecap="round" stroke-linejoin="round" stroke-width="4"/>
    <path d="M540.418,193.11s5.973,4.911,16.293,4.911c10.137,0,16.293-4.911,16.293-4.911" fill="none" stroke="#007e84" stroke-linecap="round" stroke-linejoin="round" stroke-width="4"/>
    <path d="M487.188,156.723c0-38.369-31.104-69.473-69.473-69.473s-69.473,31.104-69.473,69.473,31.104,69.473,69.473,69.473c20.638,0,39.175-8.999,51.899-23.288" fill="none" stroke="#007e84" stroke-linecap="round" stroke-linejoin="round" stroke-width="4"/>
    <path d="M398.375,223.479c-28.953-8.387-50.121-35.1-50.121-66.756" fill="none" stroke="#007e84" stroke-linecap="round" stroke-linejoin="round" stroke-width="4"/>
    <path d="M417.715,171.301h20.038c-8.902-20.458-8.902-34.032-8.902-34.032" fill="none" stroke="#007e84" stroke-linecap="round" stroke-linejoin="round" stroke-width="4"/>
    <path d="M464.069,137.269s-7.884-5.845-17.609-5.845-17.609,5.845-17.609,5.845" fill="none" stroke="#007e84" stroke-linecap="round" stroke-linejoin="round" stroke-width="4"/>
    <path d="M404.799,137.269s-7.294-5.845-16.293-5.845-16.293,5.845-16.293,5.845" fill="none" stroke="#007e84" stroke-linecap="round" stroke-linejoin="round" stroke-width="4"/>
    <path d="M434.008,193.129s-5.973,4.911-16.293,4.911c-10.137,0-16.293-4.911-16.293-4.911" fill="none" stroke="#007e84" stroke-linecap="round" stroke-linejoin="round" stroke-width="4"/>
  </g>
  <g>
    <path d="M61.449,244.589c0,.672-.064,1.327-.159,1.974h-22.943c.914,4.394,4.815,7.707,9.477,7.707,3.283,0,6.185-1.647,7.936-4.154h4.509c-2.125,4.766-6.898,8.101-12.445,8.101-7.514,0-13.626-6.112-13.626-13.626s6.112-13.626,13.626-13.626,13.627,6.112,13.627,13.626h-.001ZM57.302,242.618c-.914-4.393-4.817-7.707-9.478-7.707s-8.562,3.313-9.477,7.707h18.954Z" fill="#007e84"/>
    <path d="M87.62,231.479v26.223h-3.946v-22.276h-11.788v22.276h-3.946v-26.223h19.679Z" fill="#007e84"/>
    <path d="M121.388,244.589c0,.672-.064,1.327-.159,1.974h-22.943c.914,4.394,4.815,7.707,9.477,7.707,3.283,0,6.185-1.647,7.936-4.154h4.509c-2.125,4.766-6.898,8.101-12.445,8.101-7.514,0-13.626-6.112-13.626-13.626s6.112-13.626,13.626-13.626,13.627,6.112,13.627,13.626h-.001ZM117.241,242.618c-.914-4.393-4.817-7.707-9.478-7.707s-8.562,3.313-9.477,7.707h18.954Z" fill="#007e84"/>
    <path d="M141.701,230.966v3.946c-5.337,0-9.68,4.343-9.68,9.68h-.141v13.112h-3.946v-26.223h3.946v3.689c2.482-2.585,5.962-4.203,9.821-4.203Z" fill="#007e84"/>
    <path d="M171.616,231.479v36.438h-13.627v-3.946h9.681v-9.805c-2.472,2.498-5.898,4.049-9.681,4.049-7.514,0-13.626-6.112-13.626-13.626s6.112-13.626,13.626-13.626c3.784,0,7.209,1.552,9.681,4.049v-3.535h3.946ZM167.67,244.59c0-5.337-4.344-9.68-9.681-9.68s-9.68,4.343-9.68,9.68,4.343,9.68,9.68,9.68,9.681-4.343,9.681-9.68Z" fill="#007e84"/>
    <path d="M199.229,231.479v26.223h-7.867v10.189h-3.946v-10.189h-7.867v-26.223h3.946v22.277h11.788v-22.277h3.946Z" fill="#007e84"/>
  </g>
</svg>