<?xml version="1.0" encoding="UTF-8"?>
<svg id="b" data-name="Laag 2" xmlns="http://www.w3.org/2000/svg" width="85.254mm" height="101.247mm" viewBox="0 0 241.666 286.999">
  <path d="M135.395,168.694c2.735-2.082,5.112-.386,5.112-.386l2.604-3.473s-1.322-2.531-2.922-6.484,1.788-5.271,1.788-5.271l-2.049-2.81c-4.214,2.461-4.437,4.726-4.437,4.726,0,0,1.498,1.001,1.686,5.895s-3.229,6.162-3.229,6.162l1.447,1.64Z" fill="#007e84"/>
  <path d="M135.01,157.602l-2.315-1.64c-2.224,3.446-5.776,5.024-5.776,5.024l2.303,2.691c5.127-1.544,5.787-6.076,5.787-6.076Z" fill="#007e84"/>
  <path d="M156.133,115.452l-3.955.771,2.508,4.34s2.707-2.175,1.447-5.112Z" fill="#007e84"/>
  <path d="M36.096,137.457c.376,3.2-3.035,14.357-3.035,14.357l1.833,6.944s3.806-5.193,4.277-8.676c.47-3.482-1.19-15.63-1.19-15.63l-1.884,3.004Z" fill="#007e84"/>
  <path d="M214.218,158.888c.224-.249,5.455-6.162,4.343-12.835-.503-3.018-1.047-4.185-1.677-5.536-.649-1.392-1.457-3.124-2.687-8.089-2.051-8.28-14.75-25.452-33.261-36.157-2.586-1.494-6.435-.484-10.511.583-1.941.509-3.949,1.035-5.649,1.229-8.719.994-15.375.562-20.695-.829.399-1.482.735-2.958,1.019-4.409,5.013-.449,12.437-5.097,12.437-28.688,0-14.132-3.829-48.02-13.307-48.02s-13.307,33.888-13.307,48.02c0,20.247,5.47,26.542,10.19,28.203-.24,1.207-.518,2.428-.842,3.65-7.78-3.068-12.393-8.446-17.153-14.004-1.091-1.273-2.219-2.591-3.378-3.869-3.978-4.385-7.888-6.956-10.729-7.055-4.35-.136-7.312,1.268-10.446,2.77-3.376,1.618-6.866,3.291-12.949,3.392-3.222.054-5.533,1.661-6.34,4.41-.559,1.902-.284,4.198.535,5.732-34.649,15.417-56.862,49.447-56.862,87.593,0,52.87,43.013,95.883,95.882,95.883s95.882-43.013,95.882-95.883c0-5.205-.432-10.425-1.273-15.566.293-.112.563-.285.778-.524ZM134.925,64.157c0-9.366,1.25-20.758,3.263-29.729,2.662-11.865,5.444-14.291,6.044-14.291s3.381,2.426,6.043,14.291c2.014,8.972,3.264,20.362,3.264,29.729,0,14.037-2.866,22.919-7.742,24.462,1.125-8.311.646-14.918.618-15.293-.085-1.101-1.032-1.921-2.146-1.841-1.101.085-1.926,1.046-1.842,2.146.006.088.471,6.588-.626,14.627-4.346-2.283-6.875-10.919-6.875-24.102ZM187.719,231.198c-4.141-1.036-6.871-21.513-6.871-21.513,7.059,1.64,8.391,18.084,8.391,18.084,12.438-11.711,13.727-25.748,13.727-25.748-4.235,8-5.986-.439-5.986-.439,0,0,7.653-6.199,12.017-8.905-2.794,14.261-8.896,27.349-17.474,38.432-1.44.261-2.783.344-3.803.088ZM200.613,186.963l-4.14-1.439.94-3.472-4.413-7.957,2.749-5.353,1.591,1.881c-.73,5.118,3.472,6.366,3.472,6.366-.458,2.825-.2,9.975-.2,9.975ZM180.197,178.435l.181,2.599,2.353-.847-.87-2.547,3.328-3.038s-.387,4.456,1.966,5.962,3.671,3.67,2.071,4.988c-1.6,1.317-4.8-.094-8.376,2.353-3.577,2.447-6.294-1.295-6.294-1.295,2.459-4.212,3.111-8.536,3.111-8.536l2.532.362ZM83.274,82.371c.237-.471.745-1.101,2.409-1.128,6.957-.115,11.023-2.064,14.611-3.784,2.91-1.394,5.201-2.501,8.579-2.379,1.118.039,4.146,1.601,7.905,5.744,1.121,1.235,2.23,2.531,3.303,3.783,8.669,10.122,17.638,20.587,45.148,17.45,1.985-.227,4.133-.79,6.21-1.334,2.674-.702,6.335-1.659,7.495-.99,17.319,10.016,29.548,26.258,31.38,33.655,1.323,5.343,2.26,7.352,2.943,8.818.568,1.219.944,2.024,1.357,4.504.536,3.218-1.18,6.413-2.357,8.155-.015-.045-.032-.086-.045-.136-.001-.006-.004-.012-.005-.019-.091-.383-.179-.822-.282-1.333-.501-2.481-1.341-6.637-4.106-13.782-.741-1.916-1.507-3.696-2.285-5.349-7.524-15.979-16.278-20.088-16.685-20.271-.177-.08-.361-.122-.547-.148-.043-.006-.085-.01-.128-.014-.048-.003-.096-.015-.145-.015-.322,0-.637.087-.924.237-.036.019-.071.039-.106.06-.161.097-.314.209-.446.353-.146.159-.262.338-.348.528-.004.008-.003.017-.007.024-.079.182-.135.373-.157.568-.048.409.031.833.242,1.209.411.735,1.01,2.047,1.181,2.87.024.118.04.225.045.32.029.53-.045.952-.121,1.182-.054-.014-.12-.034-.2-.063-.214-.079-.469-.187-.754-.316-2-.908-5.496-2.892-6.835-3.676-.768-.448-1.736-.337-2.382.271-.162.152-.293.327-.393.516-.301.565-.319,1.254-.017,1.848.698,1.372,2.448,4.89,3.187,6.685.105.256.19.478.249.652.248.743.183,1.729-.139,2.111-.263.312-.963.259-1.354.199-2.838-.432-7.568-6.7-8.287-9.655-.351-1.44-1.416-5.822-5.138-6.26-.274-.032-.527-.032-.76-.008-.012.001-.021.006-.032.007-.217.025-.419.067-.599.126-.052.017-.09.042-.138.061-.309.12-.57.27-.759.42-1.11.882-1.267,2.275-1.392,3.396-.023.212-.047.426-.078.635-.411.189-1.464.3-2.133.37-1.483.156-2.606.715-3.338,1.66-.363.47-.749,1.206-.812,2.257-.021.35-.006.735.057,1.157.068.46.179.994.299,1.572.038.184.078.374.117.567.196.968.384,2.03.382,2.948,0,.368-.032.712-.106,1.019-.331,1.376-1.953,2.679-2.767,2.475q-1.693-.405-1.306-3.077c.352-2.422.833-5.74-.828-9.938-.948-2.397-4.624-6.813-6.546-7.454-1.062-.354-2.429-.123-3.662.614-1.073.642-2.962,2.229-3.554,5.648-.459,2.654-.003,4.231.363,5.499.363,1.257.582,2.016-.247,4.069-.082.203-.183.387-.303.551-.361.495-.894.818-1.592.965-.021.004-.044.004-.065.008-.979.186-2.099.006-3.141-.47-.667-.306-1.301-.729-1.841-1.254-1.846-1.796.141-7.242.988-9.568.209-.572.384-1.056.494-1.416.496-1.61.196-3.115-.821-4.128-1.053-1.048-2.749-1.407-4.322-.918-.541.17-.854.201-1.012.201h-.007c-.021-.08-.044-.204-.056-.387-.011-.171-.015-.36-.012-.562.007-.604.066-1.322.124-2.022.055-.675.115-1.412.128-2.151.033-2.031-.298-4.072-2.104-4.855-.164-.071-.341-.132-.53-.182-2.573-.673-4.547,1.533-6.134,3.303-.58.646-1.128,1.258-1.613,1.654-.837.684-1.812.955-2.255.823-.076-.022-.234-.068-.375-.505-.321-.997.664-4.015,1.253-5.817.653-1.998,1.217-3.725,1.217-5.08,0-.302-.038-.59-.094-.872-.012-.06-.024-.118-.038-.177-.066-.271-.152-.535-.272-.784-.017-.035-.039-.066-.057-.1-.07-.136-.141-.272-.227-.401-.037-.056-.085-.104-.128-.156-.223-.3-.475-.582-.783-.82-.507-.393-1.096-.662-1.719-.849-.01-.003-.019-.01-.029-.013-.032-.009-.07-.012-.103-.021-.319-.088-.645-.154-.977-.198-.034-.004-.067-.009-.101-.014-.803-.097-1.621-.082-2.398.017-.068.008-.135.019-.203.028-.405.059-.8.131-1.164.226-.003,0-.006,0-.008.001-.788.204-1.552.523-2.29.833-.158.066-.312.13-.467.194-1.373.565-2.623.988-4.022.654-.159-.038-.317-.075-.48-.134-1.309-.469-1.009-3.595-.754-4.675.048-.199.065-.4.052-.598-.039-.591-.342-1.146-.843-1.502-.667-.474-1.561-.489-2.25-.045-.03.02-.145.092-.336.195-.001,0-.003.002-.005.002-.088.047-.195.103-.314.161-.039.019-.086.04-.128.06-.092.043-.187.087-.294.133-.069.03-.147.06-.222.091-.095.039-.191.077-.295.116-.096.036-.2.071-.304.106-.1.034-.2.068-.306.101-.117.037-.242.071-.367.105-.108.03-.219.059-.333.087-.135.033-.276.063-.418.092-.119.024-.24.047-.364.068-.149.026-.303.048-.459.069-.132.018-.267.032-.403.045-.16.016-.323.028-.49.038-.146.008-.295.011-.445.014-.169.003-.339.003-.513,0-.161-.004-.327-.016-.493-.027-.174-.012-.348-.024-.526-.045-.178-.021-.361-.051-.543-.08-.176-.028-.352-.055-.533-.093-.196-.041-.397-.095-.598-.146-.176-.045-.35-.087-.529-.142-.216-.066-.437-.15-.657-.23-.172-.063-.342-.119-.516-.191-.238-.098-.48-.219-.722-.335-.164-.079-.326-.147-.493-.235-.403-.213-.811-.448-1.224-.716-.253-.479-.602-2.044-.05-3.14ZM72.895,107.351s-5.835,4.413-6.964,7.989l-3.646-3.359,7.812-6.559,2.797,1.929ZM49.079,234.717c2.526-1.733,4.711-3.142,4.711-3.142,0,0-11.388-15.436-15.153-22.965s-2.635-13.459-4.894-20.612-3.383-27.503-3.383-27.503c-.728-.257-1.478-.333-2.223-.284,2.493-15.517,8.861-29.899,18.32-41.957,1.506,8.693-4.715,11.956-4.715,11.956l-1.641,5.497s7.1-6.626,16.7-9.262,9.694,4.047,9.694,4.047l6.303,3.768,1.509-1.603-2.447-2.165,1.517-8c5.658-1.411,4.919,5.498,4.919,5.498l8.005,1.061s.146-2.418,4.476-8.536c4.329-6.118,4.8-15.059,4.8-15.059-4.423,2.635-17.667,6.234-17.667,6.234l-.968-1.34s5.271-5.647,11.294-11.105c4.938-4.476,17.329.332,21.635,2.21-.209.688-.394,1.367-.543,2.032-3.469,1.479-8.655,1.162-8.655,1.162l-2.46,5.701,1.412,4.047,4.23-5.505,3.858,2.797,2.314-2.334c.571.753,1.338,1.29,2.254,1.56.908.267,1.93.25,2.955-.021.035-.009.071-.025.106-.035.988-.278,1.974-.786,2.858-1.509.684-.561,1.329-1.268,1.952-1.962.035-.039.071-.078.106-.117.026-.029.061-.067.089-.098.471-.524,1.174-1.3,1.704-1.717.01.189.012.403.008.631-.004.228-.014.469-.027.711-.005.083-.011.163-.016.246-1.972,2.632-4.901,5.929-8.179,7.542-5.929,2.917-9.691,9.643-9.691,9.643l.868,4.919s5.623-4.962,17.67-4.491c1.104.043,2.135.018,3.116-.048-.042,2.077.438,4.066,1.955,5.543.455.442.958.825,1.481,1.174.398.266.808.506,1.233.714-1.219.02-2.712.228-4.333.87,0,0,1.002,5.292,7.716,2.99l-.242-2.91c.953.123,1.905.115,2.809-.075,2.249-.475,3.946-1.871,4.778-3.933,1.347-3.334.833-5.11.381-6.678-.305-1.052-.566-1.961-.265-3.707.385-2.226,1.595-2.936,2.066-3.079.929.691,3.359,3.354,4.034,5.061,1.27,3.208.908,5.696.59,7.893-.024.166-.049.335-.073.508-.072.518-.135,1.063-.151,1.613-.006.183-.006.367,0,.551.039,1.102.317,2.193,1.148,3.098.692.755,1.767,1.38,3.407,1.772.257.062.514.093.771.11,3.096.216,6.113-2.614,6.816-5.541.126-.524.19-1.063.21-1.605.008-.216.004-.434-.002-.65-.035-1.411-.323-2.816-.574-4.028-.104-.497-.2-.956-.26-1.352-.031-.214-.022-.335-.034-.361.075-.038.273-.106.681-.149,1.876-.197,5.016-.526,5.536-3.478.051-.291.089-.593.123-.894.354.554.693,1.447.974,2.601.929,3.815,6.306,11.625,11.333,12.608-1.65,4.498-4.656,9.569-4.656,9.569l-2.604-4.413,3.183-3.255c-8.429-4.445-13.595-3.46-13.595-3.46-3.2,11.012-11.67,15.718-11.67,15.718l1.466,7.274,4.991-1.881,2.098,6.583-3.255,1.519.361-4.702c-3.091,2.205-2.749,7.668-2.749,7.668-2.358-.574-3.834.579-3.834.579-1.109,3.581-5.208,4.34-5.208,4.34-.483,3.122-8.97,2.676-8.97,2.676l-.29,1.302c5.599,4.465,1.302,9.838,1.302,9.838-3.452-3.109-11.14-2.821-11.14-2.821l-4.051,11.14c3.757.41,4.629,4.63,4.629,4.63,3.305,1.839,10.2-2.315,10.2-2.315.868-5.136,6.583-5.57,6.583-5.57-.996-5.01,5.208-2.17,5.208-2.17,1.672-2.003,4.919-1.302,4.919-1.302,2.356,5.07,6.397,6.505,7.433,9.8,1.035,3.294-4.9,3.438-4.9,3.438l3.327,2.604c6.239-3.37,3.738-6.701,3.738-6.701l2.338-.677c-5.567-3.689-7.885-10.417-7.885-10.417l1.736-.868c2.684,5.779,7.763,4.527,8.102,9.548.339,5.022,2.459,8.681,2.459,8.681l2.99-.855-1.553-7.906,4.518.706c1.835,11.294,11.913,3.86,11.913,3.86.336,18.824-18.157,11.719-18.157,11.719-3.138.614-4.992,5.642-4.992,5.642l-13.166-7.74c2.987-4.449.434-6.728.434-6.728-3.779,2.377-11.045-.824-14.998.306-3.953,1.129-10.538-1.824-10.538-1.824,0,0-7.674,5.213-11.203,8.601s-16.235,3.67-17.506,9.6c-1.271,5.93-6.52,10.156-6.52,10.156,9.857,27.943,22.896,18.927,37.833,25.969,10.879,5.129,1.989,12.186-3.646,15.644-1.246.05-2.496.083-3.755.083-27.876,0-52.889-12.481-69.753-32.145ZM159.954,148.845c.659-2.635,3.243-8.171,3.243-8.171l2.604.94s-6.035,12.367,5.353,9.187c0,0-5.367,3.122-6.872,13.382,0,0-4.14,1.132-9.411-1.315l5.504-3.458s.1-4.736,2.098-6.945c0,0-3.179-.985-2.52-3.62Z" fill="#007e84"/>
</svg>