<?xml version="1.0" encoding="UTF-8"?>
<svg id="a" data-name="Laag 1" xmlns="http://www.w3.org/2000/svg" width="340" height="340" viewBox="0 0 340 340">
  <g>
    <g>
      <line x1="95.359" y1="40.718" x2="115.81" y2="76.141" fill="none" stroke="#007e84" stroke-linecap="round" stroke-linejoin="round" stroke-width="4"/>
      <line x1="224.19" y1="263.859" x2="244.641" y2="299.282" fill="none" stroke="#007e84" stroke-linecap="round" stroke-linejoin="round" stroke-width="4"/>
    </g>
    <g>
      <line x1="136.656" y1="45.559" x2="141.949" y2="65.313" fill="none" stroke="#007e84" stroke-linecap="round" stroke-linejoin="round" stroke-width="4"/>
      <line x1="198.051" y1="274.687" x2="203.344" y2="294.441" fill="none" stroke="#007e84" stroke-linecap="round" stroke-linejoin="round" stroke-width="4"/>
    </g>
    <g>
      <line x1="78.903" y1="78.903" x2="93.364" y2="93.364" fill="none" stroke="#007e84" stroke-linecap="round" stroke-linejoin="round" stroke-width="4"/>
      <line x1="246.636" y1="246.636" x2="261.097" y2="261.097" fill="none" stroke="#007e84" stroke-linecap="round" stroke-linejoin="round" stroke-width="4"/>
    </g>
    <g>
      <line x1="45.559" y1="136.656" x2="65.313" y2="141.949" fill="none" stroke="#007e84" stroke-linecap="round" stroke-linejoin="round" stroke-width="4"/>
      <line x1="274.687" y1="198.051" x2="294.441" y2="203.344" fill="none" stroke="#007e84" stroke-linecap="round" stroke-linejoin="round" stroke-width="4"/>
    </g>
    <g>
      <line x1="45.559" y1="203.344" x2="65.313" y2="198.051" fill="none" stroke="#007e84" stroke-linecap="round" stroke-linejoin="round" stroke-width="4"/>
      <line x1="274.687" y1="141.949" x2="294.441" y2="136.656" fill="none" stroke="#007e84" stroke-linecap="round" stroke-linejoin="round" stroke-width="4"/>
    </g>
    <g>
      <line x1="78.903" y1="261.097" x2="93.364" y2="246.636" fill="none" stroke="#007e84" stroke-linecap="round" stroke-linejoin="round" stroke-width="4"/>
      <line x1="246.636" y1="93.364" x2="261.097" y2="78.903" fill="none" stroke="#007e84" stroke-linecap="round" stroke-linejoin="round" stroke-width="4"/>
    </g>
    <g>
      <line x1="136.656" y1="294.441" x2="141.949" y2="274.687" fill="none" stroke="#007e84" stroke-linecap="round" stroke-linejoin="round" stroke-width="4"/>
      <line x1="198.051" y1="65.313" x2="203.344" y2="45.559" fill="none" stroke="#007e84" stroke-linecap="round" stroke-linejoin="round" stroke-width="4"/>
    </g>
    <g>
      <line x1="40.718" y1="95.359" x2="76.141" y2="115.81" fill="none" stroke="#007e84" stroke-linecap="round" stroke-linejoin="round" stroke-width="4"/>
      <line x1="263.859" y1="224.19" x2="299.282" y2="244.641" fill="none" stroke="#007e84" stroke-linecap="round" stroke-linejoin="round" stroke-width="4"/>
    </g>
    <g>
      <line x1="20.718" y1="170" x2="61.62" y2="170" fill="none" stroke="#007e84" stroke-linecap="round" stroke-linejoin="round" stroke-width="4"/>
      <line x1="278.38" y1="170" x2="319.282" y2="170" fill="none" stroke="#007e84" stroke-linecap="round" stroke-linejoin="round" stroke-width="4"/>
    </g>
    <g>
      <line x1="40.718" y1="244.641" x2="76.141" y2="224.19" fill="none" stroke="#007e84" stroke-linecap="round" stroke-linejoin="round" stroke-width="4"/>
      <line x1="263.859" y1="115.81" x2="299.282" y2="95.359" fill="none" stroke="#007e84" stroke-linecap="round" stroke-linejoin="round" stroke-width="4"/>
    </g>
    <g>
      <line x1="95.359" y1="299.282" x2="115.81" y2="263.859" fill="none" stroke="#007e84" stroke-linecap="round" stroke-linejoin="round" stroke-width="4"/>
      <line x1="224.19" y1="76.141" x2="244.641" y2="40.718" fill="none" stroke="#007e84" stroke-linecap="round" stroke-linejoin="round" stroke-width="4"/>
    </g>
    <g>
      <line x1="170" y1="319.282" x2="170" y2="278.38" fill="none" stroke="#007e84" stroke-linecap="round" stroke-linejoin="round" stroke-width="4"/>
      <line x1="170" y1="61.62" x2="170" y2="20.718" fill="none" stroke="#007e84" stroke-linecap="round" stroke-linejoin="round" stroke-width="4"/>
    </g>
  </g>
  <path d="M220.93,118.943l-1.965-20.024,19.641,2.755-8.097,7.911c15.309,15.333,24.775,36.5,24.775,59.879,0,46.805-37.943,84.748-84.748,84.748s-84.748-37.943-84.748-84.748,37.943-84.748,84.748-84.748c7.455,0,14.685.963,21.573,2.77l-59.593,93.754h34.471l-14.518,54.182,53.975-73.188-34.394.112,6.66-24.856" fill="none" stroke="#007e84" stroke-linecap="round" stroke-linejoin="round" stroke-width="4"/>
</svg>