<?xml version="1.0" encoding="UTF-8"?>
<svg id="a" data-name="Laag 1" xmlns="http://www.w3.org/2000/svg" width="340" height="340" viewBox="0 0 340 340">
  <g>
    <path d="M170.037,188.455h-24.247c10.772-24.756,10.772-41.181,10.772-41.181" fill="none" stroke="#007e84" stroke-linecap="round" stroke-linejoin="round" stroke-width="4"/>
    <path d="M113.945,147.274s9.54-7.073,21.308-7.073,21.308,7.073,21.308,7.073" fill="none" stroke="#007e84" stroke-linecap="round" stroke-linejoin="round" stroke-width="4"/>
    <path d="M185.667,147.274s8.827-7.073,19.715-7.073,19.715,7.073,19.715,7.073" fill="none" stroke="#007e84" stroke-linecap="round" stroke-linejoin="round" stroke-width="4"/>
    <path d="M150.322,214.868s7.228,5.942,19.715,5.942c12.267,0,19.715-5.942,19.715-5.942" fill="none" stroke="#007e84" stroke-linecap="round" stroke-linejoin="round" stroke-width="4"/>
  </g>
  <g>
    <g>
      <line x1="95.359" y1="40.718" x2="115.81" y2="76.141" fill="none" stroke="#007e84" stroke-linecap="round" stroke-linejoin="round" stroke-width="4"/>
      <line x1="224.19" y1="263.859" x2="244.641" y2="299.282" fill="none" stroke="#007e84" stroke-linecap="round" stroke-linejoin="round" stroke-width="4"/>
    </g>
    <g>
      <line x1="136.656" y1="45.559" x2="141.949" y2="65.313" fill="none" stroke="#007e84" stroke-linecap="round" stroke-linejoin="round" stroke-width="4"/>
      <line x1="198.051" y1="274.687" x2="203.344" y2="294.441" fill="none" stroke="#007e84" stroke-linecap="round" stroke-linejoin="round" stroke-width="4"/>
    </g>
    <g>
      <line x1="78.903" y1="78.903" x2="93.364" y2="93.364" fill="none" stroke="#007e84" stroke-linecap="round" stroke-linejoin="round" stroke-width="4"/>
      <line x1="246.636" y1="246.636" x2="261.097" y2="261.097" fill="none" stroke="#007e84" stroke-linecap="round" stroke-linejoin="round" stroke-width="4"/>
    </g>
    <g>
      <line x1="45.559" y1="136.656" x2="65.313" y2="141.949" fill="none" stroke="#007e84" stroke-linecap="round" stroke-linejoin="round" stroke-width="4"/>
      <line x1="274.687" y1="198.051" x2="294.441" y2="203.344" fill="none" stroke="#007e84" stroke-linecap="round" stroke-linejoin="round" stroke-width="4"/>
    </g>
    <g>
      <line x1="45.559" y1="203.344" x2="65.313" y2="198.051" fill="none" stroke="#007e84" stroke-linecap="round" stroke-linejoin="round" stroke-width="4"/>
      <line x1="274.687" y1="141.949" x2="294.441" y2="136.656" fill="none" stroke="#007e84" stroke-linecap="round" stroke-linejoin="round" stroke-width="4"/>
    </g>
    <g>
      <line x1="78.903" y1="261.097" x2="93.364" y2="246.636" fill="none" stroke="#007e84" stroke-linecap="round" stroke-linejoin="round" stroke-width="4"/>
      <line x1="246.636" y1="93.364" x2="261.097" y2="78.903" fill="none" stroke="#007e84" stroke-linecap="round" stroke-linejoin="round" stroke-width="4"/>
    </g>
    <g>
      <line x1="136.656" y1="294.441" x2="141.949" y2="274.687" fill="none" stroke="#007e84" stroke-linecap="round" stroke-linejoin="round" stroke-width="4"/>
      <line x1="198.051" y1="65.313" x2="203.344" y2="45.559" fill="none" stroke="#007e84" stroke-linecap="round" stroke-linejoin="round" stroke-width="4"/>
    </g>
    <g>
      <line x1="40.718" y1="95.359" x2="76.141" y2="115.81" fill="none" stroke="#007e84" stroke-linecap="round" stroke-linejoin="round" stroke-width="4"/>
      <line x1="263.859" y1="224.19" x2="299.282" y2="244.641" fill="none" stroke="#007e84" stroke-linecap="round" stroke-linejoin="round" stroke-width="4"/>
    </g>
    <g>
      <line x1="20.718" y1="170" x2="61.62" y2="170" fill="none" stroke="#007e84" stroke-linecap="round" stroke-linejoin="round" stroke-width="4"/>
      <line x1="278.38" y1="170" x2="319.282" y2="170" fill="none" stroke="#007e84" stroke-linecap="round" stroke-linejoin="round" stroke-width="4"/>
    </g>
    <g>
      <line x1="40.718" y1="244.641" x2="76.141" y2="224.19" fill="none" stroke="#007e84" stroke-linecap="round" stroke-linejoin="round" stroke-width="4"/>
      <line x1="263.859" y1="115.81" x2="299.282" y2="95.359" fill="none" stroke="#007e84" stroke-linecap="round" stroke-linejoin="round" stroke-width="4"/>
    </g>
    <g>
      <line x1="95.359" y1="299.282" x2="115.81" y2="263.859" fill="none" stroke="#007e84" stroke-linecap="round" stroke-linejoin="round" stroke-width="4"/>
      <line x1="224.19" y1="76.141" x2="244.641" y2="40.718" fill="none" stroke="#007e84" stroke-linecap="round" stroke-linejoin="round" stroke-width="4"/>
    </g>
    <g>
      <line x1="170" y1="319.282" x2="170" y2="278.38" fill="none" stroke="#007e84" stroke-linecap="round" stroke-linejoin="round" stroke-width="4"/>
      <line x1="170" y1="61.62" x2="170" y2="20.718" fill="none" stroke="#007e84" stroke-linecap="round" stroke-linejoin="round" stroke-width="4"/>
    </g>
  </g>
  <path d="M170.057,87.067c-44.281-.105-81.627,34.21-84.652,79.023-3.152,46.687,32.14,87.09,78.827,90.242v-.008c46.688,3.152,87.09-32.14,90.242-78.827,2.266-33.557-15.33-63.867-42.742-79.432l5.688-9.785-19.663,2.593,7.244,18.771" fill="none" stroke="#007e84" stroke-linecap="round" stroke-linejoin="round" stroke-width="4"/>
</svg>