<?xml version="1.0" encoding="UTF-8"?>
<svg id="b" data-name="Laag 2" xmlns="http://www.w3.org/2000/svg" width="100mm" height="100mm" viewBox="0 0 283.465 283.465">
  <path d="M172.385,131.552h-24.849l16.009-44.331c.333-.921-.05-1.947-.904-2.425-.854-.477-1.928-.268-2.54.497l-50.584,63.371c-.479.601-.572,1.423-.238,2.115.333.692,1.033,1.133,1.802,1.133h24.849l-16.011,44.332c-.086.236-.124.479-.119.716.015.805.519,1.555,1.32,1.845.225.081.454.12.68.12.053,0,.105-.003.158-.007.062-.005.125-.013.187-.023.468-.082.905-.329,1.221-.723l50.584-63.372c.479-.601.572-1.423.238-2.115-.333-.692-1.033-1.133-1.802-1.133ZM127.798,186.204l4.421-12.24,8.441-23.372h-.002c.17-.471.152-.964-.014-1.396-.032-.084-.07-.166-.114-.246-.22-.4-.575-.727-1.032-.902-.032-.013-.065-.024-.099-.036-.222-.072-.467-.097-.668-.099h-23.496l40.433-50.651-12.861,35.611c-.222.613-.131,1.296.244,1.829.374.533.985.851,1.637.851h23.542l-40.432,50.652Z" fill="#007e84"/>
  <path d="M141.733,66.369c-41.556,0-75.363,33.808-75.363,75.363s33.808,75.362,75.363,75.362,75.362-33.808,75.362-75.362-33.808-75.363-75.362-75.363ZM141.733,213.095c-39.35,0-71.363-32.013-71.363-71.362s32.014-71.363,71.363-71.363,71.362,32.014,71.362,71.363-32.013,71.362-71.362,71.362Z" fill="#007e84"/>
  <path d="M95.306,65.321c.371.642,1.043,1,1.734,1,.339,0,.683-.086.998-.268.957-.553,1.284-1.775.732-2.732l-16.867-29.216c-.554-.956-1.774-1.286-2.732-.732-.957.553-1.284,1.775-.732,2.732l16.867,29.216Z" fill="#007e84"/>
  <path d="M188.159,218.144c-.554-.958-1.774-1.287-2.732-.732-.957.553-1.284,1.775-.732,2.732l16.867,29.216c.371.642,1.043,1,1.734,1,.339,0,.683-.086.998-.268.957-.553,1.284-1.775.732-2.732l-16.867-29.216Z" fill="#007e84"/>
  <path d="M116.665,55.909c.239.894,1.047,1.483,1.931,1.483.171,0,.346-.022.519-.069,1.067-.286,1.7-1.383,1.414-2.449l-4.365-16.292c-.285-1.066-1.381-1.704-2.449-1.414-1.067.286-1.7,1.382-1.414,2.449l4.365,16.292Z" fill="#007e84"/>
  <path d="M166.799,227.557c-.286-1.067-1.386-1.704-2.449-1.414-1.067.286-1.7,1.383-1.414,2.449l4.365,16.292c.239.894,1.047,1.483,1.931,1.483.171,0,.346-.022.519-.069,1.067-.286,1.7-1.382,1.414-2.449l-4.365-16.292Z" fill="#007e84"/>
  <path d="M77.112,79.94c.391.391.902.586,1.414.586s1.023-.195,1.414-.586c.781-.781.781-2.047,0-2.828l-11.927-11.927c-.781-.781-2.047-.781-2.828,0s-.781,2.047,0,2.828l11.927,11.927Z" fill="#007e84"/>
  <path d="M206.353,203.525c-.781-.781-2.047-.781-2.828,0s-.781,2.047,0,2.828l11.927,11.927c.391.391.902.586,1.414.586s1.023-.195,1.414-.586c.781-.781.781-2.047,0-2.828l-11.927-11.927Z" fill="#007e84"/>
  <path d="M55.909,116.665l-16.293-4.365c-1.068-.285-2.164.348-2.449,1.414-.286,1.067.347,2.164,1.414,2.449l16.293,4.365c.174.047.348.069.519.069.883,0,1.691-.59,1.931-1.483.286-1.067-.347-2.164-1.414-2.449Z" fill="#007e84"/>
  <path d="M226.142,164.35c-.286,1.067.347,2.164,1.414,2.449l16.293,4.365c.174.047.348.069.519.069.883,0,1.691-.59,1.931-1.483.286-1.067-.347-2.164-1.414-2.449l-16.293-4.365c-1.068-.288-2.164.348-2.449,1.414Z" fill="#007e84"/>
  <path d="M54.873,162.936l-16.293,4.365c-1.067.285-1.7,1.382-1.414,2.449.239.894,1.047,1.483,1.931,1.483.171,0,.345-.022.519-.069l16.293-4.365c1.067-.285,1.7-1.382,1.414-2.449-.286-1.066-1.38-1.706-2.449-1.414Z" fill="#007e84"/>
  <path d="M246.298,113.714c-.286-1.066-1.379-1.707-2.449-1.414l-16.293,4.365c-1.067.285-1.7,1.382-1.414,2.449.239.894,1.047,1.483,1.931,1.483.171,0,.345-.022.519-.069l16.293-4.365c1.067-.285,1.7-1.382,1.414-2.449Z" fill="#007e84"/>
  <path d="M79.94,203.525c-.781-.781-2.047-.781-2.828,0l-11.927,11.927c-.781.781-.781,2.047,0,2.828.391.391.902.586,1.414.586s1.023-.195,1.414-.586l11.927-11.927c.781-.781.781-2.047,0-2.828Z" fill="#007e84"/>
  <path d="M203.525,79.94c.391.391.902.586,1.414.586s1.023-.195,1.414-.586l11.927-11.927c.781-.781.781-2.047,0-2.828s-2.047-.781-2.828,0l-11.927,11.927c-.781.781-.781,2.047,0,2.828Z" fill="#007e84"/>
  <path d="M119.115,226.143c-1.069-.285-2.164.348-2.449,1.414l-4.365,16.292c-.286,1.067.347,2.163,1.414,2.449.174.047.348.069.519.069.883,0,1.691-.59,1.931-1.483l4.365-16.292c.286-1.066-.347-2.163-1.414-2.449Z" fill="#007e84"/>
  <path d="M164.35,57.323c.174.047.348.069.519.069.883,0,1.691-.59,1.931-1.483l4.365-16.292c.286-1.067-.347-2.163-1.414-2.449-1.072-.285-2.163.348-2.449,1.414l-4.365,16.292c-.286,1.066.347,2.163,1.414,2.449Z" fill="#007e84"/>
  <path d="M34.105,81.904l29.216,16.867c.315.182.659.268.998.268.691,0,1.363-.358,1.734-1,.552-.957.225-2.18-.732-2.732l-29.216-16.867c-.96-.553-2.18-.225-2.732.732-.552.957-.225,2.18.732,2.732Z" fill="#007e84"/>
  <path d="M249.36,201.562l-29.216-16.868c-.96-.553-2.18-.225-2.732.732-.552.957-.225,2.18.732,2.732l29.216,16.868c.315.182.659.268.998.268.691,0,1.363-.358,1.734-1,.552-.957.225-2.18-.732-2.732Z" fill="#007e84"/>
  <path d="M54.345,141.733c0-1.104-.896-2-2-2H18.61c-1.104,0-2,.896-2,2s.896,2,2,2h33.735c1.104,0,2-.896,2-2Z" fill="#007e84"/>
  <path d="M264.855,139.733h-33.735c-1.104,0-2,.896-2,2s.896,2,2,2h33.735c1.104,0,2-.896,2-2s-.896-2-2-2Z" fill="#007e84"/>
  <path d="M66.053,185.426c-.554-.957-1.776-1.285-2.732-.732l-29.216,16.868c-.957.553-1.284,1.775-.732,2.732.371.642,1.043,1,1.734,1,.339,0,.684-.086.998-.268l29.216-16.868c.957-.553,1.284-1.775.732-2.732Z" fill="#007e84"/>
  <path d="M217.411,98.038c.371.642,1.043,1,1.734,1,.339,0,.683-.086.998-.268l29.216-16.867c.957-.553,1.284-1.775.732-2.732-.554-.957-1.774-1.285-2.732-.732l-29.216,16.867c-.957.553-1.284,1.775-.732,2.732Z" fill="#007e84"/>
  <path d="M98.038,217.411c-.96-.555-2.18-.226-2.732.732l-16.867,29.216c-.552.957-.225,2.18.732,2.732.315.182.659.268.998.268.691,0,1.363-.358,1.734-1l16.867-29.216c.552-.957.225-2.18-.732-2.732Z" fill="#007e84"/>
  <path d="M185.426,66.053c.315.182.659.268.998.268.691,0,1.363-.358,1.734-1l16.867-29.216c.552-.957.225-2.18-.732-2.732-.96-.554-2.18-.224-2.732.732l-16.867,29.216c-.552.957-.225,2.18.732,2.732Z" fill="#007e84"/>
  <path d="M141.733,229.119c-1.104,0-2,.896-2,2v33.735c0,1.104.896,2,2,2s2-.896,2-2v-33.735c0-1.104-.896-2-2-2Z" fill="#007e84"/>
  <path d="M141.733,54.345c1.104,0,2-.896,2-2V18.61c0-1.104-.896-2-2-2s-2,.896-2,2v33.735c0,1.104.896,2,2,2Z" fill="#007e84"/>
</svg>