<?xml version="1.0" encoding="UTF-8"?>
<svg id="a" data-name="Laag 1" xmlns="http://www.w3.org/2000/svg" width="2000" height="2000" viewBox="0 0 2000 2000">
  <polygon points="2000 0 0 0 0 2000 2.036 2000 2.036 233.224 32.87 1999.731 36.939 1999.66 6.104 233.125 67.765 1998.853 71.833 1998.711 10.173 232.999 102.64 1997.366 106.705 1997.153 14.239 232.805 137.482 1995.27 141.543 1994.986 18.297 232.483 172.284 1992.567 176.339 1992.212 22.352 232.132 207.033 1989.257 211.081 1988.831 26.402 231.731 241.718 1985.341 245.759 1984.845 30.443 231.236 276.331 1980.819 280.361 1980.253 34.472 230.66 310.859 1975.695 314.879 1975.059 38.493 230.023 345.292 1969.969 349.3 1969.262 42.498 229.301 379.621 1963.643 383.616 1962.866 46.498 228.543 413.833 1956.719 417.814 1955.872 50.479 227.699 447.919 1949.198 451.885 1948.282 54.443 226.77 481.869 1941.084 485.818 1940.099 58.392 225.786 515.672 1932.379 519.604 1931.325 62.327 224.744 549.318 1923.084 553.231 1921.962 66.245 223.641 582.797 1913.205 586.689 1912.015 70.13 222.423 616.099 1902.742 619.97 1901.484 74.007 221.184 649.212 1891.7 653.061 1890.375 77.858 219.865 682.127 1880.082 685.953 1878.689 81.677 218.456 714.836 1867.891 718.636 1866.432 85.485 217.016 747.326 1855.131 751.101 1853.605 89.254 215.478 779.589 1841.805 783.336 1840.214 93.002 213.89 811.614 1827.919 815.332 1826.263 96.715 212.222 843.392 1813.476 847.081 1811.756 100.411 210.517 874.913 1798.48 878.571 1796.696 104.059 208.709 906.168 1782.937 909.794 1781.089 107.697 206.886 937.146 1766.851 940.74 1764.94 111.278 204.95 967.839 1750.227 971.399 1748.253 114.849 202.996 998.237 1733.069 1001.763 1731.033 118.37 200.953 1028.332 1715.383 1031.821 1713.287 121.851 198.843 1058.112 1697.175 1061.564 1695.018 125.314 196.704 1087.571 1678.45 1090.985 1676.233 128.721 194.477 1116.698 1659.213 1120.073 1656.937 132.097 192.203 1145.486 1639.472 1148.82 1637.137 135.43 189.866 1173.924 1619.23 1177.217 1616.838 138.734 187.488 1202.004 1598.497 1205.255 1596.046 141.988 185.043 1229.719 1577.275 1232.927 1574.769 145.183 182.52 1257.059 1555.573 1260.222 1553.011 148.35 179.963 1284.016 1533.397 1287.134 1530.781 151.461 177.339 1310.583 1510.755 1313.654 1508.084 154.543 174.679 1336.749 1487.652 1339.774 1484.928 157.562 171.949 1362.508 1464.096 1365.485 1461.32 160.537 169.172 1387.853 1440.094 1390.781 1437.266 163.469 166.348 1412.774 1415.653 1415.652 1412.775 166.346 163.468 1437.265 1390.781 1440.093 1387.853 169.173 160.539 1461.32 1365.486 1464.095 1362.509 171.948 157.562 1484.927 1339.774 1487.652 1336.749 174.68 154.543 1508.084 1313.655 1510.754 1310.583 177.332 151.456 1530.781 1287.135 1533.396 1284.016 179.964 148.352 1553.01 1260.223 1555.572 1257.06 182.508 145.174 1574.768 1232.927 1577.274 1229.719 185.012 141.965 1596.046 1205.256 1598.496 1202.005 187.474 138.724 1616.837 1177.217 1619.23 1173.924 189.87 135.434 1637.136 1148.82 1639.471 1145.486 192.194 132.092 1656.937 1120.073 1659.212 1116.698 194.48 128.724 1676.233 1090.985 1678.45 1087.572 196.709 125.318 1695.017 1061.565 1697.174 1058.113 198.849 121.855 1713.287 1031.821 1715.382 1028.332 200.96 118.375 1731.033 1001.763 1733.068 998.238 202.974 114.837 1748.253 971.399 1750.226 967.839 204.962 111.285 1764.94 940.74 1766.85 937.146 206.866 107.688 1781.089 909.795 1782.937 906.168 208.697 104.053 1796.697 878.571 1798.481 874.913 210.529 100.417 1811.755 847.082 1813.476 843.392 212.24 96.723 1826.263 815.333 1827.919 811.614 213.893 93.003 1840.214 783.336 1841.804 779.589 215.466 89.249 1853.605 751.101 1855.13 747.326 217.007 85.481 1866.431 718.636 1867.89 714.836 218.451 81.676 1878.689 685.953 1880.082 682.128 219.846 77.852 1890.375 653.061 1891.7 649.212 221.167 74.001 1901.484 619.97 1902.742 616.099 222.41 70.126 1912.015 586.689 1913.205 582.797 223.604 66.235 1921.962 553.231 1923.084 549.318 224.73 62.323 1931.326 519.604 1932.379 515.673 225.791 58.394 1940.099 485.819 1941.083 481.869 226.781 54.445 1948.282 451.885 1949.198 447.919 227.698 50.48 1955.873 417.814 1956.718 413.833 228.555 46.5 1962.866 383.616 1963.642 379.62 229.316 42.501 1969.262 349.301 1969.969 345.292 230.027 38.494 1975.058 314.879 1975.695 310.858 230.671 34.474 1980.252 280.362 1980.819 276.331 231.243 30.444 1984.844 245.759 1985.34 241.719 231.735 26.403 1988.831 211.081 1989.256 207.033 232.152 22.354 1992.212 176.339 1992.567 172.284 232.506 18.299 1994.987 141.543 1995.27 137.482 232.8 14.239 1997.153 106.705 1997.366 102.64 233.013 10.174 1998.71 71.833 1998.853 67.765 233.133 6.105 1999.661 36.939 1999.732 32.87 233.21 2.036 2000 2.036 2000 0" fill="#fcc200"/>
</svg>