<?xml version="1.0" encoding="UTF-8" standalone="no"?>
<!-- Created with Inkscape (http://www.inkscape.org/) -->

<svg
   width="400mm"
   height="200mm"
   viewBox="0 0 400 200"
   version="1.1"
   id="svg1"
   inkscape:version="1.4.2 (f4327f4, 2025-05-13)"
   sodipodi:docname="sunbeams-gradient-full-middle-360.svg"
   xmlns:inkscape="http://www.inkscape.org/namespaces/inkscape"
   xmlns:sodipodi="http://sodipodi.sourceforge.net/DTD/sodipodi-0.dtd"
   xmlns:xlink="http://www.w3.org/1999/xlink"
   xmlns="http://www.w3.org/2000/svg"
   xmlns:svg="http://www.w3.org/2000/svg">
  <sodipodi:namedview
     id="namedview1"
     pagecolor="#ffffff"
     bordercolor="#000000"
     borderopacity="0.25"
     inkscape:showpageshadow="2"
     inkscape:pageopacity="0.0"
     inkscape:pagecheckerboard="0"
     inkscape:deskcolor="#d1d1d1"
     inkscape:document-units="mm"
     inkscape:zoom="2.1543544"
     inkscape:cx="743.84234"
     inkscape:cy="380.1603"
     inkscape:window-width="3840"
     inkscape:window-height="2054"
     inkscape:window-x="-11"
     inkscape:window-y="-11"
     inkscape:window-maximized="1"
     inkscape:current-layer="layer1" />
  <defs
     id="defs1">
    <linearGradient
       id="linearGradient1"
       inkscape:collect="always">
      <stop
         style="stop-color:#fcc200;stop-opacity:1;"
         offset="0"
         id="stop1" />
      <stop
         style="stop-color:#fcc200;stop-opacity:1;"
         offset="0.24778761"
         id="stop3" />
      <stop
         style="stop-color:#fcc200;stop-opacity:0.05;"
         offset="1"
         id="stop2" />
    </linearGradient>
    <radialGradient
       inkscape:collect="always"
       xlink:href="#linearGradient1"
       id="radialGradient2"
       cx="96.285614"
       cy="95.794357"
       fx="96.285614"
       fy="95.794357"
       r="100.24953"
       gradientUnits="userSpaceOnUse" />
  </defs>
  <g
     inkscape:label="Layer 1"
     inkscape:groupmode="layer"
     id="layer1">
    <path
       sodipodi:type="star"
       style="fill:#4d4d4d;stroke:url(#radialGradient2);stroke-width:0.264999"
       id="path1"
       inkscape:flatsided="false"
       sodipodi:sides="360"
       sodipodi:cx="96.285614"
       sodipodi:cy="95.794357"
       sodipodi:r1="100.25032"
       sodipodi:r2="0"
       sodipodi:arg1="0.91308397"
       sodipodi:arg2="0.92181062"
       inkscape:rounded="0"
       inkscape:randomized="0"
       d="M 157.56944,175.13173 96.285614,95.794357 156.17548,176.1892 96.285614,95.794357 154.76327,177.22218 96.285614,95.794357 153.33325,178.23035 96.285614,95.794357 151.88586,179.21342 96.285614,95.794357 150.42153,180.17107 96.285614,95.794357 148.94071,181.10302 96.285614,95.794357 147.44385,182.00899 96.285614,95.794357 145.9314,182.88869 96.285614,95.794357 144.40383,183.74186 96.285614,95.794357 142.86161,184.56825 96.285614,95.794357 141.3052,185.36759 96.285614,95.794357 139.73507,186.13965 96.285614,95.794357 138.15171,186.88418 96.285614,95.794357 136.5556,187.60097 96.285614,95.794357 134.94722,188.2898 96.285614,95.794357 133.32706,188.95045 96.285614,95.794357 131.69562,189.58273 96.285614,95.794357 130.0534,190.18643 96.285614,95.794357 128.40089,190.76138 96.285614,95.794357 126.73859,191.30741 96.285614,95.794357 125.06702,191.82434 96.285614,95.794357 123.38668,192.31202 96.285614,95.794357 121.69809,192.7703 96.285614,95.794357 120.00176,193.19904 96.285614,95.794357 118.2982,193.5981 96.285614,95.794357 116.58793,193.96738 96.285614,95.794357 114.87149,194.30675 96.285614,95.794357 113.14938,194.61612 96.285614,95.794357 111.42213,194.89538 96.285614,95.794357 109.69028,195.14445 96.285614,95.794357 107.95434,195.36327 96.285614,95.794357 106.21484,195.55175 96.285614,95.794357 104.47232,195.70984 96.285614,95.794357 102.72731,195.8375 96.285614,95.794357 100.98034,195.93469 96.285614,95.794357 99.23193,196.00137 96.285614,95.794357 97.482628,196.03753 96.285614,95.794357 95.732961,196.04315 96.285614,95.794357 93.983462,196.01824 96.285614,95.794357 92.234665,195.9628 96.285614,95.794357 90.487102,195.87684 96.285614,95.794357 88.741305,195.7604 96.285614,95.794357 86.997806,195.61351 96.285614,95.794357 85.257136,195.43621 96.285614,95.794357 83.519825,195.22856 96.285614,95.794357 81.786403,194.99063 96.285614,95.794357 80.057398,194.72247 96.285614,95.794357 78.333336,194.42418 96.285614,95.794357 76.614742,194.09585 96.285614,95.794357 74.902141,193.73757 96.285614,95.794357 73.196053,193.34946 96.285614,95.794357 71.496998,192.93164 96.285614,95.794357 69.805494,192.48422 96.285614,95.794357 68.122056,192.00735 96.285614,95.794357 66.447198,191.50118 96.285614,95.794357 64.781428,190.96585 96.285614,95.794357 63.125254,190.40153 96.285614,95.794357 61.479182,189.80839 96.285614,95.794357 59.843712,189.18662 96.285614,95.794357 58.219343,188.5364 96.285614,95.794357 56.606569,187.85792 96.285614,95.794357 55.005881,187.15141 96.285614,95.794357 53.417768,186.41706 96.285614,95.794357 51.842713,185.65511 96.285614,95.794357 50.281195,184.86579 96.285614,95.794357 48.733691,184.04934 96.285614,95.794357 47.200672,183.206 96.285614,95.794357 45.682604,182.33604 96.285614,95.794357 44.17995,181.43971 96.285614,95.794357 42.693169,180.5173 96.285614,95.794357 41.222712,179.56908 96.285614,95.794357 39.769028,178.59534 96.285614,95.794357 38.332559,177.59638 96.285614,95.794357 36.913744,176.5725 96.285614,95.794357 35.513014,175.52401 96.285614,95.794357 34.130795,174.45124 96.285614,95.794357 32.76751,173.35451 96.285614,95.794357 31.423573,172.23415 96.285614,95.794357 30.099393,171.09051 96.285614,95.794357 28.795374,169.92394 96.285614,95.794357 27.511914,168.73478 96.285614,95.794357 26.249403,167.5234 96.285614,95.794357 25.008225,166.29018 96.285614,95.794357 23.788759,165.03548 96.285614,95.794357 22.591377,163.75969 96.285614,95.794357 21.416442,162.46319 96.285614,95.794357 20.264313,161.14639 96.285614,95.794357 19.135342,159.80969 96.285614,95.794357 18.02987,158.45348 96.285614,95.794357 16.948237,157.07818 96.285614,95.794357 15.89077,155.68422 96.285614,95.794357 14.857792,154.27202 96.285614,95.794357 13.849618,152.842 96.285614,95.794357 12.866555,151.3946 96.285614,95.794357 11.908902,149.93027 96.285614,95.794357 10.976951,148.44945 96.285614,95.794357 10.070986,146.95259 96.285614,95.794357 9.1912825,145.44014 96.285614,95.794357 8.3381089,143.91258 96.285614,95.794357 7.511725,142.37035 96.285614,95.794357 6.7123825,140.81394 96.285614,95.794357 5.9403249,139.24382 96.285614,95.794357 5.1957873,137.66046 96.285614,95.794357 4.4789965,136.06434 96.285614,95.794357 3.790171,134.45596 96.285614,95.794357 3.1295204,132.83581 96.285614,95.794357 2.4972461,131.20437 96.285614,95.794357 1.8935407,129.56214 96.285614,95.794357 1.3185879,127.90963 96.285614,95.794357 0.77256309,126.24733 96.285614,95.794357 0.25563244,124.57576 96.285614,95.794357 -0.23204654,122.89543 96.285614,95.794357 -0.6903253,121.20683 96.285614,95.794357 -1.1190643,119.5105 96.285614,95.794357 -1.5181328,117.80694 96.285614,95.794357 -1.8874094,116.09668 96.285614,95.794357 -2.2267815,114.38023 96.285614,95.794357 -2.5361458,112.65812 96.285614,95.794357 -2.815408,110.93088 96.285614,95.794357 -3.0644831,109.19902 96.285614,95.794357 -3.2832952,107.46308 96.285614,95.794357 -3.4717777,105.72358 96.285614,95.794357 -3.629873,103.98107 96.285614,95.794357 -3.7575332,102.23605 96.285614,95.794357 -3.8547192,100.48908 96.285614,95.794357 -3.9214016,98.740673 96.285614,95.794357 -3.9575598,96.991371 96.285614,95.794357 -3.9631831,95.241704 96.285614,95.794357 -3.9382696,93.492206 96.285614,95.794357 -3.8828269,91.743408 96.285614,95.794357 -3.796872,89.995845 96.285614,95.794357 -3.6804309,88.250048 96.285614,95.794357 -3.5335393,86.506549 96.285614,95.794357 -3.3562417,84.765879 96.285614,95.794357 -3.1485923,83.028569 96.285614,95.794357 -2.9106543,81.295147 96.285614,95.794357 -2.6425001,79.566141 96.285614,95.794357 -2.3442114,77.842079 96.285614,95.794357 -2.0158792,76.123486 96.285614,95.794357 -1.6576033,74.410884 96.285614,95.794357 -1.269493,72.704796 96.285614,95.794357 -0.85166651,71.005741 96.285614,95.794357 -0.40425103,69.314238 96.285614,95.794357 0.07261712,67.6308 96.285614,95.794357 0.57879267,65.955941 96.285614,95.794357 1.1141215,64.290171 96.285614,95.794357 1.6784404,62.633998 96.285614,95.794357 2.2715776,60.987925 96.285614,95.794357 2.8933524,59.352455 96.285614,95.794357 3.5435754,57.728086 96.285614,95.794357 4.2220485,56.115312 96.285614,95.794357 4.928565,54.514624 96.285614,95.794357 5.6629098,52.926511 96.285614,95.794357 6.4248592,51.351456 96.285614,95.794357 7.214181,49.789938 96.285614,95.794357 8.0306348,48.242434 96.285614,95.794357 8.873972,46.709415 96.285614,95.794357 9.7439355,45.191347 96.285614,95.794357 10.640261,43.688694 96.285614,95.794357 11.562674,42.201912 96.285614,95.794357 12.510895,40.731455 96.285614,95.794357 13.484634,39.277771 96.285614,95.794357 14.483596,37.841303 96.285614,95.794357 15.507475,36.422487 96.285614,95.794357 16.55596,35.021757 96.285614,95.794357 17.628731,33.639538 96.285614,95.794357 18.725462,32.276253 96.285614,95.794357 19.845819,30.932316 96.285614,95.794357 20.989459,29.608136 96.285614,95.794357 22.156036,28.304118 96.285614,95.794357 23.345194,27.020657 96.285614,95.794357 24.556569,25.758146 96.285614,95.794357 25.789794,24.516968 96.285614,95.794357 27.044493,23.297503 96.285614,95.794357 28.320284,22.10012 96.285614,95.794357 29.616777,20.925185 96.285614,95.794357 30.933578,19.773057 96.285614,95.794357 32.270286,18.644085 96.285614,95.794357 33.626494,17.538614 96.285614,95.794357 35.001788,16.45698 96.285614,95.794357 36.39575,15.399513 96.285614,95.794357 37.807955,14.366535 96.285614,95.794357 39.237973,13.358361 96.285614,95.794357 40.685368,12.375298 96.285614,95.794357 42.1497,11.417645 96.285614,95.794357 43.630522,10.485694 96.285614,95.794357 45.127383,9.5797291 96.285614,95.794357 46.639827,8.7000258 96.285614,95.794357 48.167394,7.8468522 96.285614,95.794357 49.709618,7.0204683 96.285614,95.794357 51.26603,6.2211258 96.285614,95.794357 52.836155,5.4490682 96.285614,95.794357 54.419515,4.7045306 96.285614,95.794357 56.015628,3.9877398 96.285614,95.794357 57.624008,3.2989143 96.285614,95.794357 59.244165,2.6382637 96.285614,95.794357 60.875604,2.0059894 96.285614,95.794357 62.51783,1.4022839 96.285614,95.794357 64.170342,0.82733122 96.285614,95.794357 65.832636,0.28130637 96.285614,95.794357 67.504207,-0.23562427 96.285614,95.794357 69.184545,-0.72330325 96.285614,95.794357 70.873138,-1.181582 96.285614,95.794357 72.569472,-1.610321 96.285614,95.794357 74.27303,-2.0093895 96.285614,95.794357 75.983293,-2.3786661 96.285614,95.794357 77.699741,-2.7180382 96.285614,95.794357 79.42185,-3.0274025 96.285614,95.794357 81.149096,-3.3066647 96.285614,95.794357 82.880953,-3.5557398 96.285614,95.794357 84.616893,-3.7745519 96.285614,95.794357 86.356387,-3.9630344 96.285614,95.794357 88.098906,-4.1211298 96.285614,95.794357 89.843918,-4.2487899 96.285614,95.794357 91.590893,-4.3459759 96.285614,95.794357 93.339298,-4.4126583 96.285614,95.794357 95.0886,-4.4488166 96.285614,95.794357 96.838267,-4.4544398 96.285614,95.794357 98.587766,-4.4295263 96.285614,95.794357 100.33656,-4.3740836 96.285614,95.794357 102.08413,-4.2881287 96.285614,95.794357 103.82992,-4.1716876 96.285614,95.794357 105.57342,-4.024796 96.285614,95.794357 107.31409,-3.8474984 96.285614,95.794357 109.0514,-3.639849 96.285614,95.794357 110.78482,-3.401911 96.285614,95.794357 112.51383,-3.1337568 96.285614,95.794357 114.23789,-2.8354681 96.285614,95.794357 115.95649,-2.5071359 96.285614,95.794357 117.66909,-2.14886 96.285614,95.794357 119.37518,-1.7607497 96.285614,95.794357 121.07423,-1.3429232 96.285614,95.794357 122.76573,-0.89550775 96.285614,95.794357 124.44917,-0.4186396 96.285614,95.794357 126.12403,0.08753596 96.285614,95.794357 127.7898,0.62286474 96.285614,95.794357 129.44597,1.1871837 96.285614,95.794357 131.09205,1.7803209 96.285614,95.794357 132.72752,2.4020957 96.285614,95.794357 134.35189,3.0523187 96.285614,95.794357 135.96466,3.7307918 96.285614,95.794357 137.56535,4.4373083 96.285614,95.794357 139.15346,5.1716531 96.285614,95.794357 140.72852,5.9336025 96.285614,95.794357 142.29003,6.7229243 96.285614,95.794357 143.83754,7.5393781 96.285614,95.794357 145.37056,8.3827152 96.285614,95.794357 146.88862,9.2526788 96.285614,95.794357 148.39128,10.149004 96.285614,95.794357 149.87806,11.071417 96.285614,95.794357 151.34852,12.019638 96.285614,95.794357 152.8022,12.993378 96.285614,95.794357 154.23867,13.992339 96.285614,95.794357 155.65748,15.016218 96.285614,95.794357 157.05821,16.064703 96.285614,95.794357 158.44043,17.137474 96.285614,95.794357 159.80372,18.234205 96.285614,95.794357 161.14766,19.354562 96.285614,95.794357 162.47184,20.498203 96.285614,95.794357 163.77585,21.66478 96.285614,95.794357 165.05931,22.853937 96.285614,95.794357 166.32183,24.065313 96.285614,95.794357 167.563,25.298538 96.285614,95.794357 168.78247,26.553237 96.285614,95.794357 169.97985,27.829027 96.285614,95.794357 171.15479,29.12552 96.285614,95.794357 172.30691,30.442321 96.285614,95.794357 173.43589,31.779029 96.285614,95.794357 174.54136,33.135237 96.285614,95.794357 175.62299,34.510532 96.285614,95.794357 176.68046,35.904493 96.285614,95.794357 177.71344,37.316699 96.285614,95.794357 178.72161,38.746716 96.285614,95.794357 179.70467,40.194112 96.285614,95.794357 180.66233,41.658443 96.285614,95.794357 181.59428,43.139265 96.285614,95.794357 182.50024,44.636126 96.285614,95.794357 183.37995,46.14857 96.285614,95.794357 184.23312,47.676137 96.285614,95.794357 185.0595,49.218362 96.285614,95.794357 185.85885,50.774773 96.285614,95.794357 186.6309,52.344898 96.285614,95.794357 187.37544,53.928259 96.285614,95.794357 188.09223,55.524372 96.285614,95.794357 188.78106,57.132751 96.285614,95.794357 189.44171,58.752908 96.285614,95.794357 190.07398,60.384348 96.285614,95.794357 190.67769,62.026573 96.285614,95.794357 191.25264,63.679085 96.285614,95.794357 191.79866,65.34138 96.285614,95.794357 192.3156,67.01295 96.285614,95.794357 192.80327,68.693288 96.285614,95.794357 193.26155,70.381881 96.285614,95.794357 193.69029,72.078215 96.285614,95.794357 194.08936,73.781773 96.285614,95.794357 194.45864,75.492037 96.285614,95.794357 194.79801,77.208484 96.285614,95.794357 195.10737,78.930593 96.285614,95.794357 195.38664,80.657839 96.285614,95.794357 195.63571,82.389696 96.285614,95.794357 195.85452,84.125636 96.285614,95.794357 196.04301,85.86513 96.285614,95.794357 196.2011,87.607649 96.285614,95.794357 196.32876,89.352662 96.285614,95.794357 196.42595,91.099636 96.285614,95.794357 196.49263,92.848041 96.285614,95.794357 196.52879,94.597343 96.285614,95.794357 196.53441,96.34701 96.285614,95.794357 196.5095,98.096509 96.285614,95.794357 196.45405,99.845306 96.285614,95.794357 196.3681,101.59287 96.285614,95.794357 196.25166,103.33867 96.285614,95.794357 196.10477,105.08217 96.285614,95.794357 195.92747,106.82284 96.285614,95.794357 195.71982,108.56015 96.285614,95.794357 195.48188,110.29357 96.285614,95.794357 195.21373,112.02257 96.285614,95.794357 194.91544,113.74664 96.285614,95.794357 194.58711,115.46523 96.285614,95.794357 194.22883,117.17783 96.285614,95.794357 193.84072,118.88392 96.285614,95.794357 193.42289,120.58297 96.285614,95.794357 192.97548,122.27448 96.285614,95.794357 192.49861,123.95791 96.285614,95.794357 191.99244,125.63277 96.285614,95.794357 191.45711,127.29854 96.285614,95.794357 190.89279,128.95472 96.285614,95.794357 190.29965,130.60079 96.285614,95.794357 189.67788,132.23626 96.285614,95.794357 189.02765,133.86063 96.285614,95.794357 188.34918,135.4734 96.285614,95.794357 187.64266,137.07409 96.285614,95.794357 186.90832,138.6622 96.285614,95.794357 186.14637,140.23726 96.285614,95.794357 185.35705,141.79878 96.285614,95.794357 184.54059,143.34628 96.285614,95.794357 183.69726,144.8793 96.285614,95.794357 182.82729,146.39737 96.285614,95.794357 181.93097,147.90002 96.285614,95.794357 181.00855,149.3868 96.285614,95.794357 180.06033,150.85726 96.285614,95.794357 179.08659,152.31094 96.285614,95.794357 178.08763,153.74741 96.285614,95.794357 177.06375,155.16623 96.285614,95.794357 176.01527,156.56696 96.285614,95.794357 174.9425,157.94918 96.285614,95.794357 173.84577,159.31246 96.285614,95.794357 172.72541,160.6564 96.285614,95.794357 171.58177,161.98058 96.285614,95.794357 170.41519,163.2846 96.285614,95.794357 169.22603,164.56806 96.285614,95.794357 168.01466,165.83057 96.285614,95.794357 166.78143,167.07175 96.285614,95.794357 165.52673,168.29121 96.285614,95.794357 164.25094,169.48859 96.285614,95.794357 162.95445,170.66353 96.285614,95.794357 161.63765,171.81566 96.285614,95.794357 160.30094,172.94463 96.285614,95.794357 158.94473,174.0501 96.285614,95.794357 Z"
       inkscape:transform-center-x="1.8163911"
       inkscape:transform-center-y="-17.362695"
       transform="matrix(1.9950234,0,0,1.9950202,7.9081002,-191.11185)" />
  </g>
</svg>
