<?xml version="1.0" encoding="UTF-8"?>
<svg id="a" data-name="Laag 1" xmlns="http://www.w3.org/2000/svg" width="340" height="340" viewBox="0 0 340 340">
  <g>
    <path d="M155.936,190.598s-4.978-4.611-4.978-10.299,4.978-10.299,4.978-10.299c0,0,4.978-4.611,4.978-10.299s-4.978-10.299-4.978-10.299" fill="none" stroke="#007e84" stroke-linecap="round" stroke-linejoin="round" stroke-width="4"/>
    <path d="M170,190.598s-4.978-4.611-4.978-10.299,4.978-10.299,4.978-10.299c0,0,4.978-4.611,4.978-10.299s-4.978-10.299-4.978-10.299" fill="none" stroke="#007e84" stroke-linecap="round" stroke-linejoin="round" stroke-width="4"/>
    <path d="M184.064,190.598s-4.978-4.611-4.978-10.299,4.978-10.299,4.978-10.299c0,0,4.978-4.611,4.978-10.299s-4.978-10.299-4.978-10.299" fill="none" stroke="#007e84" stroke-linecap="round" stroke-linejoin="round" stroke-width="4"/>
  </g>
  <g>
    <polyline points="243.814 222.11 302.958 222.11 302.958 100.72 243.814 100.72" fill="none" stroke="#007e84" stroke-linecap="round" stroke-linejoin="round" stroke-width="4"/>
    <rect x="253.989" y="194.298" width="14.31" height="27.812" fill="none" stroke="#007e84" stroke-linecap="round" stroke-linejoin="round" stroke-width="4"/>
    <rect x="253.989" y="112.395" width="14.31" height="12.464" fill="none" stroke="#007e84" stroke-linecap="round" stroke-linejoin="round" stroke-width="4"/>
    <rect x="278.474" y="112.395" width="14.31" height="12.464" fill="none" stroke="#007e84" stroke-linecap="round" stroke-linejoin="round" stroke-width="4"/>
    <rect x="253.989" y="140.184" width="14.31" height="12.464" fill="none" stroke="#007e84" stroke-linecap="round" stroke-linejoin="round" stroke-width="4"/>
    <rect x="278.474" y="140.184" width="14.31" height="12.464" fill="none" stroke="#007e84" stroke-linecap="round" stroke-linejoin="round" stroke-width="4"/>
    <rect x="253.989" y="167.972" width="14.31" height="12.464" fill="none" stroke="#007e84" stroke-linecap="round" stroke-linejoin="round" stroke-width="4"/>
    <rect x="278.474" y="167.972" width="14.31" height="12.464" fill="none" stroke="#007e84" stroke-linecap="round" stroke-linejoin="round" stroke-width="4"/>
    <rect x="278.474" y="194.727" width="14.31" height="12.464" fill="none" stroke="#007e84" stroke-linecap="round" stroke-linejoin="round" stroke-width="4"/>
  </g>
  <polyline points="206.37 101.139 206.37 48.776 187.441 66.921 187.441 48.776 168.513 66.921 168.513 48.776 149.584 66.921 149.584 21.219 133.63 21.219 133.63 101.139" fill="none" stroke="#007e84" stroke-linecap="round" stroke-linejoin="round" stroke-width="4"/>
  <polyline points="179.258 241.43 202.72 266.535 193.706 266.535 193.706 294.598 146.294 294.598 146.294 266.535 137.28 266.535 160.742 241.43" fill="none" stroke="#007e84" stroke-linecap="round" stroke-linejoin="round" stroke-width="4"/>
  <rect x="154.45" y="266.676" width="11.471" height="27.921" transform="translate(320.372 561.274) rotate(180)" fill="none" stroke="#007e84" stroke-linecap="round" stroke-linejoin="round" stroke-width="4"/>
  <rect x="174.078" y="266.676" width="11.471" height="13.734" transform="translate(359.628 547.087) rotate(180)" fill="none" stroke="#007e84" stroke-linecap="round" stroke-linejoin="round" stroke-width="4"/>
  <polygon points="113.818 241.43 137.28 266.535 128.267 266.535 128.267 294.598 80.854 294.598 80.854 266.535 71.84 266.535 95.302 241.43 113.818 241.43" fill="none" stroke="#007e84" stroke-linecap="round" stroke-linejoin="round" stroke-width="4"/>
  <rect x="89.01" y="266.676" width="11.471" height="27.921" transform="translate(189.492 561.274) rotate(180)" fill="none" stroke="#007e84" stroke-linecap="round" stroke-linejoin="round" stroke-width="4"/>
  <rect x="108.638" y="266.676" width="11.471" height="13.734" transform="translate(228.748 547.087) rotate(180)" fill="none" stroke="#007e84" stroke-linecap="round" stroke-linejoin="round" stroke-width="4"/>
  <polygon points="244.698 241.43 268.16 266.535 259.146 266.535 259.146 294.598 211.733 294.598 211.733 266.535 202.72 266.535 226.182 241.43 244.698 241.43" fill="none" stroke="#007e84" stroke-linecap="round" stroke-linejoin="round" stroke-width="4"/>
  <rect x="219.89" y="266.676" width="11.471" height="27.921" transform="translate(451.252 561.274) rotate(180)" fill="none" stroke="#007e84" stroke-linecap="round" stroke-linejoin="round" stroke-width="4"/>
  <rect x="239.518" y="266.676" width="11.471" height="13.734" transform="translate(490.508 547.087) rotate(180)" fill="none" stroke="#007e84" stroke-linecap="round" stroke-linejoin="round" stroke-width="4"/>
  <g>
    <path d="M78.191,140.916s15.133-7.241,9.106-19.266" fill="none" stroke="#007e84" stroke-linecap="round" stroke-linejoin="round" stroke-width="4"/>
    <path d="M83.453,126.952s-14.487.517-14.487,10.344c0,9.507-3.899,14.611-3.899,14.611,0,0,34.548,6.514,23.434-22.604" fill="none" stroke="#007e84" stroke-linecap="round" stroke-linejoin="round" stroke-width="4"/>
  </g>
  <g>
    <polygon points="66.277 122.743 47.71 122.743 43.714 96.841 70.273 96.841 66.277 122.743" fill="none" stroke="#007e84" stroke-linecap="round" stroke-linejoin="round" stroke-width="4"/>
    <line x1="40.533" y1="96.841" x2="73.454" y2="96.841" fill="none" stroke="#007e84" stroke-linecap="round" stroke-linejoin="round" stroke-width="4"/>
    <line x1="56.993" y1="103.553" x2="56.993" y2="115.588" fill="none" stroke="#007e84" stroke-linecap="round" stroke-linejoin="round" stroke-width="4"/>
    <polygon points="64.966 96.841 49.02 96.841 52.368 89.451 61.618 89.451 64.966 96.841" fill="none" stroke="#007e84" stroke-linecap="round" stroke-linejoin="round" stroke-width="4"/>
  </g>
  <g>
    <path d="M113.807,111.591c0,6.029-4.887,10.916-10.916,10.916s-10.916-4.887-10.916-10.916c0-8.884,10.916-22.143,10.916-22.143,0,0,10.916,13.793,10.916,22.143Z" fill="none" stroke="#007e84" stroke-linecap="round" stroke-linejoin="round" stroke-width="4"/>
    <path d="M107.171,110.446c0,2.636-2.137,4.774-4.774,4.774" fill="none" stroke="#007e84" stroke-linecap="round" stroke-linejoin="round" stroke-width="4"/>
  </g>
  <path d="M119.216,160.742c-5.721,0-10.358,4.973-10.358,4.973,0,0-4.638,4.973-10.358,4.973-5.721,0-10.358-4.973-10.358-4.973h-.132s-4.638-4.973-10.358-4.973c-5.721,0-10.358,4.973-10.358,4.973,0,0-4.638,4.973-10.358,4.973-5.721,0-10.358-4.973-10.358-4.973h0s-.132,0-.132,0c0,0-4.638-4.973-10.358-4.973" fill="none" stroke="#007e84" stroke-linecap="round" stroke-linejoin="round" stroke-width="4"/>
  <path d="M67.6,202.043c0,6.551,5.311,11.862,11.862,11.862s11.862-5.311,11.862-11.862c0-1.562-.31-3.05-.858-4.416-1.021,1.667-2.854,2.782-4.952,2.782-3.209,0-5.811-2.602-5.811-5.811,0-1.667.706-3.166,1.83-4.226,6.61-6.61-5.731-14.212-5.731-14.212,3.062,10.644-8.202,14.472-8.202,25.882" fill="none" stroke="#007e84" stroke-linecap="round" stroke-linejoin="round" stroke-width="4"/>
  <line x1="58.17" y1="150.133" x2="37.433" y2="129.242" fill="none" stroke="#007e84" stroke-linecap="round" stroke-linejoin="round" stroke-width="4"/>
  <line x1="97.601" y1="150.133" x2="118.339" y2="129.242" fill="none" stroke="#007e84" stroke-linecap="round" stroke-linejoin="round" stroke-width="4"/>
  <line x1="98.697" y1="150.133" x2="119.209" y2="150.099" fill="none" stroke="#007e84" stroke-linecap="round" stroke-linejoin="round" stroke-width="4"/>
  <polyline points="207.68 138.1 197.312 138.1 197.312 148.467" fill="none" stroke="#007e84" stroke-linecap="round" stroke-linejoin="round" stroke-width="4"/>
  <polyline points="137.454 133.064 137.454 143.432 147.821 143.432" fill="none" stroke="#007e84" stroke-linecap="round" stroke-linejoin="round" stroke-width="4"/>
  <polyline points="131.36 200.959 141.727 200.959 141.727 190.591" fill="none" stroke="#007e84" stroke-linecap="round" stroke-linejoin="round" stroke-width="4"/>
  <polyline points="200.927 208.668 200.927 198.3 190.559 198.3" fill="none" stroke="#007e84" stroke-linecap="round" stroke-linejoin="round" stroke-width="4"/>
  <polyline points="119.209 179.258 119.209 222.11 35.127 222.11 35.955 150.133 58.17 150.099" fill="none" stroke="#007e84" stroke-linecap="round" stroke-linejoin="round" stroke-width="4"/>
  <path d="M210.927,160.742c-3.546-15.74-15.929-28.124-31.669-31.669" fill="none" stroke="#007e84" stroke-linecap="round" stroke-linejoin="round" stroke-width="4"/>
  <path d="M179.258,210.927c15.74-3.546,28.124-15.929,31.669-31.669" fill="none" stroke="#007e84" stroke-linecap="round" stroke-linejoin="round" stroke-width="4"/>
  <line x1="160.742" y1="210.927" x2="160.742" y2="241.43" fill="none" stroke="#007e84" stroke-linecap="round" stroke-linejoin="round" stroke-width="4"/>
  <line x1="179.258" y1="210.927" x2="179.258" y2="241.43" fill="none" stroke="#007e84" stroke-linecap="round" stroke-linejoin="round" stroke-width="4"/>
  <line x1="210.927" y1="160.742" x2="243.814" y2="160.742" fill="none" stroke="#007e84" stroke-linecap="round" stroke-linejoin="round" stroke-width="4"/>
  <line x1="210.927" y1="179.258" x2="243.814" y2="179.258" fill="none" stroke="#007e84" stroke-linecap="round" stroke-linejoin="round" stroke-width="4"/>
  <line x1="160.742" y1="129.073" x2="160.742" y2="101.139" fill="none" stroke="#007e84" stroke-linecap="round" stroke-linejoin="round" stroke-width="4"/>
  <line x1="179.258" y1="129.073" x2="179.258" y2="101.139" fill="none" stroke="#007e84" stroke-linecap="round" stroke-linejoin="round" stroke-width="4"/>
  <g>
    <path d="M160.742,129.073c-15.741,3.546-28.132,15.931-31.678,31.669" fill="none" stroke="#007e84" stroke-linecap="round" stroke-linejoin="round" stroke-width="4"/>
    <path d="M129.064,179.258c3.546,15.738,15.938,28.123,31.678,31.669" fill="none" stroke="#007e84" stroke-linecap="round" stroke-linejoin="round" stroke-width="4"/>
  </g>
  <line x1="129.064" y1="179.258" x2="119.209" y2="179.258" fill="none" stroke="#007e84" stroke-linecap="round" stroke-linejoin="round" stroke-width="4"/>
  <line x1="129.064" y1="160.742" x2="119.209" y2="160.742" fill="none" stroke="#007e84" stroke-linecap="round" stroke-linejoin="round" stroke-width="4"/>
  <line x1="160.742" y1="101.139" x2="133.63" y2="101.139" fill="none" stroke="#007e84" stroke-linecap="round" stroke-linejoin="round" stroke-width="4"/>
  <line x1="179.258" y1="101.139" x2="206.37" y2="101.139" fill="none" stroke="#007e84" stroke-linecap="round" stroke-linejoin="round" stroke-width="4"/>
  <line x1="243.814" y1="100.72" x2="243.814" y2="160.742" fill="none" stroke="#007e84" stroke-linecap="round" stroke-linejoin="round" stroke-width="4"/>
  <line x1="243.814" y1="179.258" x2="243.814" y2="222.11" fill="none" stroke="#007e84" stroke-linecap="round" stroke-linejoin="round" stroke-width="4"/>
  <line x1="119.209" y1="150.099" x2="119.216" y2="160.742" fill="none" stroke="#007e84" stroke-linecap="round" stroke-linejoin="round" stroke-width="4"/>
</svg>