<?xml version="1.0" encoding="UTF-8"?>
<svg id="a" data-name="Laag 1" xmlns="http://www.w3.org/2000/svg" width="686.116" height="359.152" viewBox="0 0 686.116 359.152">
  <g>
    <path d="M334.815,274.748c-1.24,0-2.345-.172-3.315-.518-.97-.345-1.805-.768-2.505-1.268s-1.275-.993-1.725-1.478c-.45-.485-.78-.868-.99-1.148l1.666-2.37c.23.28.54.64.93,1.08.39.44.87.88,1.44,1.32.57.44,1.235.81,1.995,1.11.76.3,1.621.45,2.581.45.91,0,1.735-.16,2.475-.48.74-.32,1.333-.795,1.778-1.425.445-.63.667-1.41.667-2.34,0-.79-.16-1.462-.48-2.018-.32-.555-.765-1.033-1.335-1.433-.57-.4-1.235-.768-1.996-1.103-.76-.335-1.58-.672-2.46-1.012-.621-.25-1.25-.542-1.891-.878-.64-.335-1.23-.745-1.77-1.23-.54-.485-.975-1.062-1.305-1.733-.33-.67-.495-1.46-.495-2.37,0-.92.175-1.79.525-2.61.35-.82.845-1.548,1.485-2.183.64-.635,1.403-1.135,2.288-1.5.885-.365,1.868-.547,2.948-.547.96,0,1.868.15,2.723.45.855.3,1.618.683,2.288,1.148.67.465,1.205.953,1.605,1.462l-1.425,2.235c-.33-.43-.75-.837-1.26-1.223-.51-.385-1.095-.697-1.755-.938s-1.371-.36-2.13-.36c-.93,0-1.718.192-2.363.578-.645.385-1.138.882-1.478,1.493-.34.61-.51,1.26-.51,1.95,0,.62.127,1.145.383,1.575.255.43.597.795,1.027,1.095.43.3.915.565,1.455.795s1.095.45,1.666.66c1.02.4,1.985.812,2.895,1.237.91.425,1.71.92,2.4,1.485.69.565,1.232,1.243,1.628,2.033.395.791.592,1.746.592,2.866,0,1.51-.357,2.798-1.072,3.863-.715,1.065-1.693,1.878-2.933,2.438-1.24.56-2.655.84-4.246.84Z" fill="#e4005b"/>
    <path d="M355.022,274.268v-24.753h3.045v24.753h-3.045Z" fill="#e4005b"/>
    <path d="M370.384,274.268l2.985-24.753h3.24l6.871,18.212,6.871-18.212h3.24l2.985,24.753h-3.045l-2.385-19.172-6.646,17.927h-2.04l-6.646-17.927-2.385,19.172h-3.045Z" fill="#e4005b"/>
    <path d="M417.34,274.748c-2.92,0-5.121-.78-6.601-2.34-1.48-1.56-2.22-3.885-2.22-6.976v-15.917h3.045v15.152c0,2.41.473,4.193,1.418,5.348.945,1.155,2.397,1.732,4.358,1.732s3.413-.578,4.358-1.732c.945-1.155,1.418-2.938,1.418-5.348v-15.152h3.06v15.917c0,3.09-.74,5.416-2.22,6.976-1.48,1.561-3.686,2.34-6.616,2.34Z" fill="#e4005b"/>
    <path d="M439.467,274.268v-24.753h3.045v22.068h9.946v2.686h-12.992Z" fill="#e4005b"/>
    <path d="M461.475,274.268l9.796-24.753h2.835l9.796,24.753h-3.286l-2.745-7.216h-10.367l-2.76,7.216h-3.271ZM468.541,264.367h8.296l-4.156-10.786-4.141,10.786Z" fill="#e4005b"/>
    <path d="M498.215,274.268v-22.023h-7.171v-2.73h17.402v2.73h-7.186v22.023h-3.045Z" fill="#e4005b"/>
    <path d="M519.592,274.268v-24.753h3.045v24.753h-3.045Z" fill="#e4005b"/>
    <path d="M547.166,274.748c-1.73,0-3.351-.33-4.86-.99-1.51-.66-2.835-1.577-3.976-2.752s-2.033-2.541-2.678-4.096c-.646-1.555-.968-3.223-.968-5.003,0-1.79.322-3.46.968-5.01.645-1.55,1.538-2.913,2.678-4.088,1.14-1.175,2.465-2.093,3.976-2.753,1.51-.66,3.13-.99,4.86-.99s3.351.33,4.861.99c1.51.66,2.835,1.578,3.976,2.753,1.14,1.175,2.033,2.538,2.678,4.088s.968,3.22.968,5.01c0,1.781-.323,3.448-.968,5.003s-1.538,2.92-2.678,4.096-2.466,2.093-3.976,2.752c-1.51.66-3.13.99-4.861.99ZM547.166,271.808c1.3,0,2.508-.25,3.623-.75,1.115-.5,2.09-1.198,2.925-2.093s1.485-1.945,1.95-3.15c.465-1.205.698-2.508.698-3.908s-.232-2.703-.698-3.908c-.465-1.205-1.115-2.255-1.95-3.15s-1.81-1.593-2.925-2.093-2.323-.75-3.623-.75-2.508.25-3.623.75-2.09,1.198-2.925,2.093-1.485,1.945-1.95,3.15c-.465,1.205-.698,2.508-.698,3.908s.233,2.703.698,3.908c.465,1.206,1.115,2.255,1.95,3.15s1.81,1.593,2.925,2.093c1.115.5,2.323.75,3.623.75Z" fill="#e4005b"/>
    <path d="M571.694,274.268v-24.753h3.045l12.512,19.608v-19.608h3.045v24.753h-3.045l-12.512-19.593v19.593h-3.045Z" fill="#e4005b"/>
    <path d="M609.633,274.748c-1.24,0-2.345-.172-3.315-.518-.97-.345-1.805-.768-2.505-1.268s-1.275-.993-1.725-1.478c-.45-.485-.78-.868-.99-1.148l1.666-2.37c.23.28.54.64.93,1.08.39.44.87.88,1.44,1.32.57.44,1.235.81,1.995,1.11.76.3,1.621.45,2.581.45.91,0,1.735-.16,2.475-.48.74-.32,1.333-.795,1.778-1.425.445-.63.667-1.41.667-2.34,0-.79-.16-1.462-.48-2.018-.32-.555-.765-1.033-1.335-1.433-.57-.4-1.235-.768-1.996-1.103-.76-.335-1.58-.672-2.46-1.012-.621-.25-1.25-.542-1.891-.878-.64-.335-1.23-.745-1.77-1.23-.54-.485-.975-1.062-1.305-1.733-.33-.67-.495-1.46-.495-2.37,0-.92.175-1.79.525-2.61.35-.82.845-1.548,1.485-2.183.64-.635,1.403-1.135,2.288-1.5.885-.365,1.868-.547,2.948-.547.96,0,1.868.15,2.723.45.855.3,1.618.683,2.288,1.148.67.465,1.205.953,1.605,1.462l-1.425,2.235c-.33-.43-.75-.837-1.26-1.223-.51-.385-1.095-.697-1.755-.938s-1.371-.36-2.13-.36c-.93,0-1.718.192-2.363.578-.645.385-1.138.882-1.478,1.493-.34.61-.51,1.26-.51,1.95,0,.62.127,1.145.383,1.575.255.43.597.795,1.027,1.095.43.3.915.565,1.455.795s1.095.45,1.666.66c1.02.4,1.985.812,2.895,1.237.91.425,1.71.92,2.4,1.485.69.565,1.232,1.243,1.628,2.033.395.791.592,1.746.592,2.866,0,1.51-.357,2.798-1.072,3.863-.715,1.065-1.693,1.878-2.933,2.438-1.24.56-2.655.84-4.246.84Z" fill="#e4005b"/>
  </g>
  <g>
    <path d="M155.068,66.375c3.778,6.465,1.6,14.768-4.865,18.546-6.465,3.778-14.768,1.6-18.546-4.865-3.778-6.465-1.6-14.768,4.865-18.546,6.465-3.778,14.768-1.6,18.546,4.865" fill="#ec6955"/>
    <path d="M282.62,261.615c7.016,12.006,2.971,27.427-9.035,34.443-12.007,7.016-27.427,2.97-34.443-9.036-7.016-12.006-2.971-27.426,9.035-34.442,12.007-7.016,27.427-2.971,34.443,9.035" fill="#fcc200"/>
    <path d="M108.636,102.608c7.433,4.239,10.021,13.701,5.781,21.133-4.239,7.433-13.701,10.022-21.134,5.783-7.433-4.239-10.021-13.701-5.781-21.134,4.239-7.432,13.701-10.021,21.134-5.782" fill="#ee7a4e"/>
    <path d="M85.571,156.949c9.626-.051,17.47,7.711,17.52,17.337.051,9.625-7.712,17.47-17.338,17.521-9.626.05-17.47-7.712-17.521-17.337-.05-9.626,7.713-17.47,17.339-17.521" fill="#f18946"/>
    <path d="M91.798,215.804c9.235-5.397,21.097-2.285,26.494,6.95,5.397,9.236,2.285,21.098-6.95,26.495-9.235,5.397-21.097,2.285-26.494-6.951-5.397-9.235-2.285-21.097,6.95-26.494" fill="#f3993a"/>
    <path d="M298.765,108.319c3.694-2.159,8.439-.914,10.598,2.78,2.159,3.694.914,8.439-2.78,10.598-3.695,2.159-8.439.914-10.598-2.78-2.159-3.694-.914-8.439,2.78-10.598" fill="#e62b5b"/>
    <path d="M125.917,264.377c5.829-10.219,18.839-13.779,29.059-7.951,10.219,5.829,13.778,18.838,7.949,29.057-5.83,10.22-18.84,13.779-29.059,7.951-10.22-5.828-13.778-18.838-7.949-29.057" fill="#f6a729"/>
    <path d="M251.411,67.806c2.65-4.646,8.564-6.264,13.21-3.614,4.646,2.65,6.264,8.564,3.614,13.21-2.65,4.646-8.564,6.264-13.21,3.614-4.646-2.65-6.264-8.564-3.614-13.21" fill="#e4005b"/>
    <path d="M179.494,290.35c-.067-12.834,10.283-23.293,23.118-23.36,12.834-.068,23.293,10.28,23.359,23.114.067,12.834-10.283,23.293-23.117,23.361-12.835.067-23.293-10.281-23.36-23.115" fill="#f9b509"/>
    <path d="M189.89,57.368c-.034-6.418,5.142-11.647,11.559-11.681,6.418-.034,11.648,5.141,11.682,11.559.033,6.417-5.142,11.647-11.56,11.681-6.418.034-11.647-5.141-11.681-11.559" fill="#ea5758"/>
    <polyline points="161.981 135.872 161.981 125.929 242.262 125.929 161.981 221.605 242.262 221.605 242.262 212.05" fill="none" stroke="#1d1d1b" stroke-linecap="round" stroke-linejoin="round" stroke-width="8.325"/>
    <path d="M213.679,173.767c0,6.383-5.174,11.557-11.557,11.557s-11.558-5.174-11.558-11.557,5.175-11.557,11.558-11.557,11.557,5.174,11.557,11.557" fill="#fff"/>
    <path d="M213.679,173.767c0,6.383-5.174,11.557-11.557,11.557s-11.558-5.174-11.558-11.557,5.175-11.557,11.558-11.557,11.557,5.174,11.557,11.557Z" fill="none" stroke="#1d1d1b" stroke-miterlimit="10" stroke-width="8.325"/>
    <circle cx="586.808" cy="192.404" r="29.986" fill="none" stroke="#1d1d1b" stroke-linecap="round" stroke-linejoin="round" stroke-width="8.325"/>
    <path d="M355.843,185.629c0-12.819,10.392-23.211,23.211-23.211s23.212,10.392,23.212,23.211" fill="none" stroke="#1d1d1b" stroke-linecap="round" stroke-linejoin="round" stroke-width="8.325"/>
    <line x1="355.843" y1="185.629" x2="355.843" y2="221.733" fill="none" stroke="#1d1d1b" stroke-linecap="round" stroke-linejoin="round" stroke-width="8.325"/>
    <line x1="402.266" y1="185.629" x2="402.266" y2="222.427" fill="none" stroke="#1d1d1b" stroke-linecap="round" stroke-linejoin="round" stroke-width="8.325"/>
    <path d="M434.359,185.629c0-12.819,10.392-23.211,23.211-23.211s23.212,10.392,23.212,23.211" fill="none" stroke="#1d1d1b" stroke-linecap="round" stroke-linejoin="round" stroke-width="8.325"/>
    <line x1="434.359" y1="185.629" x2="434.359" y2="221.733" fill="none" stroke="#1d1d1b" stroke-linecap="round" stroke-linejoin="round" stroke-width="8.325"/>
    <line x1="480.781" y1="185.629" x2="480.781" y2="222.427" fill="none" stroke="#1d1d1b" stroke-linecap="round" stroke-linejoin="round" stroke-width="8.325"/>
    <path d="M480.781,185.629c0-12.819,10.392-23.211,23.211-23.211s23.212,10.392,23.212,23.211" fill="none" stroke="#1d1d1b" stroke-linecap="round" stroke-linejoin="round" stroke-width="8.325"/>
    <line x1="527.204" y1="185.629" x2="527.204" y2="222.427" fill="none" stroke="#1d1d1b" stroke-linecap="round" stroke-linejoin="round" stroke-width="8.325"/>
    <path d="M324.448,207.738c-5.232,8.775-14.817,14.652-25.775,14.652-16.56,0-29.986-13.425-29.986-29.986s13.426-29.986,29.986-29.986,29.987,13.425,29.987,29.986" fill="none" stroke="#1d1d1b" stroke-linecap="round" stroke-linejoin="round" stroke-width="8.325"/>
    <polyline points="268.687 192.404 300.488 192.404 328.66 192.404" fill="none" stroke="#1d1d1b" stroke-linecap="round" stroke-linejoin="round" stroke-width="8.325"/>
  </g>
</svg>