<?xml version="1.0" encoding="UTF-8"?>
<!DOCTYPE svg PUBLIC "-//W3C//DTD SVG 1.1//EN" "http://www.w3.org/Graphics/SVG/1.1/DTD/svg11.dtd">
<svg version="1.2" width="106.75mm" height="106.76mm" viewBox="40961 15964 10675 10676" preserveAspectRatio="xMidYMid"
     fill-rule="evenodd" stroke-width="28.222" stroke-linejoin="round" xmlns="http://www.w3.org/2000/svg"
     xml:space="preserve">
 <defs class="EmbeddedBulletChars">
  <g id="bullet-char-template-57356" transform="scale(0.00048828125,-0.00048828125)">
   <path d="M 580,1141 L 1163,571 580,0 -4,571 580,1141 Z"/>
  </g>
     <g id="bullet-char-template-57354" transform="scale(0.00048828125,-0.00048828125)">
   <path d="M 8,1128 L 1137,1128 1137,0 8,0 8,1128 Z"/>
  </g>
     <g id="bullet-char-template-10146" transform="scale(0.00048828125,-0.00048828125)">
   <path d="M 174,0 L 602,739 174,1481 1456,739 174,0 Z M 1358,739 L 309,1346 659,739 1358,739 Z"/>
  </g>
     <g id="bullet-char-template-10132" transform="scale(0.00048828125,-0.00048828125)">
   <path d="M 2015,739 L 1276,0 717,0 1260,543 174,543 174,936 1260,936 717,1481 1274,1481 2015,739 Z"/>
  </g>
     <g id="bullet-char-template-10007" transform="scale(0.00048828125,-0.00048828125)">
   <path d="M 0,-2 C -7,14 -16,27 -25,37 L 356,567 C 262,823 215,952 215,954 215,979 228,992 255,992 264,992 276,990 289,987 310,991 331,999 354,1012 L 381,999 492,748 772,1049 836,1024 860,1049 C 881,1039 901,1025 922,1006 886,937 835,863 770,784 769,783 710,716 594,584 L 774,223 C 774,196 753,168 711,139 L 727,119 C 717,90 699,76 672,76 641,76 570,178 457,381 L 164,-76 C 142,-110 111,-127 72,-127 30,-127 9,-110 8,-76 1,-67 -2,-52 -2,-32 -2,-23 -1,-13 0,-2 Z"/>
  </g>
     <g id="bullet-char-template-10004" transform="scale(0.00048828125,-0.00048828125)">
   <path d="M 285,-33 C 182,-33 111,30 74,156 52,228 41,333 41,471 41,549 55,616 82,672 116,743 169,778 240,778 293,778 328,747 346,684 L 369,508 C 377,444 397,411 428,410 L 1163,1116 C 1174,1127 1196,1133 1229,1133 1271,1133 1292,1118 1292,1087 L 1292,965 C 1292,929 1282,901 1262,881 L 442,47 C 390,-6 338,-33 285,-33 Z"/>
  </g>
     <g id="bullet-char-template-9679" transform="scale(0.00048828125,-0.00048828125)">
   <path d="M 813,0 C 632,0 489,54 383,161 276,268 223,411 223,592 223,773 276,916 383,1023 489,1130 632,1184 813,1184 992,1184 1136,1130 1245,1023 1353,916 1407,772 1407,592 1407,412 1353,268 1245,161 1136,54 992,0 813,0 Z"/>
  </g>
     <g id="bullet-char-template-8226" transform="scale(0.00048828125,-0.00048828125)">
   <path d="M 346,457 C 273,457 209,483 155,535 101,586 74,649 74,723 74,796 101,859 155,911 209,963 273,989 346,989 419,989 480,963 531,910 582,859 608,796 608,723 608,648 583,586 532,535 482,483 420,457 346,457 Z"/>
  </g>
     <g id="bullet-char-template-8211" transform="scale(0.00048828125,-0.00048828125)">
   <path d="M -4,459 L 1135,459 1135,606 -4,606 -4,459 Z"/>
  </g>
     <g id="bullet-char-template-61548" transform="scale(0.00048828125,-0.00048828125)">
   <path d="M 173,740 C 173,903 231,1043 346,1159 462,1274 601,1332 765,1332 928,1332 1067,1274 1183,1159 1299,1043 1357,903 1357,740 1357,577 1299,437 1183,322 1067,206 928,148 765,148 601,148 462,206 346,322 231,437 173,577 173,740 Z"/>
  </g>
 </defs>
    <g class="Page">
  <g class="com.sun.star.drawing.OpenBezierShape">
   <g id="id3">
    <rect class="BoundingBox" stroke="none" fill="none" x="43237" y="18241" width="6124" height="6123"/>
       <path fill="none" stroke="rgb(255, 195, 0)" stroke-width="141" stroke-linejoin="round" stroke-linecap="round"
             d="M 48077,19519 L 48007,18813 48700,18910 48415,19189 C 48955,19730 49289,20477 49289,21303 49289,22954 47950,24292 46299,24292 44647,24292 43308,22954 43308,21303 43308,19651 44647,18312 46299,18312 46562,18312 46817,18346 47060,18410 L 44958,21718 46174,21718 45662,23630 47732,20821 46414,20820 "/>
   </g>
  </g>
        <g class="com.sun.star.drawing.LineShape">
   <g id="id4">
    <rect class="BoundingBox" stroke="none" fill="none" x="43594" y="16670" width="865" height="1394"/>
       <path fill="none" stroke="rgb(255, 195, 0)" stroke-width="141" stroke-linejoin="round" stroke-linecap="round"
             d="M 43665,16741 L 44387,17992 "/>
   </g>
  </g>
        <g class="com.sun.star.drawing.LineShape">
   <g id="id5">
    <rect class="BoundingBox" stroke="none" fill="none" x="48139" y="24542" width="865" height="1394"/>
       <path fill="none" stroke="rgb(255, 195, 0)" stroke-width="141" stroke-linejoin="round" stroke-linecap="round"
             d="M 48210,24613 L 48932,25864 "/>
   </g>
  </g>
        <g class="com.sun.star.drawing.LineShape">
   <g id="id6">
    <rect class="BoundingBox" stroke="none" fill="none" x="45051" y="16841" width="330" height="841"/>
       <path fill="none" stroke="rgb(255, 195, 0)" stroke-width="141" stroke-linejoin="round" stroke-linecap="round"
             d="M 45122,16912 L 45309,17610 "/>
   </g>
  </g>
        <g class="com.sun.star.drawing.LineShape">
   <g id="id7">
    <rect class="BoundingBox" stroke="none" fill="none" x="47217" y="24924" width="330" height="841"/>
       <path fill="none" stroke="rgb(255, 195, 0)" stroke-width="141" stroke-linejoin="round" stroke-linecap="round"
             d="M 47288,24995 L 47475,25693 "/>
   </g>
  </g>
        <g class="com.sun.star.drawing.LineShape">
   <g id="id8">
    <rect class="BoundingBox" stroke="none" fill="none" x="43013" y="18017" width="654" height="654"/>
       <path fill="none" stroke="rgb(255, 195, 0)" stroke-width="141" stroke-linejoin="round" stroke-linecap="round"
             d="M 43084,18088 L 43595,18599 "/>
   </g>
  </g>
        <g class="com.sun.star.drawing.LineShape">
   <g id="id9">
    <rect class="BoundingBox" stroke="none" fill="none" x="48930" y="23934" width="655" height="654"/>
       <path fill="none" stroke="rgb(255, 195, 0)" stroke-width="141" stroke-linejoin="round" stroke-linecap="round"
             d="M 49001,24005 L 49513,24516 "/>
   </g>
  </g>
        <g class="com.sun.star.drawing.LineShape">
   <g id="id10">
    <rect class="BoundingBox" stroke="none" fill="none" x="41837" y="20054" width="841" height="331"/>
       <path fill="none" stroke="rgb(255, 195, 0)" stroke-width="141" stroke-linejoin="round" stroke-linecap="round"
             d="M 41908,20125 L 42606,20313 "/>
   </g>
  </g>
        <g class="com.sun.star.drawing.LineShape">
   <g id="id11">
    <rect class="BoundingBox" stroke="none" fill="none" x="49920" y="22220" width="841" height="331"/>
       <path fill="none" stroke="rgb(255, 195, 0)" stroke-width="141" stroke-linejoin="round" stroke-linecap="round"
             d="M 49991,22291 L 50689,22479 "/>
   </g>
  </g>
        <g class="com.sun.star.drawing.LineShape">
   <g id="id12">
    <rect class="BoundingBox" stroke="none" fill="none" x="41837" y="22220" width="841" height="331"/>
       <path fill="none" stroke="rgb(255, 195, 0)" stroke-width="141" stroke-linejoin="round" stroke-linecap="round"
             d="M 41908,22479 L 42606,22291 "/>
   </g>
  </g>
        <g class="com.sun.star.drawing.LineShape">
   <g id="id13">
    <rect class="BoundingBox" stroke="none" fill="none" x="49920" y="20054" width="841" height="331"/>
       <path fill="none" stroke="rgb(255, 195, 0)" stroke-width="141" stroke-linejoin="round" stroke-linecap="round"
             d="M 49991,20313 L 50689,20125 "/>
   </g>
  </g>
        <g class="com.sun.star.drawing.LineShape">
   <g id="id14">
    <rect class="BoundingBox" stroke="none" fill="none" x="43013" y="23934" width="654" height="654"/>
       <path fill="none" stroke="rgb(255, 195, 0)" stroke-width="141" stroke-linejoin="round" stroke-linecap="round"
             d="M 43084,24516 L 43595,24005 "/>
   </g>
  </g>
        <g class="com.sun.star.drawing.LineShape">
   <g id="id15">
    <rect class="BoundingBox" stroke="none" fill="none" x="48930" y="18017" width="655" height="654"/>
       <path fill="none" stroke="rgb(255, 195, 0)" stroke-width="141" stroke-linejoin="round" stroke-linecap="round"
             d="M 49001,18599 L 49513,18088 "/>
   </g>
  </g>
        <g class="com.sun.star.drawing.LineShape">
   <g id="id16">
    <rect class="BoundingBox" stroke="none" fill="none" x="45051" y="24924" width="330" height="841"/>
       <path fill="none" stroke="rgb(255, 195, 0)" stroke-width="141" stroke-linejoin="round" stroke-linecap="round"
             d="M 45122,25693 L 45309,24995 "/>
   </g>
  </g>
        <g class="com.sun.star.drawing.LineShape">
   <g id="id17">
    <rect class="BoundingBox" stroke="none" fill="none" x="47217" y="16841" width="330" height="841"/>
       <path fill="none" stroke="rgb(255, 195, 0)" stroke-width="141" stroke-linejoin="round" stroke-linecap="round"
             d="M 47288,17610 L 47475,16912 "/>
   </g>
  </g>
        <g class="com.sun.star.drawing.LineShape">
   <g id="id18">
    <rect class="BoundingBox" stroke="none" fill="none" x="41666" y="18598" width="1394" height="865"/>
       <path fill="none" stroke="rgb(255, 195, 0)" stroke-width="141" stroke-linejoin="round" stroke-linecap="round"
             d="M 41737,18669 L 42988,19391 "/>
   </g>
  </g>
        <g class="com.sun.star.drawing.LineShape">
   <g id="id19">
    <rect class="BoundingBox" stroke="none" fill="none" x="49538" y="23142" width="1394" height="866"/>
       <path fill="none" stroke="rgb(255, 195, 0)" stroke-width="141" stroke-linejoin="round" stroke-linecap="round"
             d="M 49609,23213 L 50860,23936 "/>
   </g>
  </g>
        <g class="com.sun.star.drawing.LineShape">
   <g id="id20">
    <rect class="BoundingBox" stroke="none" fill="none" x="40961" y="21231" width="1586" height="143"/>
       <path fill="none" stroke="rgb(255, 195, 0)" stroke-width="141" stroke-linejoin="round" stroke-linecap="round"
             d="M 41032,21302 L 42475,21302 "/>
   </g>
  </g>
        <g class="com.sun.star.drawing.LineShape">
   <g id="id21">
    <rect class="BoundingBox" stroke="none" fill="none" x="50050" y="21231" width="1586" height="143"/>
       <path fill="none" stroke="rgb(255, 195, 0)" stroke-width="141" stroke-linejoin="round" stroke-linecap="round"
             d="M 50121,21302 L 51564,21302 "/>
   </g>
  </g>
        <g class="com.sun.star.drawing.LineShape">
   <g id="id22">
    <rect class="BoundingBox" stroke="none" fill="none" x="41666" y="23142" width="1394" height="866"/>
       <path fill="none" stroke="rgb(255, 195, 0)" stroke-width="141" stroke-linejoin="round" stroke-linecap="round"
             d="M 41737,23936 L 42988,23213 "/>
   </g>
  </g>
        <g class="com.sun.star.drawing.LineShape">
   <g id="id23">
    <rect class="BoundingBox" stroke="none" fill="none" x="49538" y="18598" width="1394" height="865"/>
       <path fill="none" stroke="rgb(255, 195, 0)" stroke-width="141" stroke-linejoin="round" stroke-linecap="round"
             d="M 49609,19391 L 50860,18669 "/>
   </g>
  </g>
        <g class="com.sun.star.drawing.LineShape">
   <g id="id24">
    <rect class="BoundingBox" stroke="none" fill="none" x="43594" y="24542" width="865" height="1393"/>
       <path fill="none" stroke="rgb(255, 195, 0)" stroke-width="141" stroke-linejoin="round" stroke-linecap="round"
             d="M 43665,25863 L 44387,24613 "/>
   </g>
  </g>
        <g class="com.sun.star.drawing.LineShape">
   <g id="id25">
    <rect class="BoundingBox" stroke="none" fill="none" x="48139" y="16670" width="865" height="1394"/>
       <path fill="none" stroke="rgb(255, 195, 0)" stroke-width="141" stroke-linejoin="round" stroke-linecap="round"
             d="M 48210,17992 L 48932,16741 "/>
   </g>
  </g>
        <g class="com.sun.star.drawing.LineShape">
   <g id="id26">
    <rect class="BoundingBox" stroke="none" fill="none" x="46227" y="25054" width="143" height="1586"/>
       <path fill="none" stroke="rgb(255, 195, 0)" stroke-width="141" stroke-linejoin="round" stroke-linecap="round"
             d="M 46298,26568 L 46298,25125 "/>
   </g>
  </g>
        <g class="com.sun.star.drawing.LineShape">
   <g id="id27">
    <rect class="BoundingBox" stroke="none" fill="none" x="46227" y="15964" width="143" height="1586"/>
       <path fill="none" stroke="rgb(255, 195, 0)" stroke-width="141" stroke-linejoin="round" stroke-linecap="round"
             d="M 46298,17478 L 46298,16035 "/>
   </g>
  </g>
 </g>
</svg>